<svg version="1.2" xmlns="http://www.w3.org/2000/svg" viewBox="0 0 71 70" width="500" height="493">
	<title>weather-icons</title>
	<defs>
		<linearGradient id="g1" x1="41.3" y1="56.6" x2="51.2" y2="46.6" gradientUnits="userSpaceOnUse">
			<stop offset="0" stop-color="#d6f2fd"/>
			<stop offset="1" stop-color="#e5f5fd"/>
		</linearGradient>
		<linearGradient id="g2" x1="40.5" y1="39" x2="63.5" y2="16" gradientUnits="userSpaceOnUse">
			<stop offset="0" stop-color="#d6f2fd"/>
			<stop offset="1" stop-color="#e5f5fd"/>
		</linearGradient>
		<linearGradient id="g3" x1="14" y1="67.9" x2="34" y2="47.9" gradientUnits="userSpaceOnUse">
			<stop offset="0" stop-color="#d6f2fd"/>
			<stop offset="1" stop-color="#e5f5fd"/>
		</linearGradient>
	</defs>
	<style>
		.s0 { fill: url(#g1) } 
		.s1 { fill: #ffffff } 
		.s2 { fill: url(#g2) } 
		.s3 { fill: url(#g3) } 
	</style>
	<g id="icons">
		<g id="Blizzard">
			<path id="blizzard" class="s0" d="m51.2 51.6c0 2.8-2.2 5-5 5-2.7 0-4.9-2.2-4.9-5 0-2.7 2.2-5 4.9-5 2.8 0 5 2.3 5 5z"/>
			<path id="cloud-large" class="s1" d="m49.2 39c6 0 10.8-4.8 10.8-10.6 0-5.8-4.8-10.5-10.8-10.5q0 0-0.1 0c-0.9-8.4-8.2-15-17-15-6.9 0-12.9 4.1-15.6 10q-0.1 0-0.2 0c-7.4 0-13.3 5.8-13.3 13 0 7.2 5.9 13.1 13.3 13.1"/>
			<path id="cloud-small-dark" class="s2" d="m63.2 39c3.7 0 6.8-3 6.8-6.7 0-3.8-3.1-6.8-6.8-6.8q-0.1 0-0.1 0c-0.6-5.3-5.2-9.5-10.7-9.5-4.4 0-8.2 2.6-9.9 6.3q-0.1 0-0.1 0c-4.7 0-8.4 3.8-8.4 8.4 0 4.6 3.7 8.3 8.4 8.3"/>
			<path id="snow-04" class="s3" d="m16 49.9c0 1.1-0.9 2-2 2-1.1 0-2-0.9-2-2 0-1.1 0.9-2 2-2 1.1 0 2 0.9 2 2zm10 0c0 1.1-0.9 2-2 2-1.1 0-2-0.9-2-2 0-1.1 0.9-2 2-2 1.1 0 2 0.9 2 2zm10 0c0 1.1-0.9 2-2 2-1.1 0-2-0.9-2-2 0-1.1 0.9-2 2-2 1.1 0 2 0.9 2 2zm-20 16.1c0 1.1-0.9 1.9-2 1.9-1.1 0-2-0.8-2-1.9 0-1.1 0.9-2 2-2 1.1 0 2 0.9 2 2zm10 0c0 1.1-0.9 1.9-2 1.9-1.1 0-2-0.8-2-1.9 0-1.1 0.9-2 2-2 1.1 0 2 0.9 2 2zm-5-7.9c0 1.1-0.9 1.9-2 1.9-1.1 0-2-0.8-2-1.9 0-1.1 0.9-2 2-2 1.1 0 2 0.9 2 2zm10 0c0 1.1-0.9 1.9-2 1.9-1.1 0-2-0.8-2-1.9 0-1.1 0.9-2 2-2 1.1 0 2 0.9 2 2z"/>
		</g>
	</g>
</svg>