<svg version="1.2" xmlns="http://www.w3.org/2000/svg" viewBox="0 0 74 76" width="500" height="514">
	<title>weather-icons</title>
	<defs>
		<linearGradient id="g1" x1="42.9" y1="31.9" x2="71.9" y2="3" gradientUnits="userSpaceOnUse">
			<stop offset="0" stop-color="#00ccff"/>
			<stop offset="1" stop-color="#5ddefe"/>
		</linearGradient>
		<linearGradient id="g2" x1="14.5" y1="47" x2="50.5" y2="10.9" gradientUnits="userSpaceOnUse">
			<stop offset="0" stop-color="#d6f2fd"/>
			<stop offset="1" stop-color="#e5f5fd"/>
		</linearGradient>
		<linearGradient id="g3" x1="29.1" y1="70.7" x2="44.8" y2="55" gradientUnits="userSpaceOnUse">
			<stop offset="0" stop-color="#00ccff"/>
			<stop offset="1" stop-color="#5ddefe"/>
		</linearGradient>
	</defs>
	<style>
		.s0 { fill: url(#g1) } 
		.s1 { fill: url(#g2) } 
		.s2 { fill: #ffffff } 
		.s3 { fill: url(#g3) } 
	</style>
	<g id="icons">
		<g id="Drizzle Night">
			<path id="moon-small" class="s0" d="m57.7 31.9c-8.2 0-14.8-6.6-14.8-14.7 0-6.5 4.4-12.4 10.7-14.2 0.3 0 0.6 0 0.8 0.2 0.2 0.2 0.2 0.5 0.2 0.8q-0.6 1.8-0.6 3.6c0 7.3 6 13.2 13.2 13.2q1.9 0 3.7-0.5c0.3-0.1 0.5 0 0.7 0.2 0.2 0.2 0.3 0.5 0.2 0.8-1.8 6.3-7.6 10.6-14.1 10.6z"/>
			<path id="cloud-large-night" class="s1" d="m50.2 47c6 0 10.8-4.8 10.8-10.6 0-5.8-4.8-10.5-10.8-10.5q0 0-0.1 0c-0.9-8.4-8.2-15-17-15-6.9 0-12.9 4.1-15.6 10q-0.1 0-0.2 0c-7.4 0-13.3 5.8-13.3 13 0 7.2 5.9 13.1 13.3 13.1"/>
			<path id="cloud-small" class="s2" d="m64.2 47c3.7 0 6.8-3 6.8-6.7 0-3.8-3.1-6.8-6.8-6.8q-0.1 0-0.1 0c-0.6-5.3-5.2-9.5-10.7-9.5-4.4 0-8.2 2.6-9.9 6.3q-0.1 0-0.1 0c-4.7 0-8.4 3.8-8.4 8.4 0 4.6 3.7 8.3 8.4 8.3"/>
			<path id="rain-05" class="s3" d="m16.3 63.7q-0.6 0-1-0.2c-1-0.6-1.3-1.8-0.8-2.7l2.9-4.9c0.6-0.9 1.8-1.2 2.8-0.7 0.9 0.6 1.3 1.8 0.7 2.7l-2.9 4.9c-0.4 0.6-1 0.9-1.7 0.9zm16.2 0q-0.5 0-1-0.2c-1-0.6-1.3-1.8-0.8-2.7l2.9-4.9c0.6-0.9 1.8-1.2 2.8-0.7 1 0.6 1.3 1.8 0.7 2.7l-2.9 4.9c-0.3 0.6-1 0.9-1.7 0.9zm16.2 0q-0.5 0-1-0.2c-1-0.6-1.3-1.8-0.7-2.7l2.9-4.9c0.5-0.9 1.8-1.2 2.7-0.7 1 0.6 1.3 1.8 0.8 2.7l-3 4.9c-0.3 0.6-1 0.9-1.7 0.9zm-27.4 7q-0.5 0-1-0.2c-1-0.6-1.3-1.8-0.7-2.7l2.9-4.9c0.5-0.9 1.7-1.2 2.7-0.7 1 0.6 1.3 1.8 0.7 2.7l-2.9 4.9c-0.3 0.6-1 0.9-1.7 0.9zm16.7 0q-0.5 0-1-0.2c-0.9-0.6-1.3-1.8-0.7-2.7l2.9-4.9c0.5-0.9 1.8-1.2 2.7-0.7 1 0.6 1.3 1.8 0.8 2.7l-2.9 4.9c-0.4 0.6-1.1 0.9-1.8 0.9zm16.7 0q-0.5 0-1-0.2c-0.9-0.6-1.3-1.8-0.7-2.7l2.9-4.9c0.6-0.9 1.8-1.2 2.8-0.7 0.9 0.6 1.3 1.8 0.7 2.7l-2.9 4.9c-0.4 0.6-1.1 0.9-1.8 0.9z"/>
		</g>
	</g>
</svg>