<svg version="1.2" xmlns="http://www.w3.org/2000/svg" viewBox="0 0 65 45" width="500" height="346">
	<title>weather-icons</title>
	<defs>
		<linearGradient id="g1" x1="2" y1="44" x2="43" y2="3" gradientUnits="userSpaceOnUse">
			<stop offset="0" stop-color="#ffbc27"/>
			<stop offset="1" stop-color="#fde252"/>
		</linearGradient>
	</defs>
	<style>
		.s0 { fill: url(#g1) } 
		.s1 { fill: #ffffff } 
	</style>
	<g id="icons">
		<g id="Haze">
			<path id="sun" class="s0" d="m43 23.5c0 11.3-9.2 20.5-20.5 20.5-11.3 0-20.5-9.2-20.5-20.5 0-11.3 9.2-20.5 20.5-20.5 11.3 0 20.5 9.2 20.5 20.5z"/>
			<path id="haze" class="s1" d="m31.5 23.8h-10.1c-0.8 0-1.5-0.7-1.5-1.5 0-0.9 0.7-1.6 1.5-1.6h10.1c0.9 0 1.6 0.7 1.6 1.6 0 0.8-0.7 1.5-1.6 1.5zm21.8 0h-15.2c-0.8 0-1.5-0.7-1.5-1.5 0-0.9 0.7-1.6 1.5-1.6h15.2c0.8 0 1.5 0.7 1.5 1.6 0 0.8-0.7 1.5-1.5 1.5zm-21.8 14.9h-10.1c-0.8 0-1.5-0.7-1.5-1.6 0-0.8 0.7-1.5 1.5-1.5h10.1c0.9 0 1.6 0.7 1.6 1.5 0 0.9-0.7 1.6-1.6 1.6zm21.8 0h-15.2c-0.8 0-1.5-0.7-1.5-1.6 0-0.8 0.7-1.5 1.5-1.5h15.2c0.8 0 1.5 0.7 1.5 1.5 0 0.9-0.7 1.6-1.5 1.6zm-11.7-7.2h-20.2c-0.8 0-1.5-0.7-1.5-1.5 0-0.9 0.7-1.6 1.5-1.6h20.2c0.9 0 1.6 0.7 1.6 1.6 0 0.8-0.7 1.5-1.6 1.5zm21.8 0h-15.2c-0.8 0-1.5-0.7-1.5-1.5 0-0.9 0.7-1.6 1.5-1.6h15.2c0.8 0 1.5 0.7 1.5 1.6 0 0.8-0.7 1.5-1.5 1.5z"/>
		</g>
	</g>
</svg>