<svg version="1.2" xmlns="http://www.w3.org/2000/svg" viewBox="0 0 74 76" width="500" height="514">
	<title>weather-icons</title>
	<defs>
		<linearGradient id="g1" x1="41.9" y1="30.9" x2="70.9" y2="2" gradientUnits="userSpaceOnUse">
			<stop offset="0" stop-color="#00ccff"/>
			<stop offset="1" stop-color="#5ddefe"/>
		</linearGradient>
		<linearGradient id="g2" x1="14.5" y1="47" x2="50.5" y2="10.9" gradientUnits="userSpaceOnUse">
			<stop offset="0" stop-color="#d6f2fd"/>
			<stop offset="1" stop-color="#e5f5fd"/>
		</linearGradient>
		<linearGradient id="g3" x1="19.1" y1="75.9" x2="40.7" y2="54.2" gradientUnits="userSpaceOnUse">
			<stop offset="0" stop-color="#00ccff"/>
			<stop offset="1" stop-color="#5ddefe"/>
		</linearGradient>
	</defs>
	<style>
		.s0 { fill: url(#g1) } 
		.s1 { fill: url(#g2) } 
		.s2 { fill: #ffffff } 
		.s3 { fill: url(#g3) } 
	</style>
	<g id="icons">
		<g id="Heavy Rain Night">
			<path id="moon-small" class="s0" d="m56.7 30.9c-8.2 0-14.8-6.6-14.8-14.7 0-6.5 4.4-12.4 10.7-14.2 0.3 0 0.6 0 0.8 0.2 0.2 0.2 0.2 0.5 0.2 0.8q-0.6 1.8-0.6 3.6c0 7.3 6 13.2 13.2 13.2q1.9 0 3.7-0.5c0.3-0.1 0.5 0 0.7 0.2 0.2 0.2 0.3 0.5 0.2 0.8-1.8 6.3-7.6 10.6-14.1 10.6z"/>
			<path id="cloud-large-night" class="s1" d="m50.2 47c6 0 10.8-4.8 10.8-10.6 0-5.8-4.8-10.5-10.8-10.5q0 0-0.1 0c-0.9-8.4-8.2-15-17-15-6.9 0-12.9 4.1-15.6 10q-0.1 0-0.2 0c-7.4 0-13.3 5.8-13.3 13 0 7.2 5.9 13.1 13.3 13.1"/>
			<path id="cloud-small" class="s2" d="m64.2 47c3.7 0 6.8-3 6.8-6.7 0-3.8-3.1-6.8-6.8-6.8q-0.1 0-0.1 0c-0.6-5.3-5.2-9.5-10.7-9.5-4.4 0-8.2 2.6-9.9 6.3q-0.1 0-0.1 0c-4.7 0-8.4 3.8-8.4 8.4 0 4.6 3.7 8.3 8.4 8.3"/>
			<path id="rain-04" class="s3" d="m11.1 69.7q-0.5 0-1-0.3c-0.9-0.5-1.2-1.8-0.7-2.8l6.5-11.4c0.5-1 1.7-1.3 2.7-0.7 0.9 0.5 1.2 1.8 0.7 2.7l-6.4 11.5c-0.4 0.6-1.1 1-1.8 1zm7.1 6.2q-0.5 0-1-0.3c-0.9-0.6-1.3-1.8-0.7-2.8l9.9-17.6c0.5-1 1.7-1.3 2.7-0.7 0.9 0.5 1.2 1.8 0.7 2.7l-9.9 17.6c-0.4 0.7-1 1.1-1.7 1.1zm24.5-7.1q-0.5 0-1-0.3c-0.9-0.5-1.3-1.8-0.7-2.7l5.9-10.6c0.6-1 1.8-1.3 2.7-0.7 1 0.5 1.3 1.8 0.8 2.7l-6 10.6c-0.3 0.7-1 1-1.7 1zm-11.8 3.5q-0.5 0-0.9-0.2c-1-0.6-1.3-1.8-0.8-2.8l7.9-14.1c0.6-1 1.8-1.3 2.7-0.7 1 0.5 1.3 1.8 0.8 2.7l-7.9 14.1c-0.4 0.7-1.1 1-1.8 1z"/>
		</g>
	</g>
</svg>