<svg version="1.2" xmlns="http://www.w3.org/2000/svg" viewBox="0 0 71 69" width="500" height="486">
	<title>weather-icons</title>
	<defs>
		<linearGradient id="g1" x1="40.5" y1="40" x2="63.5" y2="17" gradientUnits="userSpaceOnUse">
			<stop offset="0" stop-color="#d6f2fd"/>
			<stop offset="1" stop-color="#e5f5fd"/>
		</linearGradient>
		<linearGradient id="g2" x1="18.1" y1="67.9" x2="39.7" y2="46.2" gradientUnits="userSpaceOnUse">
			<stop offset="0" stop-color="#00ccff"/>
			<stop offset="1" stop-color="#5ddefe"/>
		</linearGradient>
	</defs>
	<style>
		.s0 { fill: #ffffff } 
		.s1 { fill: url(#g1) } 
		.s2 { fill: url(#g2) } 
	</style>
	<g id="icons">
		<g id="Heavy Rain">
			<path id="cloud-large" class="s0" d="m49.2 40c6 0 10.8-4.8 10.8-10.6 0-5.8-4.8-10.5-10.8-10.5q0 0-0.1 0c-0.9-8.4-8.2-15-17-15-6.9 0-12.9 4.1-15.6 10q-0.1 0-0.2 0c-7.4 0-13.3 5.8-13.3 13 0 7.2 5.9 13.1 13.3 13.1"/>
			<path id="cloud-small-dark" class="s1" d="m63.2 40c3.7 0 6.8-3 6.8-6.7 0-3.8-3.1-6.8-6.8-6.8q-0.1 0-0.1 0c-0.6-5.3-5.2-9.5-10.7-9.5-4.4 0-8.2 2.6-9.9 6.3q-0.1 0-0.1 0c-4.7 0-8.4 3.8-8.4 8.4 0 4.6 3.7 8.3 8.4 8.3"/>
			<path id="rain-04" class="s2" d="m10.1 61.7q-0.5 0-1-0.3c-0.9-0.5-1.2-1.8-0.7-2.8l6.5-11.4c0.5-1 1.7-1.3 2.7-0.7 0.9 0.5 1.2 1.8 0.7 2.7l-6.4 11.5c-0.4 0.6-1.1 1-1.8 1zm7.1 6.2q-0.5 0-1-0.3c-0.9-0.6-1.3-1.8-0.7-2.8l9.9-17.6c0.5-1 1.7-1.3 2.7-0.7 0.9 0.5 1.2 1.8 0.7 2.7l-9.9 17.6c-0.4 0.7-1 1.1-1.7 1.1zm24.5-7.1q-0.5 0-1-0.3c-0.9-0.5-1.3-1.8-0.7-2.7l5.9-10.6c0.6-1 1.8-1.3 2.7-0.7 1 0.5 1.3 1.8 0.8 2.7l-6 10.6c-0.3 0.7-1 1-1.7 1zm-11.8 3.5q-0.5 0-0.9-0.2c-1-0.6-1.3-1.8-0.8-2.8l7.9-14.1c0.6-1 1.8-1.3 2.7-0.7 1 0.5 1.3 1.8 0.8 2.7l-7.9 14.1c-0.4 0.7-1.1 1-1.8 1z"/>
		</g>
	</g>
</svg>