<svg version="1.2" xmlns="http://www.w3.org/2000/svg" viewBox="0 0 69 60" width="500" height="435">
	<title>weather-icons</title>
	<defs>
		<linearGradient id="g1" x1="-264.1" y1="331.9" x2="-235.1" y2="303" gradientUnits="userSpaceOnUse">
			<stop offset="0" stop-color="#00ccff"/>
			<stop offset="1" stop-color="#5ddefe"/>
		</linearGradient>
		<linearGradient id="g2" x1="-292.5" y1="349" x2="-256.5" y2="312.9" gradientUnits="userSpaceOnUse">
			<stop offset="0" stop-color="#d6f2fd"/>
			<stop offset="1" stop-color="#e5f5fd"/>
		</linearGradient>
		<linearGradient id="g3" x1="-287.5" y1="377.9" x2="-267.5" y2="357.9" gradientUnits="userSpaceOnUse">
			<stop offset="0" stop-color="#d6f2fd"/>
			<stop offset="1" stop-color="#e5f5fd"/>
		</linearGradient>
		<linearGradient id="g4" x1="796.5" y1="500" x2="819.5" y2="477" gradientUnits="userSpaceOnUse">
			<stop offset="0" stop-color="#d6f2fd"/>
			<stop offset="1" stop-color="#e5f5fd"/>
		</linearGradient>
		<linearGradient id="g5" x1="774.5" y1="528.9" x2="794.5" y2="508.9" gradientUnits="userSpaceOnUse">
			<stop offset="0" stop-color="#d6f2fd"/>
			<stop offset="1" stop-color="#e5f5fd"/>
		</linearGradient>
		<linearGradient id="g6" x1="495.8" y1="496.9" x2="513.8" y2="478.9" gradientUnits="userSpaceOnUse">
			<stop offset="0" stop-color="#d6f2fd"/>
			<stop offset="1" stop-color="#e5f5fd"/>
		</linearGradient>
		<linearGradient id="g7" x1="189.5" y1="37" x2="212.5" y2="14" gradientUnits="userSpaceOnUse">
			<stop offset="0" stop-color="#d6f2fd"/>
			<stop offset="1" stop-color="#e5f5fd"/>
		</linearGradient>
		<linearGradient id="g8" x1="156.2" y1="65.7" x2="177.6" y2="44.3" gradientUnits="userSpaceOnUse">
			<stop offset="0" stop-color="#00ccff"/>
			<stop offset="1" stop-color="#5ddefe"/>
		</linearGradient>
		<linearGradient id="g9" x1="178" y1="64.8" x2="199" y2="43.9" gradientUnits="userSpaceOnUse">
			<stop offset="0" stop-color="#d6f2fd"/>
			<stop offset="1" stop-color="#e5f5fd"/>
		</linearGradient>
		<linearGradient id="g10" x1="948.9" y1="183.9" x2="977.9" y2="155" gradientUnits="userSpaceOnUse">
			<stop offset="0" stop-color="#00ccff"/>
			<stop offset="1" stop-color="#5ddefe"/>
		</linearGradient>
		<linearGradient id="g11" x1="921.5" y1="199" x2="957.5" y2="162.9" gradientUnits="userSpaceOnUse">
			<stop offset="0" stop-color="#d6f2fd"/>
			<stop offset="1" stop-color="#e5f5fd"/>
		</linearGradient>
		<linearGradient id="g12" x1="914.2" y1="227.7" x2="935.6" y2="206.3" gradientUnits="userSpaceOnUse">
			<stop offset="0" stop-color="#00ccff"/>
			<stop offset="1" stop-color="#5ddefe"/>
		</linearGradient>
		<linearGradient id="g13" x1="936" y1="226.8" x2="957" y2="205.9" gradientUnits="userSpaceOnUse">
			<stop offset="0" stop-color="#d6f2fd"/>
			<stop offset="1" stop-color="#e5f5fd"/>
		</linearGradient>
		<linearGradient id="g14" x1="625.5" y1="56.3" x2="647.5" y2="34.2" gradientUnits="userSpaceOnUse">
			<stop offset="0" stop-color="#ffbc27"/>
			<stop offset="1" stop-color="#fde252"/>
		</linearGradient>
		<linearGradient id="g15" x1="645.9" y1="19.9" x2="674.9" y2="-9" gradientUnits="userSpaceOnUse">
			<stop offset="0" stop-color="#00ccff"/>
			<stop offset="1" stop-color="#5ddefe"/>
		</linearGradient>
		<linearGradient id="g16" x1="617.5" y1="36" x2="653.5" y2="-0.1" gradientUnits="userSpaceOnUse">
			<stop offset="0" stop-color="#d6f2fd"/>
			<stop offset="1" stop-color="#e5f5fd"/>
		</linearGradient>
		<linearGradient id="g17" x1="776.5" y1="370.3" x2="798.5" y2="348.2" gradientUnits="userSpaceOnUse">
			<stop offset="0" stop-color="#ffbc27"/>
			<stop offset="1" stop-color="#fde252"/>
		</linearGradient>
		<linearGradient id="g18" x1="796.5" y1="349" x2="819.5" y2="326" gradientUnits="userSpaceOnUse">
			<stop offset="0" stop-color="#d6f2fd"/>
			<stop offset="1" stop-color="#e5f5fd"/>
		</linearGradient>
		<linearGradient id="g19" x1="624.5" y1="520.3" x2="646.5" y2="498.2" gradientUnits="userSpaceOnUse">
			<stop offset="0" stop-color="#ffbc27"/>
			<stop offset="1" stop-color="#fde252"/>
		</linearGradient>
		<linearGradient id="g20" x1="644.9" y1="482.9" x2="673.9" y2="454" gradientUnits="userSpaceOnUse">
			<stop offset="0" stop-color="#00ccff"/>
			<stop offset="1" stop-color="#5ddefe"/>
		</linearGradient>
		<linearGradient id="g21" x1="666.1" y1="462.1" x2="673.5" y2="454.7" gradientUnits="userSpaceOnUse">
			<stop offset="0" stop-color="#ffbc27"/>
			<stop offset="1" stop-color="#fde252"/>
		</linearGradient>
		<linearGradient id="g22" x1="611.6" y1="465.6" x2="617.3" y2="459.9" gradientUnits="userSpaceOnUse">
			<stop offset="0" stop-color="#ffbc27"/>
			<stop offset="1" stop-color="#fde252"/>
		</linearGradient>
		<linearGradient id="g23" x1="617.5" y1="500" x2="653.5" y2="463.9" gradientUnits="userSpaceOnUse">
			<stop offset="0" stop-color="#d6f2fd"/>
			<stop offset="1" stop-color="#e5f5fd"/>
		</linearGradient>
		<linearGradient id="g24" x1="-266" y1="184" x2="-240" y2="158" gradientUnits="userSpaceOnUse">
			<stop offset="0" stop-color="#ffbc27"/>
			<stop offset="1" stop-color="#fde252"/>
		</linearGradient>
		<linearGradient id="g25" x1="-284.5" y1="219.3" x2="-262.5" y2="197.2" gradientUnits="userSpaceOnUse">
			<stop offset="0" stop-color="#ffbc27"/>
			<stop offset="1" stop-color="#fde252"/>
		</linearGradient>
		<linearGradient id="g26" x1="-264.5" y1="199" x2="-241.5" y2="176" gradientUnits="userSpaceOnUse">
			<stop offset="0" stop-color="#d6f2fd"/>
			<stop offset="1" stop-color="#e5f5fd"/>
		</linearGradient>
		<linearGradient id="g27" x1="947.9" y1="483.9" x2="976.9" y2="455" gradientUnits="userSpaceOnUse">
			<stop offset="0" stop-color="#00ccff"/>
			<stop offset="1" stop-color="#5ddefe"/>
		</linearGradient>
		<linearGradient id="g28" x1="921.5" y1="499" x2="957.5" y2="462.9" gradientUnits="userSpaceOnUse">
			<stop offset="0" stop-color="#d6f2fd"/>
			<stop offset="1" stop-color="#e5f5fd"/>
		</linearGradient>
		<linearGradient id="g29" x1="933.5" y1="515.7" x2="942.3" y2="506.9" gradientUnits="userSpaceOnUse">
			<stop offset="0" stop-color="#00ccff"/>
			<stop offset="1" stop-color="#5ddefe"/>
		</linearGradient>
		<linearGradient id="g30" x1="339" y1="483" x2="365" y2="457" gradientUnits="userSpaceOnUse">
			<stop offset="0" stop-color="#ffbc27"/>
			<stop offset="1" stop-color="#fde252"/>
		</linearGradient>
		<linearGradient id="g31" x1="341.5" y1="499" x2="364.5" y2="476" gradientUnits="userSpaceOnUse">
			<stop offset="0" stop-color="#d6f2fd"/>
			<stop offset="1" stop-color="#e5f5fd"/>
		</linearGradient>
		<linearGradient id="g32" x1="327.5" y1="515.7" x2="336.3" y2="506.9" gradientUnits="userSpaceOnUse">
			<stop offset="0" stop-color="#00ccff"/>
			<stop offset="1" stop-color="#5ddefe"/>
		</linearGradient>
		<linearGradient id="g33" x1="493.9" y1="183.9" x2="522.9" y2="155" gradientUnits="userSpaceOnUse">
			<stop offset="0" stop-color="#00ccff"/>
			<stop offset="1" stop-color="#5ddefe"/>
		</linearGradient>
		<linearGradient id="g34" x1="466.5" y1="199" x2="502.5" y2="162.9" gradientUnits="userSpaceOnUse">
			<stop offset="0" stop-color="#d6f2fd"/>
			<stop offset="1" stop-color="#e5f5fd"/>
		</linearGradient>
		<linearGradient id="g35" x1="467.6" y1="221.7" x2="483.3" y2="206" gradientUnits="userSpaceOnUse">
			<stop offset="0" stop-color="#00ccff"/>
			<stop offset="1" stop-color="#5ddefe"/>
		</linearGradient>
		<linearGradient id="g36" x1="38.5" y1="199" x2="61.5" y2="176" gradientUnits="userSpaceOnUse">
			<stop offset="0" stop-color="#d6f2fd"/>
			<stop offset="1" stop-color="#e5f5fd"/>
		</linearGradient>
		<linearGradient id="g37" x1="13.6" y1="221.7" x2="29.3" y2="206" gradientUnits="userSpaceOnUse">
			<stop offset="0" stop-color="#00ccff"/>
			<stop offset="1" stop-color="#5ddefe"/>
		</linearGradient>
		<linearGradient id="g38" x1="493.9" y1="20.9" x2="522.9" y2="-8" gradientUnits="userSpaceOnUse">
			<stop offset="0" stop-color="#00ccff"/>
			<stop offset="1" stop-color="#5ddefe"/>
		</linearGradient>
		<linearGradient id="g39" x1="514.1" y1=".1" x2="521.5" y2="-7.3" gradientUnits="userSpaceOnUse">
			<stop offset="0" stop-color="#ffbc27"/>
			<stop offset="1" stop-color="#fde252"/>
		</linearGradient>
		<linearGradient id="g40" x1="459.6" y1="2.6" x2="465.3" y2="-3.1" gradientUnits="userSpaceOnUse">
			<stop offset="0" stop-color="#ffbc27"/>
			<stop offset="1" stop-color="#fde252"/>
		</linearGradient>
		<linearGradient id="g41" x1="466.5" y1="36" x2="502.5" y2="-0.1" gradientUnits="userSpaceOnUse">
			<stop offset="0" stop-color="#d6f2fd"/>
			<stop offset="1" stop-color="#e5f5fd"/>
		</linearGradient>
		<linearGradient id="g42" x1="188" y1="338" x2="214" y2="312" gradientUnits="userSpaceOnUse">
			<stop offset="0" stop-color="#ffbc27"/>
			<stop offset="1" stop-color="#fde252"/>
		</linearGradient>
		<linearGradient id="g43" x1="189.5" y1="354" x2="212.5" y2="331" gradientUnits="userSpaceOnUse">
			<stop offset="0" stop-color="#d6f2fd"/>
			<stop offset="1" stop-color="#e5f5fd"/>
		</linearGradient>
		<linearGradient id="g44" x1="948.9" y1="333.9" x2="977.9" y2="305" gradientUnits="userSpaceOnUse">
			<stop offset="0" stop-color="#00ccff"/>
			<stop offset="1" stop-color="#5ddefe"/>
		</linearGradient>
		<linearGradient id="g45" x1="921.5" y1="350" x2="957.5" y2="313.9" gradientUnits="userSpaceOnUse">
			<stop offset="0" stop-color="#d6f2fd"/>
			<stop offset="1" stop-color="#e5f5fd"/>
		</linearGradient>
		<linearGradient id="g46" x1="341.5" y1="199" x2="364.5" y2="176" gradientUnits="userSpaceOnUse">
			<stop offset="0" stop-color="#d6f2fd"/>
			<stop offset="1" stop-color="#e5f5fd"/>
		</linearGradient>
		<linearGradient id="g47" x1="317" y1="355" x2="358" y2="314" gradientUnits="userSpaceOnUse">
			<stop offset="0" stop-color="#ffbc27"/>
			<stop offset="1" stop-color="#fde252"/>
		</linearGradient>
		<linearGradient id="g48" x1="-119.5" y1="56.3" x2="-97.5" y2="34.2" gradientUnits="userSpaceOnUse">
			<stop offset="0" stop-color="#ffbc27"/>
			<stop offset="1" stop-color="#fde252"/>
		</linearGradient>
		<linearGradient id="g49" x1="-113.1" y1="19.9" x2="-84.1" y2="-9" gradientUnits="userSpaceOnUse">
			<stop offset="0" stop-color="#00ccff"/>
			<stop offset="1" stop-color="#5ddefe"/>
		</linearGradient>
		<linearGradient id="g50" x1="-140.5" y1="36" x2="-104.5" y2="-0.1" gradientUnits="userSpaceOnUse">
			<stop offset="0" stop-color="#d6f2fd"/>
			<stop offset="1" stop-color="#e5f5fd"/>
		</linearGradient>
		<linearGradient id="g51" x1="-145" y1="58.7" x2="-129.3" y2="43" gradientUnits="userSpaceOnUse">
			<stop offset="0" stop-color="#00ccff"/>
			<stop offset="1" stop-color="#5ddefe"/>
		</linearGradient>
		<linearGradient id="g52" x1="31.5" y1="56.3" x2="53.5" y2="34.2" gradientUnits="userSpaceOnUse">
			<stop offset="0" stop-color="#ffbc27"/>
			<stop offset="1" stop-color="#fde252"/>
		</linearGradient>
		<linearGradient id="g53" x1="38.5" y1="37" x2="61.5" y2="14" gradientUnits="userSpaceOnUse">
			<stop offset="0" stop-color="#d6f2fd"/>
			<stop offset="1" stop-color="#e5f5fd"/>
		</linearGradient>
		<linearGradient id="g54" x1="7" y1="58.7" x2="22.7" y2="43" gradientUnits="userSpaceOnUse">
			<stop offset="0" stop-color="#00ccff"/>
			<stop offset="1" stop-color="#5ddefe"/>
		</linearGradient>
		<linearGradient id="g55" x1="38.9" y1="483.9" x2="67.9" y2="455" gradientUnits="userSpaceOnUse">
			<stop offset="0" stop-color="#00ccff"/>
			<stop offset="1" stop-color="#5ddefe"/>
		</linearGradient>
		<linearGradient id="g56" x1="11.5" y1="500" x2="47.5" y2="463.9" gradientUnits="userSpaceOnUse">
			<stop offset="0" stop-color="#d6f2fd"/>
			<stop offset="1" stop-color="#e5f5fd"/>
		</linearGradient>
		<linearGradient id="g57" x1="16.1" y1="528.9" x2="37.7" y2="507.2" gradientUnits="userSpaceOnUse">
			<stop offset="0" stop-color="#00ccff"/>
			<stop offset="1" stop-color="#5ddefe"/>
		</linearGradient>
		<linearGradient id="g58" x1="796.5" y1="37" x2="819.5" y2="14" gradientUnits="userSpaceOnUse">
			<stop offset="0" stop-color="#d6f2fd"/>
			<stop offset="1" stop-color="#e5f5fd"/>
		</linearGradient>
		<linearGradient id="g59" x1="774.1" y1="64.9" x2="795.7" y2="43.2" gradientUnits="userSpaceOnUse">
			<stop offset="0" stop-color="#00ccff"/>
			<stop offset="1" stop-color="#5ddefe"/>
		</linearGradient>
		<linearGradient id="g60" x1="761" y1="205" x2="802" y2="164" gradientUnits="userSpaceOnUse">
			<stop offset="0" stop-color="#ffbc27"/>
			<stop offset="1" stop-color="#fde252"/>
		</linearGradient>
		<linearGradient id="g61" x1="628.4" y1="223.8" x2="645.4" y2="206.9" gradientUnits="userSpaceOnUse">
			<stop offset="0" stop-color="#d6f2fd"/>
			<stop offset="1" stop-color="#e5f5fd"/>
		</linearGradient>
		<linearGradient id="g62" x1="645.9" y1="182.9" x2="674.9" y2="154" gradientUnits="userSpaceOnUse">
			<stop offset="0" stop-color="#00ccff"/>
			<stop offset="1" stop-color="#5ddefe"/>
		</linearGradient>
		<linearGradient id="g63" x1="617.5" y1="199" x2="653.5" y2="162.9" gradientUnits="userSpaceOnUse">
			<stop offset="0" stop-color="#d6f2fd"/>
			<stop offset="1" stop-color="#e5f5fd"/>
		</linearGradient>
		<linearGradient id="g64" x1="-129.6" y1="374.8" x2="-112.6" y2="357.9" gradientUnits="userSpaceOnUse">
			<stop offset="0" stop-color="#d6f2fd"/>
			<stop offset="1" stop-color="#e5f5fd"/>
		</linearGradient>
		<linearGradient id="g65" x1="-113.5" y1="349" x2="-90.5" y2="326" gradientUnits="userSpaceOnUse">
			<stop offset="0" stop-color="#d6f2fd"/>
			<stop offset="1" stop-color="#e5f5fd"/>
		</linearGradient>
		<linearGradient id="g66" x1="342.9" y1="20.9" x2="371.9" y2="-8" gradientUnits="userSpaceOnUse">
			<stop offset="0" stop-color="#00ccff"/>
			<stop offset="1" stop-color="#5ddefe"/>
		</linearGradient>
		<linearGradient id="g67" x1="313.5" y1="36" x2="349.5" y2="-0.1" gradientUnits="userSpaceOnUse">
			<stop offset="0" stop-color="#d6f2fd"/>
			<stop offset="1" stop-color="#e5f5fd"/>
		</linearGradient>
		<linearGradient id="g68" x1="329.9" y1="55" x2="340.9" y2="44" gradientUnits="userSpaceOnUse">
			<stop offset="0" stop-color="#00ccff"/>
			<stop offset="1" stop-color="#5ddefe"/>
		</linearGradient>
		<linearGradient id="g69" x1="189.5" y1="499" x2="212.5" y2="476" gradientUnits="userSpaceOnUse">
			<stop offset="0" stop-color="#d6f2fd"/>
			<stop offset="1" stop-color="#e5f5fd"/>
		</linearGradient>
		<linearGradient id="g70" x1="177.9" y1="517" x2="188.9" y2="506" gradientUnits="userSpaceOnUse">
			<stop offset="0" stop-color="#00ccff"/>
			<stop offset="1" stop-color="#5ddefe"/>
		</linearGradient>
		<linearGradient id="g71" x1="-149" y1="501" x2="-108" y2="460" gradientUnits="userSpaceOnUse">
			<stop offset="0" stop-color="#ffbc27"/>
			<stop offset="1" stop-color="#fde252"/>
		</linearGradient>
		<linearGradient id="g72" x1="-264.1" y1="483.9" x2="-235.1" y2="455" gradientUnits="userSpaceOnUse">
			<stop offset="0" stop-color="#00ccff"/>
			<stop offset="1" stop-color="#5ddefe"/>
		</linearGradient>
		<linearGradient id="g73" x1="-292.5" y1="499" x2="-256.5" y2="462.9" gradientUnits="userSpaceOnUse">
			<stop offset="0" stop-color="#d6f2fd"/>
			<stop offset="1" stop-color="#e5f5fd"/>
		</linearGradient>
		<linearGradient id="g74" x1="-277.9" y1="522.7" x2="-262.2" y2="507" gradientUnits="userSpaceOnUse">
			<stop offset="0" stop-color="#00ccff"/>
			<stop offset="1" stop-color="#5ddefe"/>
		</linearGradient>
		<linearGradient id="g75" x1="-274.5" y1="45" x2="-251.5" y2="22" gradientUnits="userSpaceOnUse">
			<stop offset="0" stop-color="#d6f2fd"/>
			<stop offset="1" stop-color="#e5f5fd"/>
		</linearGradient>
		<linearGradient id="g76" x1="-289.9" y1="68.7" x2="-274.2" y2="53" gradientUnits="userSpaceOnUse">
			<stop offset="0" stop-color="#00ccff"/>
			<stop offset="1" stop-color="#5ddefe"/>
		</linearGradient>
		<linearGradient id="g77" x1="162.9" y1="211" x2="208.8" y2="165.1" gradientUnits="userSpaceOnUse">
			<stop offset="0" stop-color="#00ccff"/>
			<stop offset="1" stop-color="#5ddefe"/>
		</linearGradient>
		<linearGradient id="g78" x1="189.1" y1="165.1" x2="196.5" y2="157.7" gradientUnits="userSpaceOnUse">
			<stop offset="0" stop-color="#ffbc27"/>
			<stop offset="1" stop-color="#fde252"/>
		</linearGradient>
		<linearGradient id="g79" x1="195.3" y1="181.6" x2="206.6" y2="170.4" gradientUnits="userSpaceOnUse">
			<stop offset="0" stop-color="#ffbc27"/>
			<stop offset="1" stop-color="#fde252"/>
		</linearGradient>
		<linearGradient id="g80" x1="951.3" y1="54.6" x2="961.2" y2="44.6" gradientUnits="userSpaceOnUse">
			<stop offset="0" stop-color="#d6f2fd"/>
			<stop offset="1" stop-color="#e5f5fd"/>
		</linearGradient>
		<linearGradient id="g81" x1="948.9" y1="20.9" x2="977.9" y2="-8" gradientUnits="userSpaceOnUse">
			<stop offset="0" stop-color="#00ccff"/>
			<stop offset="1" stop-color="#5ddefe"/>
		</linearGradient>
		<linearGradient id="g82" x1="920.5" y1="37" x2="956.5" y2=".9" gradientUnits="userSpaceOnUse">
			<stop offset="0" stop-color="#d6f2fd"/>
			<stop offset="1" stop-color="#e5f5fd"/>
		</linearGradient>
		<linearGradient id="g83" x1="924" y1="65.9" x2="944" y2="45.9" gradientUnits="userSpaceOnUse">
			<stop offset="0" stop-color="#d6f2fd"/>
			<stop offset="1" stop-color="#e5f5fd"/>
		</linearGradient>
		<linearGradient id="g84" x1="494.3" y1="366.6" x2="504.2" y2="356.6" gradientUnits="userSpaceOnUse">
			<stop offset="0" stop-color="#d6f2fd"/>
			<stop offset="1" stop-color="#e5f5fd"/>
		</linearGradient>
		<linearGradient id="g85" x1="493.5" y1="349" x2="516.5" y2="326" gradientUnits="userSpaceOnUse">
			<stop offset="0" stop-color="#d6f2fd"/>
			<stop offset="1" stop-color="#e5f5fd"/>
		</linearGradient>
		<linearGradient id="g86" x1="467" y1="377.9" x2="487" y2="357.9" gradientUnits="userSpaceOnUse">
			<stop offset="0" stop-color="#d6f2fd"/>
			<stop offset="1" stop-color="#e5f5fd"/>
		</linearGradient>
		<linearGradient id="g87" x1="-133.5" y1="196" x2="-99.5" y2="162" gradientUnits="userSpaceOnUse">
			<stop offset="0" stop-color="#00ccff"/>
			<stop offset="1" stop-color="#5ddefe"/>
		</linearGradient>
		<linearGradient id="g88" x1="-143" y1="206" x2="-125" y2="188" gradientUnits="userSpaceOnUse">
			<stop offset="0" stop-color="#d6f2fd"/>
			<stop offset="1" stop-color="#e5f5fd"/>
		</linearGradient>
		<linearGradient id="g89" x1="624.5" y1="351" x2="658.5" y2="317" gradientUnits="userSpaceOnUse">
			<stop offset="0" stop-color="#00ccff"/>
			<stop offset="1" stop-color="#5ddefe"/>
		</linearGradient>
	</defs>
	<style>
		.s0 { fill: #dff5fe } 
		.s1 { fill: url(#g1) } 
		.s2 { fill: url(#g2) } 
		.s3 { fill: #ffffff } 
		.s4 { fill: url(#g3) } 
		.s5 { fill: url(#g4) } 
		.s6 { fill: url(#g5) } 
		.s7 { fill: url(#g6) } 
		.s8 { fill: url(#g7) } 
		.s9 { fill: url(#g8) } 
		.s10 { fill: url(#g9) } 
		.s11 { fill: url(#g10) } 
		.s12 { fill: url(#g11) } 
		.s13 { fill: url(#g12) } 
		.s14 { fill: url(#g13) } 
		.s15 { fill: url(#g14) } 
		.s16 { fill: url(#g15) } 
		.s17 { fill: url(#g16) } 
		.s18 { fill: url(#g17) } 
		.s19 { fill: url(#g18) } 
		.s20 { fill: url(#g19) } 
		.s21 { fill: url(#g20) } 
		.s22 { fill: url(#g21) } 
		.s23 { fill: url(#g22) } 
		.s24 { fill: url(#g23) } 
		.s25 { fill: url(#g24) } 
		.s26 { fill: url(#g25) } 
		.s27 { fill: url(#g26) } 
		.s28 { fill: url(#g27) } 
		.s29 { fill: url(#g28) } 
		.s30 { fill: url(#g29) } 
		.s31 { fill: url(#g30) } 
		.s32 { fill: url(#g31) } 
		.s33 { fill: url(#g32) } 
		.s34 { fill: url(#g33) } 
		.s35 { fill: url(#g34) } 
		.s36 { fill: url(#g35) } 
		.s37 { fill: url(#g36) } 
		.s38 { fill: url(#g37) } 
		.s39 { fill: url(#g38) } 
		.s40 { fill: url(#g39) } 
		.s41 { fill: url(#g40) } 
		.s42 { fill: url(#g41) } 
		.s43 { fill: url(#g42) } 
		.s44 { fill: url(#g43) } 
		.s45 { fill: url(#g44) } 
		.s46 { fill: url(#g45) } 
		.s47 { fill: url(#g46) } 
		.s48 { fill: url(#g47) } 
		.s49 { fill: url(#g48) } 
		.s50 { fill: url(#g49) } 
		.s51 { fill: url(#g50) } 
		.s52 { fill: url(#g51) } 
		.s53 { fill: url(#g52) } 
		.s54 { fill: url(#g53) } 
		.s55 { fill: url(#g54) } 
		.s56 { fill: url(#g55) } 
		.s57 { fill: url(#g56) } 
		.s58 { fill: url(#g57) } 
		.s59 { fill: url(#g58) } 
		.s60 { fill: url(#g59) } 
		.s61 { fill: url(#g60) } 
		.s62 { fill: url(#g61) } 
		.s63 { fill: url(#g62) } 
		.s64 { fill: url(#g63) } 
		.s65 { fill: url(#g64) } 
		.s66 { fill: url(#g65) } 
		.s67 { fill: url(#g66) } 
		.s68 { fill: url(#g67) } 
		.s69 { fill: url(#g68) } 
		.s70 { fill: url(#g69) } 
		.s71 { fill: url(#g70) } 
		.s72 { fill: url(#g71) } 
		.s73 { fill: url(#g72) } 
		.s74 { fill: url(#g73) } 
		.s75 { fill: url(#g74) } 
		.s76 { fill: url(#g75) } 
		.s77 { fill: url(#g76) } 
		.s78 { fill: url(#g77) } 
		.s79 { fill: url(#g78) } 
		.s80 { fill: url(#g79) } 
		.s81 { fill: url(#g80) } 
		.s82 { fill: url(#g81) } 
		.s83 { fill: url(#g82) } 
		.s84 { fill: url(#g83) } 
		.s85 { fill: url(#g84) } 
		.s86 { fill: url(#g85) } 
		.s87 { fill: url(#g86) } 
		.s88 { fill: url(#g87) } 
		.s89 { fill: url(#g88) } 
		.s90 { fill: url(#g89) } 
	</style>
	<g id="icons">
		<g id="Tornado">
			<path id="tronado" class="s0" d="m53 320.9h-39c-1.1 0-2-0.9-2-2 0-1.1 0.9-2 2-2h39c1.1 0 2 0.9 2 2 0 1.1-0.9 2-2 2zm-5.1 1.9m-27.9-10.9m23 18.5h-21c-1.1 0-2-0.9-2-2 0-1.1 0.9-2 2-2h21c1.1 0 2 0.9 2 2 0 1.1-0.9 2-2 2zm3 9.5h-18c-1.1 0-2-0.9-2-2 0-1.1 0.9-2 2-2h18c1.1 0 2 0.9 2 2 0 1.1-0.9 2-2 2zm-6 9.5h-12c-1.1 0-2-0.9-2-1.9 0-1.1 0.9-2 2-2h12c1.1 0 2 0.9 2 2 0 1-0.9 1.9-2 1.9zm-9.5 9.6h-1c-1.1 0-2-0.9-2-2 0-1.1 0.9-2 2-2h1c1.1 0 2 0.9 2 2 0 1.1-0.9 2-2 2z"/>
		</g>
		<g id="Snow Night">
			<path id="moon-small" class="s1" d="m-249.3 331.9c-8.2 0-14.8-6.6-14.8-14.7 0-6.5 4.4-12.4 10.7-14.2 0.3 0 0.6 0 0.8 0.2 0.2 0.2 0.2 0.5 0.2 0.8q-0.6 1.8-0.6 3.6c0 7.3 6 13.2 13.2 13.2q1.9 0 3.7-0.5c0.3-0.1 0.5 0 0.7 0.2 0.2 0.2 0.3 0.5 0.2 0.8-1.8 6.3-7.6 10.6-14.1 10.6z"/>
			<path id="cloud-large-night" class="s2" d="m-256.8 349c6 0 10.8-4.8 10.8-10.6 0-5.8-4.8-10.5-10.8-10.5q0 0-0.1 0c-0.9-8.4-8.2-15-17-15-6.9 0-12.9 4.1-15.6 10q-0.1 0-0.2 0c-7.4 0-13.3 5.8-13.3 13 0 7.2 5.9 13.1 13.3 13.1"/>
			<path id="cloud-small" class="s3" d="m-242.8 349c3.7 0 6.8-3 6.8-6.7 0-3.8-3.1-6.8-6.8-6.8q-0.1 0-0.1 0c-0.6-5.3-5.2-9.5-10.7-9.5-4.4 0-8.2 2.6-9.9 6.3q-0.1 0-0.1 0c-4.7 0-8.4 3.8-8.4 8.4 0 4.6 3.7 8.3 8.4 8.3"/>
			<path id="snow-01" class="s4" d="m-288 359.9c0 1.1-0.9 2-2 2-1.1 0-2-0.9-2-2 0-1.1 0.9-2 2-2 1.1 0 2 0.9 2 2zm10 0c0 1.1-0.9 2-2 2-1.1 0-2-0.9-2-2 0-1.1 0.9-2 2-2 1.1 0 2 0.9 2 2zm10 0c0 1.1-0.9 2-2 2-1.1 0-2-0.9-2-2 0-1.1 0.9-2 2-2 1.1 0 2 0.9 2 2zm10 0c0 1.1-0.9 2-2 2-1.1 0-2-0.9-2-2 0-1.1 0.9-2 2-2 1.1 0 2 0.9 2 2zm-30 16.1c0 1.1-0.9 1.9-2 1.9-1.1 0-2-0.8-2-1.9 0-1.1 0.9-2 2-2 1.1 0 2 0.9 2 2zm10 0c0 1.1-0.9 1.9-2 1.9-1.1 0-2-0.8-2-1.9 0-1.1 0.9-2 2-2 1.1 0 2 0.9 2 2zm10 0c0 1.1-0.9 1.9-2 1.9-1.1 0-2-0.8-2-1.9 0-1.1 0.9-2 2-2 1.1 0 2 0.9 2 2zm10 0c0 1.1-0.9 1.9-2 1.9-1.1 0-2-0.8-2-1.9 0-1.1 0.9-2 2-2 1.1 0 2 0.9 2 2zm-35-7.9c0 1.1-0.9 1.9-2 1.9-1.1 0-2-0.8-2-1.9 0-1.1 0.9-2 2-2 1.1 0 2 0.9 2 2zm10 0c0 1.1-0.9 1.9-2 1.9-1.1 0-2-0.8-2-1.9 0-1.1 0.9-2 2-2 1.1 0 2 0.9 2 2zm10 0c0 1.1-0.9 1.9-2 1.9-1.1 0-2-0.8-2-1.9 0-1.1 0.9-2 2-2 1.1 0 2 0.9 2 2zm10 0c0 1.1-0.9 1.9-2 1.9-1.1 0-2-0.8-2-1.9 0-1.1 0.9-2 2-2 1.1 0 2 0.9 2 2z"/>
		</g>
		<g id="Snow">
			<path id="cloud-large" class="s3" d="m805.2 500c6 0 10.8-4.8 10.8-10.6 0-5.8-4.8-10.5-10.8-10.5q0 0-0.1 0c-0.9-8.4-8.2-15-17-15-6.9 0-12.9 4.1-15.6 10q-0.1 0-0.2 0c-7.4 0-13.3 5.8-13.3 13 0 7.2 5.9 13.1 13.3 13.1"/>
			<path id="cloud-small-dark" class="s5" d="m819.2 500c3.7 0 6.8-3 6.8-6.7 0-3.8-3.1-6.8-6.8-6.8q-0.1 0-0.1 0c-0.6-5.3-5.2-9.5-10.7-9.5-4.4 0-8.2 2.6-9.9 6.3q-0.1 0-0.1 0c-4.7 0-8.4 3.8-8.4 8.4 0 4.6 3.7 8.3 8.4 8.3"/>
			<path id="snow-01" class="s6" d="m774 510.9c0 1.1-0.9 2-2 2-1.1 0-2-0.9-2-2 0-1.1 0.9-2 2-2 1.1 0 2 0.9 2 2zm10 0c0 1.1-0.9 2-2 2-1.1 0-2-0.9-2-2 0-1.1 0.9-2 2-2 1.1 0 2 0.9 2 2zm10 0c0 1.1-0.9 2-2 2-1.1 0-2-0.9-2-2 0-1.1 0.9-2 2-2 1.1 0 2 0.9 2 2zm10 0c0 1.1-0.9 2-2 2-1.1 0-2-0.9-2-2 0-1.1 0.9-2 2-2 1.1 0 2 0.9 2 2zm-30 16.1c0 1.1-0.9 1.9-2 1.9-1.1 0-2-0.8-2-1.9 0-1.1 0.9-2 2-2 1.1 0 2 0.9 2 2zm10 0c0 1.1-0.9 1.9-2 1.9-1.1 0-2-0.8-2-1.9 0-1.1 0.9-2 2-2 1.1 0 2 0.9 2 2zm10 0c0 1.1-0.9 1.9-2 1.9-1.1 0-2-0.8-2-1.9 0-1.1 0.9-2 2-2 1.1 0 2 0.9 2 2zm10 0c0 1.1-0.9 1.9-2 1.9-1.1 0-2-0.8-2-1.9 0-1.1 0.9-2 2-2 1.1 0 2 0.9 2 2zm-35-7.9c0 1.1-0.9 1.9-2 1.9-1.1 0-2-0.8-2-1.9 0-1.1 0.9-2 2-2 1.1 0 2 0.9 2 2zm10 0c0 1.1-0.9 1.9-2 1.9-1.1 0-2-0.8-2-1.9 0-1.1 0.9-2 2-2 1.1 0 2 0.9 2 2zm10 0c0 1.1-0.9 1.9-2 1.9-1.1 0-2-0.8-2-1.9 0-1.1 0.9-2 2-2 1.1 0 2 0.9 2 2zm10 0c0 1.1-0.9 1.9-2 1.9-1.1 0-2-0.8-2-1.9 0-1.1 0.9-2 2-2 1.1 0 2 0.9 2 2z"/>
		</g>
		<g id="Smoke">
			<path id="smoke-01" class="s0" d="m481 483.5c0 7.5-6.1 13.5-13.5 13.5-7.5 0-13.5-6-13.5-13.5 0-7.5 6-13.5 13.5-13.5 7.4 0 13.5 6 13.5 13.5z"/>
			<path id="smoke-04" class="s3" d="m474 491.5c0-6.9 5.6-12.5 12.5-12.5 6.9 0 12.4 5.6 12.4 12.5 0 6.9-5.5 12.5-12.4 12.5-6.9 0-12.5-5.6-12.5-12.5z"/>
			<path id="smoke-05" class="s3" d="m513 477.5c0 5.8-4.7 10.5-10.5 10.5-5.8 0-10.5-4.7-10.5-10.5 0-5.8 4.7-10.5 10.5-10.5 5.8 0 10.5 4.7 10.5 10.5z"/>
			<path id="smoke-06" class="s3" d="m505.8 484.9c0 4.9 4 8.9 9 8.9 5 0 9-4 9-8.9 0-5-4-9-9-9-5 0-9 4-9 9z"/>
			<path id="smoke-02" class="s0" d="m494.9 474.9c0 5.6-4.5 10-10 10-5.6 0-10.1-4.4-10.1-10 0-5.5 4.5-10 10.1-10 5.5 0 10 4.5 10 10z"/>
			<path id="smoke-03" class="s7" d="m495.8 487.9c0-4.9 4.1-9 9-9 5 0 9 4.1 9 9 0 5-4 9-9 9-4.9 0-9-4-9-9z"/>
		</g>
		<g id="Sleet">
			<path id="cloud-large" class="s3" d="m198.2 37c6 0 10.8-4.8 10.8-10.6 0-5.8-4.8-10.5-10.8-10.5q0 0-0.1 0c-0.9-8.4-8.2-15-17-15-6.9 0-12.9 4.1-15.6 10q-0.1 0-0.2 0c-7.4 0-13.3 5.8-13.3 13 0 7.2 5.9 13.1 13.3 13.1"/>
			<path id="cloud-small-dark" class="s8" d="m212.2 37c3.7 0 6.8-3 6.8-6.7 0-3.8-3.1-6.8-6.8-6.8q-0.1 0-0.1 0c-0.6-5.3-5.2-9.5-10.7-9.5-4.4 0-8.2 2.6-9.9 6.3q-0.1 0-0.1 0c-4.7 0-8.4 3.8-8.4 8.4 0 4.6 3.7 8.3 8.4 8.3"/>
			<path id="rain-03" class="s9" d="m158.2 59.7q-0.5 0-1-0.3c-1-0.5-1.3-1.8-0.8-2.8l6.6-11.4c0.6-1 1.8-1.3 2.8-0.7 0.9 0.5 1.3 1.8 0.7 2.7l-6.6 11.5c-0.3 0.6-1 1-1.7 1zm7.2 6.2q-0.5 0-1-0.3c-1-0.6-1.3-1.8-0.7-2.8l10.1-17.6c0.5-1 1.8-1.3 2.7-0.7 1 0.5 1.3 1.8 0.8 2.7l-10.1 17.6c-0.4 0.7-1.1 1.1-1.8 1.1z"/>
			<path id="snow-03" class="s10" d="m188 43.9c1.1 0 2 0.9 2 2 0 1.1-0.9 2-2 2-1.1 0-2-0.9-2-2 0-1.1 0.9-2 2-2m10 0c1.1 0 2 0.9 2 2 0 1.1-0.9 2-2 2-1.1 0-2-0.9-2-2 0-1.1 0.9-2 2-2m-17 18.9c0 1.1-0.9 2-2 2-1.1 0-2-0.9-2-2 0-1.1 0.9-2 2-2 1.1 0 2 0.9 2 2zm1-8.6c0-1.2 0.9-2.1 2-2.1 1.1 0 2 0.9 2 2.1 0 1.1-0.9 2-2 2-1.1 0-2-0.9-2-2m14 0c0 1.1-0.9 2-2 2-1.1 0-2-0.9-2-2 0-1.2 0.9-2.1 2-2.1 1.1 0 2 0.9 2 2.1z"/>
		</g>
		<g id="Sleet Night">
			<path id="moon-small" class="s11" d="m963.7 183.9c-8.2 0-14.8-6.6-14.8-14.7 0-6.5 4.4-12.4 10.7-14.2 0.3 0 0.6 0 0.8 0.2 0.2 0.2 0.2 0.5 0.2 0.8q-0.6 1.8-0.6 3.6c0 7.3 6 13.2 13.2 13.2q1.9 0 3.7-0.5c0.3-0.1 0.5 0 0.7 0.2 0.2 0.2 0.3 0.5 0.2 0.8-1.8 6.3-7.6 10.6-14.1 10.6z"/>
			<path id="cloud-large-night" class="s12" d="m957.2 199c6 0 10.8-4.8 10.8-10.6 0-5.8-4.8-10.5-10.8-10.5q0 0-0.1 0c-0.9-8.4-8.2-15-17-15-6.9 0-12.9 4.1-15.6 10q-0.1 0-0.2 0c-7.4 0-13.3 5.8-13.3 13 0 7.2 5.9 13.1 13.3 13.1"/>
			<path id="cloud-small" class="s3" d="m971.2 199c3.7 0 6.8-3 6.8-6.7 0-3.8-3.1-6.8-6.8-6.8q-0.1 0-0.1 0c-0.6-5.3-5.2-9.5-10.7-9.5-4.4 0-8.2 2.6-9.9 6.3q-0.1 0-0.1 0c-4.7 0-8.4 3.8-8.4 8.4 0 4.6 3.7 8.3 8.4 8.3"/>
			<path id="rain-03" class="s13" d="m916.2 221.7q-0.5 0-1-0.3c-1-0.5-1.3-1.8-0.8-2.8l6.6-11.4c0.6-1 1.8-1.3 2.8-0.7 0.9 0.5 1.3 1.8 0.7 2.7l-6.6 11.5c-0.3 0.6-1 1-1.7 1zm7.2 6.2q-0.5 0-1-0.3c-1-0.6-1.3-1.8-0.7-2.8l10.1-17.6c0.5-1 1.8-1.3 2.7-0.7 1 0.5 1.3 1.8 0.8 2.7l-10.1 17.6c-0.4 0.7-1.1 1.1-1.8 1.1z"/>
			<path id="snow-03" class="s14" d="m946 205.9c1.1 0 2 0.9 2 2 0 1.1-0.9 2-2 2-1.1 0-2-0.9-2-2 0-1.1 0.9-2 2-2m10 0c1.1 0 2 0.9 2 2 0 1.1-0.9 2-2 2-1.1 0-2-0.9-2-2 0-1.1 0.9-2 2-2m-17 18.9c0 1.1-0.9 2-2 2-1.1 0-2-0.9-2-2 0-1.1 0.9-2 2-2 1.1 0 2 0.9 2 2zm1-8.6c0-1.2 0.9-2.1 2-2.1 1.1 0 2 0.9 2 2.1 0 1.1-0.9 2-2 2-1.1 0-2-0.9-2-2m14 0c0 1.1-0.9 2-2 2-1.1 0-2-0.9-2-2 0-1.2 0.9-2.1 2-2.1 1.1 0 2 0.9 2 2.1z"/>
		</g>
		<g id="Severe Thunderstorm Night">
			<path id="lightning" class="s15" d="m635.6 32c-1.6 0-3.7 1.2-4.5 2.6l-5.3 9.2c-0.8 1.4-0.1 2.5 1.5 2.4l4.3-0.3c1.7-0.2 2.4 0.9 1.6 2.4l-4.8 8.9c-0.8 1.4-0.4 1.8 0.9 0.7l17.4-14.3c1.3-1.1 1-1.9-0.7-1.8l-6.6 0.3c-1.7 0.1-2.4-1-1.6-2.4l3-5.1c0.8-1.4 0.1-2.6-1.5-2.6z"/>
			<path id="moon-small" class="s16" d="m660.7 19.9c-8.2 0-14.8-6.6-14.8-14.7 0-6.5 4.4-12.4 10.7-14.2 0.3 0 0.6 0 0.8 0.2 0.2 0.2 0.2 0.5 0.2 0.8q-0.6 1.8-0.6 3.6c0 7.3 6 13.2 13.2 13.2q1.9 0 3.7-0.5c0.3-0.1 0.5 0 0.7 0.2 0.2 0.2 0.3 0.5 0.2 0.8-1.8 6.3-7.6 10.6-14.1 10.6z"/>
			<path id="cloud-large-night" class="s17" d="m653.2 36c6 0 10.8-4.8 10.8-10.6 0-5.8-4.8-10.5-10.8-10.5q0 0-0.1 0c-0.9-8.4-8.2-15-17-15-6.9 0-12.9 4.1-15.6 10q-0.1 0-0.2 0c-7.4 0-13.3 5.8-13.3 13 0 7.2 5.9 13.1 13.3 13.1"/>
			<path id="cloud-small" class="s3" d="m667.2 36c3.7 0 6.8-3 6.8-6.7 0-3.8-3.1-6.8-6.8-6.8q-0.1 0-0.1 0c-0.6-5.3-5.2-9.5-10.7-9.5-4.4 0-8.2 2.6-9.9 6.3q-0.1 0-0.1 0c-4.7 0-8.4 3.8-8.4 8.4 0 4.6 3.7 8.3 8.4 8.3"/>
		</g>
		<g id="Severe Thunderstorm">
			<path id="lightning" class="s18" d="m786.6 346c-1.6 0-3.7 1.2-4.5 2.6l-5.3 9.2c-0.8 1.4-0.1 2.5 1.5 2.4l4.3-0.3c1.7-0.2 2.4 0.9 1.6 2.4l-4.8 8.9c-0.8 1.4-0.4 1.8 0.9 0.7l17.4-14.3c1.3-1.1 1-1.9-0.7-1.8l-6.6 0.3c-1.7 0.1-2.4-1-1.6-2.4l3-5.1c0.8-1.4 0.1-2.6-1.5-2.6z"/>
			<path id="cloud-large" class="s3" d="m805.2 349c6 0 10.8-4.8 10.8-10.6 0-5.8-4.8-10.5-10.8-10.5q0 0-0.1 0c-0.9-8.4-8.2-15-17-15-6.9 0-12.9 4.1-15.6 10q-0.1 0-0.2 0c-7.4 0-13.3 5.8-13.3 13 0 7.2 5.9 13.1 13.3 13.1"/>
			<path id="cloud-small-dark" class="s19" d="m819.2 349c3.7 0 6.8-3 6.8-6.7 0-3.8-3.1-6.8-6.8-6.8q-0.1 0-0.1 0c-0.6-5.3-5.2-9.5-10.7-9.5-4.4 0-8.2 2.6-9.9 6.3q-0.1 0-0.1 0c-4.7 0-8.4 3.8-8.4 8.4 0 4.6 3.7 8.3 8.4 8.3"/>
		</g>
		<g id="Scattered Thunderstorm Night">
			<path id="lightning" class="s20" d="m634.6 496c-1.6 0-3.7 1.2-4.5 2.6l-5.3 9.2c-0.8 1.4-0.1 2.5 1.5 2.4l4.3-0.3c1.7-0.2 2.4 0.9 1.6 2.4l-4.8 8.9c-0.8 1.4-0.4 1.8 0.9 0.7l17.4-14.3c1.3-1.1 1-1.9-0.7-1.8l-6.6 0.3c-1.7 0.1-2.4-1-1.6-2.4l3-5.1c0.8-1.4 0.1-2.6-1.5-2.6z"/>
			<path id="moon-small" class="s21" d="m659.7 482.9c-8.2 0-14.8-6.6-14.8-14.7 0-6.5 4.4-12.4 10.7-14.2 0.3 0 0.6 0 0.8 0.2 0.2 0.2 0.2 0.5 0.2 0.8q-0.6 1.8-0.6 3.6c0 7.3 6 13.2 13.2 13.2q1.9 0 3.7-0.5c0.3-0.1 0.5 0 0.7 0.2 0.2 0.2 0.3 0.5 0.2 0.8-1.8 6.3-7.6 10.6-14.1 10.6z"/>
			<path id="star-01" class="s22" d="m670.3 461.3c-0.3 1.1-0.7 1.1-1 0-0.3-1-1.4-2.1-2.4-2.4-1.1-0.3-1.1-0.7 0-1 1-0.3 2.1-1.4 2.4-2.4 0.3-1.1 0.7-1.1 1 0 0.3 1 1.4 2.1 2.4 2.4 1.1 0.3 1.1 0.7 0 1-1 0.3-2.1 1.4-2.4 2.4z"/>
			<path id="star-03" class="s23" d="m614.9 465c-0.2 0.8-0.6 0.8-0.8 0-0.2-0.8-1.1-1.7-1.9-1.9-0.7-0.2-0.7-0.5 0-0.8 0.8-0.2 1.7-1 1.9-1.8 0.2-0.8 0.6-0.8 0.8 0 0.2 0.8 1 1.6 1.8 1.8 0.8 0.3 0.8 0.6 0 0.8-0.8 0.2-1.6 1.1-1.8 1.9z"/>
			<path id="cloud-large-night" class="s24" d="m653.2 500c6 0 10.8-4.8 10.8-10.6 0-5.8-4.8-10.5-10.8-10.5q0 0-0.1 0c-0.9-8.4-8.2-15-17-15-6.9 0-12.9 4.1-15.6 10q-0.1 0-0.2 0c-7.4 0-13.3 5.8-13.3 13 0 7.2 5.9 13.1 13.3 13.1"/>
			<path id="cloud-small" class="s3" d="m667.2 500c3.7 0 6.8-3 6.8-6.7 0-3.8-3.1-6.8-6.8-6.8q-0.1 0-0.1 0c-0.6-5.3-5.2-9.5-10.7-9.5-4.4 0-8.2 2.6-9.9 6.3q-0.1 0-0.1 0c-4.7 0-8.4 3.8-8.4 8.4 0 4.6 3.7 8.3 8.4 8.3"/>
		</g>
		<g id="Scattered Thunderstorm">
			<path id="sun-small" class="s25" d="m-240 171c0 7.2-5.8 13-13 13-7.2 0-13-5.8-13-13 0-7.2 5.8-13 13-13 7.2 0 13 5.8 13 13z"/>
			<path id="lightning" class="s26" d="m-274.4 195c-1.6 0-3.7 1.2-4.5 2.6l-5.3 9.2c-0.8 1.4-0.1 2.5 1.5 2.4l4.3-0.3c1.7-0.2 2.4 0.9 1.6 2.4l-4.8 8.9c-0.8 1.4-0.4 1.8 0.9 0.7l17.4-14.3c1.3-1.1 1-1.9-0.7-1.8l-6.6 0.3c-1.7 0.1-2.4-1-1.6-2.4l3-5.1c0.8-1.4 0.1-2.6-1.5-2.6z"/>
			<path id="cloud-large" class="s3" d="m-255.8 199c6 0 10.8-4.8 10.8-10.6 0-5.8-4.8-10.5-10.8-10.5q0 0-0.1 0c-0.9-8.4-8.2-15-17-15-6.9 0-12.9 4.1-15.6 10q-0.1 0-0.2 0c-7.4 0-13.3 5.8-13.3 13 0 7.2 5.9 13.1 13.3 13.1"/>
			<path id="cloud-small-dark" class="s27" d="m-241.8 199c3.7 0 6.8-3 6.8-6.7 0-3.8-3.1-6.8-6.8-6.8q-0.1 0-0.1 0c-0.6-5.3-5.2-9.5-10.7-9.5-4.4 0-8.2 2.6-9.9 6.3q-0.1 0-0.1 0c-4.7 0-8.4 3.8-8.4 8.4 0 4.6 3.7 8.3 8.4 8.3"/>
		</g>
		<g id="Scattered Showers Night">
			<path id="moon-small" class="s28" d="m962.7 483.9c-8.2 0-14.8-6.6-14.8-14.7 0-6.5 4.4-12.4 10.7-14.2 0.3 0 0.6 0 0.8 0.2 0.2 0.2 0.2 0.5 0.2 0.8q-0.6 1.8-0.6 3.6c0 7.3 6 13.2 13.2 13.2q1.9 0 3.7-0.5c0.3-0.1 0.5 0 0.7 0.2 0.2 0.2 0.3 0.5 0.2 0.8-1.8 6.3-7.6 10.6-14.1 10.6z"/>
			<path id="cloud-large-night" class="s29" d="m957.2 499c6 0 10.8-4.8 10.8-10.6 0-5.8-4.8-10.5-10.8-10.5q0 0-0.1 0c-0.9-8.4-8.2-15-17-15-6.9 0-12.9 4.1-15.6 10q-0.1 0-0.2 0c-7.4 0-13.3 5.8-13.3 13 0 7.2 5.9 13.1 13.3 13.1"/>
			<path id="cloud-small" class="s3" d="m971.2 499c3.7 0 6.8-3 6.8-6.7 0-3.8-3.1-6.8-6.8-6.8q-0.1 0-0.1 0c-0.6-5.3-5.2-9.5-10.7-9.5-4.4 0-8.2 2.6-9.9 6.3q-0.1 0-0.1 0c-4.7 0-8.4 3.8-8.4 8.4 0 4.6 3.7 8.3 8.4 8.3"/>
			<path id="rain-06" class="s30" d="m922.2 515.7q-0.5 0-1-0.2c-0.9-0.6-1.3-1.8-0.7-2.7l2.9-4.9c0.6-0.9 1.8-1.2 2.8-0.7 0.9 0.5 1.3 1.7 0.7 2.7l-2.9 4.8c-0.4 0.7-1.1 1-1.8 1zm13.8 0q-0.5 0-1-0.2c-1-0.6-1.3-1.8-0.8-2.7l2.9-4.9c0.6-0.9 1.8-1.2 2.8-0.7 1 0.5 1.3 1.7 0.7 2.7l-2.9 4.8c-0.4 0.7-1 1-1.7 1zm14.7 0q-0.5 0-1-0.2c-1-0.6-1.3-1.8-0.7-2.7l2.9-4.9c0.5-0.9 1.8-1.2 2.7-0.7 1 0.5 1.3 1.7 0.8 2.7l-2.9 4.8c-0.4 0.7-1.1 1-1.8 1z"/>
		</g>
		<g id="Scattered Showers">
			<path id="sun-small" class="s31" d="m365 470c0 7.2-5.8 13-13 13-7.2 0-13-5.8-13-13 0-7.2 5.8-13 13-13 7.2 0 13 5.8 13 13z"/>
			<path id="cloud-large" class="s3" d="m350.2 499c6 0 10.8-4.8 10.8-10.6 0-5.8-4.8-10.5-10.8-10.5q0 0-0.1 0c-0.9-8.4-8.2-15-17-15-6.9 0-12.9 4.1-15.6 10q-0.1 0-0.2 0c-7.4 0-13.3 5.8-13.3 13 0 7.2 5.9 13.1 13.3 13.1"/>
			<path id="cloud-small-dark" class="s32" d="m364.2 499c3.7 0 6.8-3 6.8-6.7 0-3.8-3.1-6.8-6.8-6.8q-0.1 0-0.1 0c-0.6-5.3-5.2-9.5-10.7-9.5-4.4 0-8.2 2.6-9.9 6.3q-0.1 0-0.1 0c-4.7 0-8.4 3.8-8.4 8.4 0 4.6 3.7 8.3 8.4 8.3"/>
			<path id="rain-06" class="s33" d="m316.2 515.7q-0.5 0-1-0.2c-0.9-0.6-1.3-1.8-0.7-2.7l2.9-4.9c0.6-0.9 1.8-1.2 2.8-0.7 0.9 0.5 1.3 1.7 0.7 2.7l-2.9 4.8c-0.4 0.7-1.1 1-1.8 1zm13.8 0q-0.5 0-1-0.2c-1-0.6-1.3-1.8-0.8-2.7l2.9-4.9c0.6-0.9 1.8-1.2 2.8-0.7 1 0.5 1.3 1.7 0.7 2.7l-2.9 4.8c-0.4 0.7-1 1-1.7 1zm14.7 0q-0.5 0-1-0.2c-1-0.6-1.3-1.8-0.7-2.7l2.9-4.9c0.5-0.9 1.8-1.2 2.7-0.7 1 0.5 1.3 1.7 0.8 2.7l-2.9 4.8c-0.4 0.7-1.1 1-1.8 1z"/>
		</g>
		<g id="Rain Nght">
			<path id="moon-small" class="s34" d="m508.7 183.9c-8.2 0-14.8-6.6-14.8-14.7 0-6.5 4.4-12.4 10.7-14.2 0.3 0 0.6 0 0.8 0.2 0.2 0.2 0.2 0.5 0.2 0.8q-0.6 1.8-0.6 3.6c0 7.3 6 13.2 13.2 13.2q1.9 0 3.7-0.5c0.3-0.1 0.5 0 0.7 0.2 0.2 0.2 0.3 0.5 0.2 0.8-1.8 6.3-7.6 10.6-14.1 10.6z"/>
			<path id="cloud-large-night" class="s35" d="m502.2 199c6 0 10.8-4.8 10.8-10.6 0-5.8-4.8-10.5-10.8-10.5q0 0-0.1 0c-0.9-8.4-8.2-15-17-15-6.9 0-12.9 4.1-15.6 10q-0.1 0-0.2 0c-7.4 0-13.3 5.8-13.3 13 0 7.2 5.9 13.1 13.3 13.1"/>
			<path id="cloud-small" class="s3" d="m516.2 199c3.7 0 6.8-3 6.8-6.7 0-3.8-3.1-6.8-6.8-6.8q-0.1 0-0.1 0c-0.6-5.3-5.2-9.5-10.7-9.5-4.4 0-8.2 2.6-9.9 6.3q-0.1 0-0.1 0c-4.7 0-8.4 3.8-8.4 8.4 0 4.6 3.7 8.3 8.4 8.3"/>
			<path id="rain-01" class="s36" d="m461.2 221.7q-0.5 0-1-0.3c-1-0.6-1.3-1.8-0.7-2.8l6.4-11.6c0.5-0.9 1.8-1.3 2.7-0.7 1 0.6 1.3 1.8 0.7 2.8l-6.4 11.5c-0.4 0.7-1 1.1-1.7 1.1zm11 0q-0.5 0-1-0.3c-0.9-0.6-1.3-1.8-0.7-2.8l6.4-11.6c0.6-0.9 1.8-1.3 2.7-0.7 1 0.6 1.3 1.8 0.8 2.8l-6.5 11.5c-0.3 0.7-1 1.1-1.7 1.1zm11 0q-0.5 0-1-0.3c-0.9-0.6-1.2-1.8-0.7-2.8l6.5-11.6c0.5-0.9 1.7-1.3 2.7-0.7 0.9 0.6 1.2 1.8 0.7 2.8l-6.5 11.5c-0.3 0.7-1 1.1-1.7 1.1z"/>
		</g>
		<g id="Rain">
			<path id="cloud-large" class="s3" d="m47.2 199c6 0 10.8-4.8 10.8-10.6 0-5.8-4.8-10.5-10.8-10.5q0 0-0.1 0c-0.9-8.4-8.2-15-17-15-6.9 0-12.9 4.1-15.6 10q-0.1 0-0.2 0c-7.4 0-13.3 5.8-13.3 13 0 7.2 5.9 13.1 13.3 13.1"/>
			<path id="cloud-small-dark" class="s37" d="m61.2 199c3.7 0 6.8-3 6.8-6.7 0-3.8-3.1-6.8-6.8-6.8q-0.1 0-0.1 0c-0.6-5.3-5.2-9.5-10.7-9.5-4.4 0-8.2 2.6-9.9 6.3q-0.1 0-0.1 0c-4.7 0-8.4 3.8-8.4 8.4 0 4.6 3.7 8.3 8.4 8.3"/>
			<path id="rain-01" class="s38" d="m7.2 221.7q-0.5 0-1-0.3c-1-0.6-1.3-1.8-0.7-2.8l6.4-11.6c0.5-0.9 1.8-1.3 2.7-0.7 1 0.6 1.3 1.8 0.7 2.8l-6.4 11.5c-0.4 0.7-1 1.1-1.7 1.1zm11 0q-0.5 0-1-0.3c-0.9-0.6-1.3-1.8-0.7-2.8l6.4-11.6c0.6-0.9 1.8-1.3 2.7-0.7 1 0.6 1.3 1.8 0.8 2.8l-6.5 11.5c-0.3 0.7-1 1.1-1.7 1.1zm11 0q-0.5 0-1-0.3c-0.9-0.6-1.2-1.8-0.7-2.8l6.5-11.6c0.5-0.9 1.7-1.3 2.7-0.7 0.9 0.6 1.2 1.8 0.7 2.8l-6.5 11.5c-0.3 0.7-1 1.1-1.7 1.1z"/>
		</g>
		<g id="Party Cloudy Night">
			<path id="moon-small" class="s39" d="m508.7 20.9c-8.2 0-14.8-6.6-14.8-14.7 0-6.5 4.4-12.4 10.7-14.2 0.3 0 0.6 0 0.8 0.2 0.2 0.2 0.2 0.5 0.2 0.8q-0.6 1.8-0.6 3.6c0 7.3 6 13.2 13.2 13.2q1.9 0 3.7-0.5c0.3-0.1 0.5 0 0.7 0.2 0.2 0.2 0.3 0.5 0.2 0.8-1.8 6.3-7.6 10.6-14.1 10.6z"/>
			<path id="star-01" class="s40" d="m518.3-0.7c-0.3 1.1-0.7 1.1-1 0-0.3-1-1.4-2.1-2.4-2.4-1.1-0.3-1.1-0.7 0-1 1-0.3 2.1-1.4 2.4-2.4 0.3-1.1 0.7-1.1 1 0 0.3 1 1.4 2.1 2.4 2.4 1.1 0.3 1.1 0.7 0 1-1 0.3-2.1 1.4-2.4 2.4z"/>
			<path id="star-03" class="s41" d="m462.9 2c-0.2 0.8-0.6 0.8-0.8 0-0.2-0.8-1.1-1.7-1.9-1.9-0.7-0.2-0.7-0.5 0-0.8 0.8-0.2 1.7-1 1.9-1.8 0.2-0.8 0.6-0.8 0.8 0 0.2 0.8 1 1.6 1.8 1.8 0.8 0.3 0.8 0.6 0 0.8-0.8 0.2-1.6 1.1-1.8 1.9z"/>
			<path id="cloud-large-night" class="s42" d="m502.2 36c6 0 10.8-4.8 10.8-10.6 0-5.8-4.8-10.5-10.8-10.5q0 0-0.1 0c-0.9-8.4-8.2-15-17-15-6.9 0-12.9 4.1-15.6 10q-0.1 0-0.2 0c-7.4 0-13.3 5.8-13.3 13 0 7.2 5.9 13.1 13.3 13.1"/>
			<path id="cloud-small" class="s3" d="m516.2 36c3.7 0 6.8-3 6.8-6.7 0-3.8-3.1-6.8-6.8-6.8q-0.1 0-0.1 0c-0.6-5.3-5.2-9.5-10.7-9.5-4.4 0-8.2 2.6-9.9 6.3q-0.1 0-0.1 0c-4.7 0-8.4 3.8-8.4 8.4 0 4.6 3.7 8.3 8.4 8.3"/>
		</g>
		<g id="Party Cloudy">
			<path id="sun-small" class="s43" d="m214 325c0 7.2-5.8 13-13 13-7.2 0-13-5.8-13-13 0-7.2 5.8-13 13-13 7.2 0 13 5.8 13 13z"/>
			<path id="cloud-large" class="s3" d="m198.2 354c6 0 10.8-4.8 10.8-10.6 0-5.8-4.8-10.5-10.8-10.5q0 0-0.1 0c-0.9-8.4-8.2-15-17-15-6.9 0-12.9 4.1-15.6 10q-0.1 0-0.2 0c-7.4 0-13.3 5.8-13.3 13 0 7.2 5.9 13.1 13.3 13.1"/>
			<path id="cloud-small-dark" class="s44" d="m212.2 354c3.7 0 6.8-3 6.8-6.7 0-3.8-3.1-6.8-6.8-6.8q-0.1 0-0.1 0c-0.6-5.3-5.2-9.5-10.7-9.5-4.4 0-8.2 2.6-9.9 6.3q-0.1 0-0.1 0c-4.7 0-8.4 3.8-8.4 8.4 0 4.6 3.7 8.3 8.4 8.3"/>
		</g>
		<g id="Mostly Cloudy Night">
			<path id="moon-small" class="s45" d="m963.7 333.9c-8.2 0-14.8-6.6-14.8-14.7 0-6.5 4.4-12.4 10.7-14.2 0.3 0 0.6 0 0.8 0.2 0.2 0.2 0.2 0.5 0.2 0.8q-0.6 1.8-0.6 3.6c0 7.3 6 13.2 13.2 13.2q1.9 0 3.7-0.5c0.3-0.1 0.5 0 0.7 0.2 0.2 0.2 0.3 0.5 0.2 0.8-1.8 6.3-7.6 10.6-14.1 10.6z"/>
			<path id="cloud-large-night" class="s46" d="m957.2 350c6 0 10.8-4.8 10.8-10.6 0-5.8-4.8-10.5-10.8-10.5q0 0-0.1 0c-0.9-8.4-8.2-15-17-15-6.9 0-12.9 4.1-15.6 10q-0.1 0-0.2 0c-7.4 0-13.3 5.8-13.3 13 0 7.2 5.9 13.1 13.3 13.1"/>
			<path id="cloud-small" class="s3" d="m971.2 350c3.7 0 6.8-3 6.8-6.7 0-3.8-3.1-6.8-6.8-6.8q-0.1 0-0.1 0c-0.6-5.3-5.2-9.5-10.7-9.5-4.4 0-8.2 2.6-9.9 6.3q-0.1 0-0.1 0c-4.7 0-8.4 3.8-8.4 8.4 0 4.6 3.7 8.3 8.4 8.3"/>
		</g>
		<g id="Mostly Cloudy">
			<path id="cloud-large" class="s3" d="m350.2 199c6 0 10.8-4.8 10.8-10.6 0-5.8-4.8-10.5-10.8-10.5q0 0-0.1 0c-0.9-8.4-8.2-15-17-15-6.9 0-12.9 4.1-15.6 10q-0.1 0-0.2 0c-7.4 0-13.3 5.8-13.3 13 0 7.2 5.9 13.1 13.3 13.1"/>
			<path id="cloud-small-dark" class="s47" d="m364.2 199c3.7 0 6.8-3 6.8-6.7 0-3.8-3.1-6.8-6.8-6.8q-0.1 0-0.1 0c-0.6-5.3-5.2-9.5-10.7-9.5-4.4 0-8.2 2.6-9.9 6.3q-0.1 0-0.1 0c-4.7 0-8.4 3.8-8.4 8.4 0 4.6 3.7 8.3 8.4 8.3"/>
		</g>
		<g id="Mostly Sunny">
			<path id="sun" class="s48" d="m358 334.5c0 11.3-9.2 20.5-20.5 20.5-11.3 0-20.5-9.2-20.5-20.5 0-11.3 9.2-20.5 20.5-20.5 11.3 0 20.5 9.2 20.5 20.5z"/>
		</g>
		<g id="Mix Rainfall Night">
			<path id="lightning" class="s49" d="m-109.4 32c-1.6 0-3.7 1.2-4.5 2.6l-5.3 9.2c-0.8 1.4-0.1 2.5 1.5 2.4l4.3-0.3c1.7-0.2 2.4 0.9 1.6 2.4l-4.8 8.9c-0.8 1.4-0.4 1.8 0.9 0.7l17.4-14.3c1.3-1.1 1-1.9-0.7-1.8l-6.6 0.3c-1.7 0.1-2.4-1-1.6-2.4l3-5.1c0.8-1.4 0.1-2.6-1.5-2.6z"/>
			<path id="moon-small" class="s50" d="m-98.3 19.9c-8.2 0-14.8-6.6-14.8-14.7 0-6.5 4.4-12.4 10.7-14.2 0.3 0 0.6 0 0.8 0.2 0.2 0.2 0.2 0.5 0.2 0.8q-0.6 1.8-0.6 3.6c0 7.3 6 13.2 13.2 13.2q1.9 0 3.7-0.5c0.3-0.1 0.5 0 0.7 0.2 0.2 0.2 0.3 0.5 0.2 0.8-1.8 6.3-7.6 10.6-14.1 10.6z"/>
			<path id="cloud-large-night" class="s51" d="m-104.8 36c6 0 10.8-4.8 10.8-10.6 0-5.8-4.8-10.5-10.8-10.5q0 0-0.1 0c-0.9-8.4-8.2-15-17-15-6.9 0-12.9 4.1-15.6 10q-0.1 0-0.2 0c-7.4 0-13.3 5.8-13.3 13 0 7.2 5.9 13.1 13.3 13.1"/>
			<path id="cloud-small" class="s3" d="m-90.8 36c3.7 0 6.8-3 6.8-6.7 0-3.8-3.1-6.8-6.8-6.8q-0.1 0-0.1 0c-0.6-5.3-5.2-9.5-10.7-9.5-4.4 0-8.2 2.6-9.9 6.3q-0.1 0-0.1 0c-4.7 0-8.4 3.8-8.4 8.4 0 4.6 3.7 8.3 8.4 8.3"/>
			<path id="rain-02" class="s52" d="m-145.8 58.7q-0.5 0-1-0.3c-1-0.6-1.3-1.8-0.8-2.8l6.6-11.6c0.6-0.9 1.8-1.3 2.8-0.7 0.9 0.6 1.3 1.8 0.7 2.8l-6.6 11.5c-0.3 0.7-1 1.1-1.7 1.1zm10.7 0q-0.5 0-1-0.3c-0.9-0.6-1.3-1.8-0.7-2.8l6.6-11.6c0.5-0.9 1.8-1.3 2.7-0.7 1 0.6 1.3 1.8 0.8 2.8l-6.6 11.5c-0.4 0.7-1.1 1.1-1.8 1.1z"/>
		</g>
		<g id="Mix Rainfall">
			<path id="lightning" class="s53" d="m41.6 32c-1.6 0-3.7 1.2-4.5 2.6l-5.3 9.2c-0.8 1.4-0.1 2.5 1.5 2.4l4.3-0.3c1.7-0.2 2.4 0.9 1.6 2.4l-4.8 8.9c-0.8 1.4-0.4 1.8 0.9 0.7l17.4-14.3c1.3-1.1 1-1.9-0.7-1.8l-6.6 0.3c-1.7 0.1-2.4-1-1.6-2.4l3-5.1c0.8-1.4 0.1-2.6-1.5-2.6z"/>
			<path id="cloud-large" class="s3" d="m47.2 37c6 0 10.8-4.8 10.8-10.6 0-5.8-4.8-10.5-10.8-10.5q0 0-0.1 0c-0.9-8.4-8.2-15-17-15-6.9 0-12.9 4.1-15.6 10q-0.1 0-0.2 0c-7.4 0-13.3 5.8-13.3 13 0 7.2 5.9 13.1 13.3 13.1"/>
			<path id="cloud-small-dark" class="s54" d="m61.2 37c3.7 0 6.8-3 6.8-6.7 0-3.8-3.1-6.8-6.8-6.8q-0.1 0-0.1 0c-0.6-5.3-5.2-9.5-10.7-9.5-4.4 0-8.2 2.6-9.9 6.3q-0.1 0-0.1 0c-4.7 0-8.4 3.8-8.4 8.4 0 4.6 3.7 8.3 8.4 8.3"/>
			<path id="rain-02" class="s55" d="m6.2 58.7q-0.5 0-1-0.3c-1-0.6-1.3-1.8-0.8-2.8l6.6-11.6c0.6-0.9 1.8-1.3 2.8-0.7 0.9 0.6 1.3 1.8 0.7 2.8l-6.6 11.5c-0.3 0.7-1 1.1-1.7 1.1zm10.7 0q-0.5 0-1-0.3c-0.9-0.6-1.3-1.8-0.7-2.8l6.6-11.6c0.5-0.9 1.8-1.3 2.7-0.7 1 0.6 1.3 1.8 0.8 2.8l-6.6 11.5c-0.4 0.7-1.1 1.1-1.8 1.1z"/>
		</g>
		<g id="Heavy Rain Night">
			<path id="moon-small" class="s56" d="m53.7 483.9c-8.2 0-14.8-6.6-14.8-14.7 0-6.5 4.4-12.4 10.7-14.2 0.3 0 0.6 0 0.8 0.2 0.2 0.2 0.2 0.5 0.2 0.8q-0.6 1.8-0.6 3.6c0 7.3 6 13.2 13.2 13.2q1.9 0 3.7-0.5c0.3-0.1 0.5 0 0.7 0.2 0.2 0.2 0.3 0.5 0.2 0.8-1.8 6.3-7.6 10.6-14.1 10.6z"/>
			<path id="cloud-large-night" class="s57" d="m47.2 500c6 0 10.8-4.8 10.8-10.6 0-5.8-4.8-10.5-10.8-10.5q0 0-0.1 0c-0.9-8.4-8.2-15-17-15-6.9 0-12.9 4.1-15.6 10q-0.1 0-0.2 0c-7.4 0-13.3 5.8-13.3 13 0 7.2 5.9 13.1 13.3 13.1"/>
			<path id="cloud-small" class="s3" d="m61.2 500c3.7 0 6.8-3 6.8-6.7 0-3.8-3.1-6.8-6.8-6.8q-0.1 0-0.1 0c-0.6-5.3-5.2-9.5-10.7-9.5-4.4 0-8.2 2.6-9.9 6.3q-0.1 0-0.1 0c-4.7 0-8.4 3.8-8.4 8.4 0 4.6 3.7 8.3 8.4 8.3"/>
			<path id="rain-04" class="s58" d="m8.1 522.7q-0.5 0-1-0.3c-0.9-0.5-1.2-1.8-0.7-2.8l6.5-11.4c0.5-1 1.7-1.3 2.7-0.7 0.9 0.5 1.2 1.8 0.7 2.7l-6.4 11.5c-0.4 0.6-1.1 1-1.8 1zm7.1 6.2q-0.5 0-1-0.3c-0.9-0.6-1.3-1.8-0.7-2.8l9.9-17.6c0.5-1 1.7-1.3 2.7-0.7 0.9 0.5 1.2 1.8 0.7 2.7l-9.9 17.6c-0.4 0.7-1 1.1-1.7 1.1zm24.5-7.1q-0.5 0-1-0.3c-0.9-0.5-1.3-1.8-0.7-2.7l5.9-10.6c0.6-1 1.8-1.3 2.7-0.7 1 0.5 1.3 1.8 0.8 2.7l-6 10.6c-0.3 0.7-1 1-1.7 1zm-11.8 3.5q-0.5 0-0.9-0.2c-1-0.6-1.3-1.8-0.8-2.8l7.9-14.1c0.6-1 1.8-1.3 2.7-0.7 1 0.5 1.3 1.8 0.8 2.7l-7.9 14.1c-0.4 0.7-1.1 1-1.8 1z"/>
		</g>
		<g id="Heavy Rain">
			<path id="cloud-large" class="s3" d="m805.2 37c6 0 10.8-4.8 10.8-10.6 0-5.8-4.8-10.5-10.8-10.5q0 0-0.1 0c-0.9-8.4-8.2-15-17-15-6.9 0-12.9 4.1-15.6 10q-0.1 0-0.2 0c-7.4 0-13.3 5.8-13.3 13 0 7.2 5.9 13.1 13.3 13.1"/>
			<path id="cloud-small-dark" class="s59" d="m819.2 37c3.7 0 6.8-3 6.8-6.7 0-3.8-3.1-6.8-6.8-6.8q-0.1 0-0.1 0c-0.6-5.3-5.2-9.5-10.7-9.5-4.4 0-8.2 2.6-9.9 6.3q-0.1 0-0.1 0c-4.7 0-8.4 3.8-8.4 8.4 0 4.6 3.7 8.3 8.4 8.3"/>
			<path id="rain-04" class="s60" d="m766.1 58.7q-0.5 0-1-0.3c-0.9-0.5-1.2-1.8-0.7-2.8l6.5-11.4c0.5-1 1.7-1.3 2.7-0.7 0.9 0.5 1.2 1.8 0.7 2.7l-6.4 11.5c-0.4 0.6-1.1 1-1.8 1zm7.1 6.2q-0.5 0-1-0.3c-0.9-0.6-1.3-1.8-0.7-2.8l9.9-17.6c0.5-1 1.7-1.3 2.7-0.7 0.9 0.5 1.2 1.8 0.7 2.7l-9.9 17.6c-0.4 0.7-1 1.1-1.7 1.1zm24.5-7.1q-0.5 0-1-0.3c-0.9-0.5-1.3-1.8-0.7-2.7l5.9-10.6c0.6-1 1.8-1.3 2.7-0.7 1 0.5 1.3 1.8 0.8 2.7l-6 10.6c-0.3 0.7-1 1-1.7 1zm-11.8 3.5q-0.5 0-0.9-0.2c-1-0.6-1.3-1.8-0.8-2.8l7.9-14.1c0.6-1 1.8-1.3 2.7-0.7 1 0.5 1.3 1.8 0.8 2.7l-7.9 14.1c-0.4 0.7-1.1 1-1.8 1z"/>
		</g>
		<g id="Haze">
			<path id="sun" class="s61" d="m802 184.5c0 11.3-9.2 20.5-20.5 20.5-11.3 0-20.5-9.2-20.5-20.5 0-11.3 9.2-20.5 20.5-20.5 11.3 0 20.5 9.2 20.5 20.5z"/>
			<path id="haze" class="s3" d="m790.5 184.8h-10.1c-0.8 0-1.5-0.7-1.5-1.5 0-0.9 0.7-1.6 1.5-1.6h10.1c0.9 0 1.6 0.7 1.6 1.6 0 0.8-0.7 1.5-1.6 1.5zm21.8 0h-15.2c-0.8 0-1.5-0.7-1.5-1.5 0-0.9 0.7-1.6 1.5-1.6h15.2c0.8 0 1.5 0.7 1.5 1.6 0 0.8-0.7 1.5-1.5 1.5zm-21.8 14.9h-10.1c-0.8 0-1.5-0.7-1.5-1.6 0-0.8 0.7-1.5 1.5-1.5h10.1c0.9 0 1.6 0.7 1.6 1.5 0 0.9-0.7 1.6-1.6 1.6zm21.8 0h-15.2c-0.8 0-1.5-0.7-1.5-1.6 0-0.8 0.7-1.5 1.5-1.5h15.2c0.8 0 1.5 0.7 1.5 1.5 0 0.9-0.7 1.6-1.5 1.6zm-11.7-7.2h-20.2c-0.8 0-1.5-0.7-1.5-1.5 0-0.9 0.7-1.6 1.5-1.6h20.2c0.9 0 1.6 0.7 1.6 1.6 0 0.8-0.7 1.5-1.6 1.5zm21.8 0h-15.2c-0.8 0-1.5-0.7-1.5-1.5 0-0.9 0.7-1.6 1.5-1.6h15.2c0.8 0 1.5 0.7 1.5 1.6 0 0.8-0.7 1.5-1.5 1.5z"/>
		</g>
		<g id="Hail Night">
			<path id="hail" class="s62" d="m627.7 211.8c0 2.7-2.2 4.9-4.9 4.9-2.7 0-4.9-2.2-4.9-4.9 0-2.7 2.2-4.9 4.9-4.9 2.7 0 4.9 2.2 4.9 4.9zm28.2 0c0 2.7-2.2 4.9-4.9 4.9-2.7 0-4.9-2.2-4.9-4.9 0-2.7 2.2-4.9 4.9-4.9 2.7 0 4.9 2.2 4.9 4.9zm-13.6 7.1c0 2.7-2.2 4.9-4.9 4.9-2.7 0-4.9-2.2-4.9-4.9 0-2.7 2.2-4.9 4.9-4.9 2.7 0 4.9 2.2 4.9 4.9z"/>
			<path id="moon-small" class="s63" d="m660.7 182.9c-8.2 0-14.8-6.6-14.8-14.7 0-6.5 4.4-12.4 10.7-14.2 0.3 0 0.6 0 0.8 0.2 0.2 0.2 0.2 0.5 0.2 0.8q-0.6 1.8-0.6 3.6c0 7.3 6 13.2 13.2 13.2q1.9 0 3.7-0.5c0.3-0.1 0.5 0 0.7 0.2 0.2 0.2 0.3 0.5 0.2 0.8-1.8 6.3-7.6 10.6-14.1 10.6z"/>
			<path id="cloud-large-night" class="s64" d="m653.2 199c6 0 10.8-4.8 10.8-10.6 0-5.8-4.8-10.5-10.8-10.5q0 0-0.1 0c-0.9-8.4-8.2-15-17-15-6.9 0-12.9 4.1-15.6 10q-0.1 0-0.2 0c-7.4 0-13.3 5.8-13.3 13 0 7.2 5.9 13.1 13.3 13.1"/>
			<path id="cloud-small" class="s3" d="m667.2 199c3.7 0 6.8-3 6.8-6.7 0-3.8-3.1-6.8-6.8-6.8q-0.1 0-0.1 0c-0.6-5.3-5.2-9.5-10.7-9.5-4.4 0-8.2 2.6-9.9 6.3q-0.1 0-0.1 0c-4.7 0-8.4 3.8-8.4 8.4 0 4.6 3.7 8.3 8.4 8.3"/>
		</g>
		<g id="Hail">
			<path id="hail" class="s65" d="m-130.3 362.8c0 2.7-2.2 4.9-4.9 4.9-2.7 0-4.9-2.2-4.9-4.9 0-2.7 2.2-4.9 4.9-4.9 2.7 0 4.9 2.2 4.9 4.9zm28.2 0c0 2.7-2.2 4.9-4.9 4.9-2.7 0-4.9-2.2-4.9-4.9 0-2.7 2.2-4.9 4.9-4.9 2.7 0 4.9 2.2 4.9 4.9zm-13.6 7.1c0 2.7-2.2 4.9-4.9 4.9-2.7 0-4.9-2.2-4.9-4.9 0-2.7 2.2-4.9 4.9-4.9 2.7 0 4.9 2.2 4.9 4.9z"/>
			<path id="cloud-large" class="s3" d="m-104.8 349c6 0 10.8-4.8 10.8-10.6 0-5.8-4.8-10.5-10.8-10.5q0 0-0.1 0c-0.9-8.4-8.2-15-17-15-6.9 0-12.9 4.1-15.6 10q-0.1 0-0.2 0c-7.4 0-13.3 5.8-13.3 13 0 7.2 5.9 13.1 13.3 13.1"/>
			<path id="cloud-small-dark" class="s66" d="m-90.8 349c3.7 0 6.8-3 6.8-6.7 0-3.8-3.1-6.8-6.8-6.8q-0.1 0-0.1 0c-0.6-5.3-5.2-9.5-10.7-9.5-4.4 0-8.2 2.6-9.9 6.3q-0.1 0-0.1 0c-4.7 0-8.4 3.8-8.4 8.4 0 4.6 3.7 8.3 8.4 8.3"/>
		</g>
		<g id="Fog Night">
			<path id="moon-small" class="s67" d="m357.7 20.9c-8.2 0-14.8-6.6-14.8-14.7 0-6.5 4.4-12.4 10.7-14.2 0.3 0 0.6 0 0.8 0.2 0.2 0.2 0.2 0.5 0.2 0.8q-0.6 1.8-0.6 3.6c0 7.3 6 13.2 13.2 13.2q1.9 0 3.7-0.5c0.3-0.1 0.5 0 0.7 0.2 0.2 0.2 0.3 0.5 0.2 0.8-1.8 6.3-7.6 10.6-14.1 10.6z"/>
			<path id="cloud-large-night" class="s68" d="m349.2 36c6 0 10.8-4.8 10.8-10.6 0-5.8-4.8-10.5-10.8-10.5q0 0-0.1 0c-0.9-8.4-8.2-15-17-15-6.9 0-12.9 4.1-15.6 10q-0.1 0-0.2 0c-7.4 0-13.3 5.8-13.3 13 0 7.2 5.9 13.1 13.3 13.1"/>
			<path id="cloud-small" class="s3" d="m363.2 36c3.7 0 6.8-3 6.8-6.7 0-3.8-3.1-6.8-6.8-6.8q-0.1 0-0.1 0c-0.6-5.3-5.2-9.5-10.7-9.5-4.4 0-8.2 2.6-9.9 6.3q-0.1 0-0.1 0c-4.7 0-8.4 3.8-8.4 8.4 0 4.6 3.7 8.3 8.4 8.3"/>
			<path id="fog" class="s69" d="m324.5 47h-10.1c-0.8 0-1.5-0.7-1.5-1.5 0-0.8 0.7-1.5 1.5-1.5h10.1c0.9 0 1.6 0.7 1.6 1.5 0 0.8-0.7 1.5-1.6 1.5zm21.8 0h-15.2c-0.8 0-1.5-0.7-1.5-1.5 0-0.8 0.7-1.5 1.5-1.5h15.2c0.8 0 1.5 0.7 1.5 1.5 0 0.8-0.7 1.5-1.5 1.5zm-11.7 8h-20.2c-0.8 0-1.5-0.7-1.5-1.5 0-0.8 0.7-1.5 1.5-1.5h20.2c0.9 0 1.6 0.7 1.6 1.5 0 0.8-0.7 1.5-1.6 1.5zm21.8 0h-15.2c-0.8 0-1.5-0.7-1.5-1.5 0-0.8 0.7-1.5 1.5-1.5h15.2c0.8 0 1.5 0.7 1.5 1.5 0 0.8-0.7 1.5-1.5 1.5z"/>
		</g>
		<g id="Fog">
			<path id="cloud-large" class="s3" d="m198.2 499c6 0 10.8-4.8 10.8-10.6 0-5.8-4.8-10.5-10.8-10.5q0 0-0.1 0c-0.9-8.4-8.2-15-17-15-6.9 0-12.9 4.1-15.6 10q-0.1 0-0.2 0c-7.4 0-13.3 5.8-13.3 13 0 7.2 5.9 13.1 13.3 13.1"/>
			<path id="cloud-small-dark" class="s70" d="m212.2 499c3.7 0 6.8-3 6.8-6.7 0-3.8-3.1-6.8-6.8-6.8q-0.1 0-0.1 0c-0.6-5.3-5.2-9.5-10.7-9.5-4.4 0-8.2 2.6-9.9 6.3q-0.1 0-0.1 0c-4.7 0-8.4 3.8-8.4 8.4 0 4.6 3.7 8.3 8.4 8.3"/>
			<path id="fog" class="s71" d="m172.5 509h-10.1c-0.8 0-1.5-0.7-1.5-1.5 0-0.8 0.7-1.5 1.5-1.5h10.1c0.9 0 1.6 0.7 1.6 1.5 0 0.8-0.7 1.5-1.6 1.5zm21.8 0h-15.2c-0.8 0-1.5-0.7-1.5-1.5 0-0.8 0.7-1.5 1.5-1.5h15.2c0.8 0 1.5 0.7 1.5 1.5 0 0.8-0.7 1.5-1.5 1.5zm-11.7 8h-20.2c-0.8 0-1.5-0.7-1.5-1.5 0-0.8 0.7-1.5 1.5-1.5h20.2c0.9 0 1.6 0.7 1.6 1.5 0 0.8-0.7 1.5-1.6 1.5zm21.8 0h-15.2c-0.8 0-1.5-0.7-1.5-1.5 0-0.8 0.7-1.5 1.5-1.5h15.2c0.8 0 1.5 0.7 1.5 1.5 0 0.8-0.7 1.5-1.5 1.5z"/>
		</g>
		<g id="Dust">
			<path id="sun" class="s72" d="m-108 480.5c0 11.3-9.2 20.5-20.5 20.5-11.3 0-20.5-9.2-20.5-20.5 0-11.3 9.2-20.5 20.5-20.5 11.3 0 20.5 9.2 20.5 20.5z"/>
			<path id="dust" class="s3" d="m-116 480c0 1.1-0.9 2-2 2-1.1 0-2-0.9-2-2 0-1.1 0.9-2 2-2 1.1 0 2 0.9 2 2zm10 0c0 1.1-0.9 2-2 2-1.1 0-2-0.9-2-2 0-1.1 0.9-2 2-2 1.1 0 2 0.9 2 2zm10 0c0 1.1-0.9 2-2 2-1.1 0-2-0.9-2-2 0-1.1 0.9-2 2-2 1.1 0 2 0.9 2 2zm10 0c0 1.1-0.9 2-2 2-1.1 0-2-0.9-2-2 0-1.1 0.9-2 2-2 1.1 0 2 0.9 2 2zm-20 14c0 1.1-0.9 2-2 2-1.1 0-2-0.9-2-2 0-1.1 0.9-2 2-2 1.1 0 2 0.9 2 2zm10 0c0 1.1-0.9 2-2 2-1.1 0-2-0.9-2-2 0-1.1 0.9-2 2-2 1.1 0 2 0.9 2 2zm-25-7c0 1.1-0.9 2-2 2-1.1 0-2-0.9-2-2 0-1.1 0.9-2 2-2 1.1 0 2 0.9 2 2zm10 0c0 1.1-0.9 2-2 2-1.1 0-2-0.9-2-2 0-1.1 0.9-2 2-2 1.1 0 2 0.9 2 2zm10 0c0 1.1-0.9 2-2 2-1.1 0-2-0.9-2-2 0-1.1 0.9-2 2-2 1.1 0 2 0.9 2 2zm10 0c0 1.1-0.9 2-2 2-1.1 0-2-0.9-2-2 0-1.1 0.9-2 2-2 1.1 0 2 0.9 2 2z"/>
		</g>
		<g id="Drizzle Night">
			<path id="moon-small" class="s73" d="m-249.3 483.9c-8.2 0-14.8-6.6-14.8-14.7 0-6.5 4.4-12.4 10.7-14.2 0.3 0 0.6 0 0.8 0.2 0.2 0.2 0.2 0.5 0.2 0.8q-0.6 1.8-0.6 3.6c0 7.3 6 13.2 13.2 13.2q1.9 0 3.7-0.5c0.3-0.1 0.5 0 0.7 0.2 0.2 0.2 0.3 0.5 0.2 0.8-1.8 6.3-7.6 10.6-14.1 10.6z"/>
			<path id="cloud-large-night" class="s74" d="m-256.8 499c6 0 10.8-4.8 10.8-10.6 0-5.8-4.8-10.5-10.8-10.5q0 0-0.1 0c-0.9-8.4-8.2-15-17-15-6.9 0-12.9 4.1-15.6 10q-0.1 0-0.2 0c-7.4 0-13.3 5.8-13.3 13 0 7.2 5.9 13.1 13.3 13.1"/>
			<path id="cloud-small" class="s3" d="m-242.8 499c3.7 0 6.8-3 6.8-6.7 0-3.8-3.1-6.8-6.8-6.8q-0.1 0-0.1 0c-0.6-5.3-5.2-9.5-10.7-9.5-4.4 0-8.2 2.6-9.9 6.3q-0.1 0-0.1 0c-4.7 0-8.4 3.8-8.4 8.4 0 4.6 3.7 8.3 8.4 8.3"/>
			<path id="rain-05" class="s75" d="m-290.7 515.7q-0.6 0-1-0.2c-1-0.6-1.3-1.8-0.8-2.7l2.9-4.9c0.6-0.9 1.8-1.2 2.8-0.7 0.9 0.6 1.3 1.8 0.7 2.7l-2.9 4.9c-0.4 0.6-1 0.9-1.7 0.9zm16.2 0q-0.5 0-1-0.2c-1-0.6-1.3-1.8-0.8-2.7l2.9-4.9c0.6-0.9 1.8-1.2 2.8-0.7 1 0.6 1.3 1.8 0.7 2.7l-2.9 4.9c-0.3 0.6-1 0.9-1.7 0.9zm16.2 0q-0.5 0-1-0.2c-1-0.6-1.3-1.8-0.7-2.7l2.9-4.9c0.5-0.9 1.8-1.2 2.7-0.7 1 0.6 1.3 1.8 0.8 2.7l-3 4.9c-0.3 0.6-1 0.9-1.7 0.9zm-27.4 7q-0.5 0-1-0.2c-1-0.6-1.3-1.8-0.7-2.7l2.9-4.9c0.5-0.9 1.7-1.2 2.7-0.7 1 0.6 1.3 1.8 0.7 2.7l-2.9 4.9c-0.3 0.6-1 0.9-1.7 0.9zm16.7 0q-0.5 0-1-0.2c-0.9-0.6-1.3-1.8-0.7-2.7l2.9-4.9c0.5-0.9 1.8-1.2 2.7-0.7 1 0.6 1.3 1.8 0.8 2.7l-2.9 4.9c-0.4 0.6-1.1 0.9-1.8 0.9zm16.7 0q-0.5 0-1-0.2c-0.9-0.6-1.3-1.8-0.7-2.7l2.9-4.9c0.6-0.9 1.8-1.2 2.8-0.7 0.9 0.6 1.3 1.8 0.7 2.7l-2.9 4.9c-0.4 0.6-1.1 0.9-1.8 0.9z"/>
		</g>
		<g id="Drizzle">
			<path id="cloud-large" class="s3" d="m-265.8 45c6 0 10.8-4.8 10.8-10.6 0-5.8-4.8-10.5-10.8-10.5q0 0-0.1 0c-0.9-8.4-8.2-15-17-15-6.9 0-12.9 4.1-15.6 10q-0.1 0-0.2 0c-7.4 0-13.3 5.8-13.3 13 0 7.2 5.9 13.1 13.3 13.1"/>
			<path id="cloud-small-dark" class="s76" d="m-251.8 45c3.7 0 6.8-3 6.8-6.7 0-3.8-3.1-6.8-6.8-6.8q-0.1 0-0.1 0c-0.6-5.3-5.2-9.5-10.7-9.5-4.4 0-8.2 2.6-9.9 6.3q-0.1 0-0.1 0c-4.7 0-8.4 3.8-8.4 8.4 0 4.6 3.7 8.3 8.4 8.3"/>
			<path id="rain-05" class="s77" d="m-302.7 61.7q-0.6 0-1-0.2c-1-0.6-1.3-1.8-0.8-2.7l2.9-4.9c0.6-0.9 1.8-1.2 2.8-0.7 0.9 0.6 1.3 1.8 0.7 2.7l-2.9 4.9c-0.4 0.6-1 0.9-1.7 0.9zm16.2 0q-0.5 0-1-0.2c-1-0.6-1.3-1.8-0.8-2.7l2.9-4.9c0.6-0.9 1.8-1.2 2.8-0.7 1 0.6 1.3 1.8 0.7 2.7l-2.9 4.9c-0.3 0.6-1 0.9-1.7 0.9zm16.2 0q-0.5 0-1-0.2c-1-0.6-1.3-1.8-0.7-2.7l2.9-4.9c0.5-0.9 1.8-1.2 2.7-0.7 1 0.6 1.3 1.8 0.8 2.7l-3 4.9c-0.3 0.6-1 0.9-1.7 0.9zm-27.4 7q-0.5 0-1-0.2c-1-0.6-1.3-1.8-0.7-2.7l2.9-4.9c0.5-0.9 1.7-1.2 2.7-0.7 1 0.6 1.3 1.8 0.7 2.7l-2.9 4.9c-0.3 0.6-1 0.9-1.7 0.9zm16.7 0q-0.5 0-1-0.2c-0.9-0.6-1.3-1.8-0.7-2.7l2.9-4.9c0.5-0.9 1.8-1.2 2.7-0.7 1 0.6 1.3 1.8 0.8 2.7l-2.9 4.9c-0.4 0.6-1.1 0.9-1.8 0.9zm16.7 0q-0.5 0-1-0.2c-0.9-0.6-1.3-1.8-0.7-2.7l2.9-4.9c0.6-0.9 1.8-1.2 2.8-0.7 0.9 0.6 1.3 1.8 0.7 2.7l-2.9 4.9c-0.4 0.6-1.1 0.9-1.8 0.9z"/>
		</g>
		<g id="Clear Night">
			<path id="moon" class="s78" d="m186.3 211c-12.9 0-23.4-10.5-23.4-23.4 0-10.4 7-19.6 17-22.5 0.4-0.1 0.9 0 1.2 0.3 0.3 0.3 0.4 0.8 0.3 1.2q-0.8 2.9-0.8 5.8c0 11.5 9.4 20.9 20.9 20.9q2.9 0 5.8-0.8c0.4-0.1 0.9 0 1.2 0.3 0.3 0.3 0.4 0.8 0.3 1.2-2.9 10-12.1 17-22.5 17z"/>
			<path id="star-01" class="s79" d="m193.3 164.3c-0.3 1.1-0.7 1.1-1 0-0.3-1-1.4-2.1-2.4-2.4-1.1-0.3-1.1-0.7 0-1 1-0.3 2.1-1.4 2.4-2.4 0.3-1.1 0.7-1.1 1 0 0.3 1 1.4 2.1 2.4 2.4 1.1 0.3 1.1 0.7 0 1-1 0.3-2.1 1.4-2.4 2.4z"/>
			<path id="star-02" class="s80" d="m201.7 180.4c-0.4 1.6-1.1 1.6-1.5 0-0.4-1.6-2.1-3.2-3.7-3.6-1.5-0.5-1.5-1.2 0-1.6 1.6-0.4 3.3-2.1 3.7-3.6 0.4-1.6 1.1-1.6 1.5 0 0.5 1.5 2.1 3.2 3.7 3.6 1.6 0.4 1.6 1.1 0 1.6-1.6 0.4-3.2 2-3.7 3.6z"/>
		</g>
		<g id="Blizzard Night">
			<path id="blizzard" class="s81" d="m961.2 49.6c0 2.8-2.2 5-5 5-2.7 0-4.9-2.2-4.9-5 0-2.7 2.2-5 4.9-5 2.8 0 5 2.3 5 5z"/>
			<path id="moon-small" class="s82" d="m963.7 20.9c-8.2 0-14.8-6.6-14.8-14.7 0-6.5 4.4-12.4 10.7-14.2 0.3 0 0.6 0 0.8 0.2 0.2 0.2 0.2 0.5 0.2 0.8q-0.6 1.8-0.6 3.6c0 7.3 6 13.2 13.2 13.2q1.9 0 3.7-0.5c0.3-0.1 0.5 0 0.7 0.2 0.2 0.2 0.3 0.5 0.2 0.8-1.8 6.3-7.6 10.6-14.1 10.6z"/>
			<path id="cloud-large-night" class="s83" d="m956.2 37c6 0 10.8-4.8 10.8-10.6 0-5.8-4.8-10.5-10.8-10.5q0 0-0.1 0c-0.9-8.4-8.2-15-17-15-6.9 0-12.9 4.1-15.6 10q-0.1 0-0.2 0c-7.4 0-13.3 5.8-13.3 13 0 7.2 5.9 13.1 13.3 13.1"/>
			<path id="cloud-small" class="s3" d="m970.2 37c3.7 0 6.8-3 6.8-6.7 0-3.8-3.1-6.8-6.8-6.8q-0.1 0-0.1 0c-0.6-5.3-5.2-9.5-10.7-9.5-4.4 0-8.2 2.6-9.9 6.3q-0.1 0-0.1 0c-4.7 0-8.4 3.8-8.4 8.4 0 4.6 3.7 8.3 8.4 8.3"/>
			<path id="snow-04" class="s84" d="m926 47.9c0 1.1-0.9 2-2 2-1.1 0-2-0.9-2-2 0-1.1 0.9-2 2-2 1.1 0 2 0.9 2 2zm10 0c0 1.1-0.9 2-2 2-1.1 0-2-0.9-2-2 0-1.1 0.9-2 2-2 1.1 0 2 0.9 2 2zm10 0c0 1.1-0.9 2-2 2-1.1 0-2-0.9-2-2 0-1.1 0.9-2 2-2 1.1 0 2 0.9 2 2zm-20 16.1c0 1.1-0.9 1.9-2 1.9-1.1 0-2-0.8-2-1.9 0-1.1 0.9-2 2-2 1.1 0 2 0.9 2 2zm10 0c0 1.1-0.9 1.9-2 1.9-1.1 0-2-0.8-2-1.9 0-1.1 0.9-2 2-2 1.1 0 2 0.9 2 2zm-5-7.9c0 1.1-0.9 1.9-2 1.9-1.1 0-2-0.8-2-1.9 0-1.1 0.9-2 2-2 1.1 0 2 0.9 2 2zm10 0c0 1.1-0.9 1.9-2 1.9-1.1 0-2-0.8-2-1.9 0-1.1 0.9-2 2-2 1.1 0 2 0.9 2 2z"/>
		</g>
		<g id="Blizzard">
			<path id="blizzard" class="s85" d="m504.2 361.6c0 2.8-2.2 5-5 5-2.7 0-4.9-2.2-4.9-5 0-2.7 2.2-5 4.9-5 2.8 0 5 2.3 5 5z"/>
			<path id="cloud-large" class="s3" d="m502.2 349c6 0 10.8-4.8 10.8-10.6 0-5.8-4.8-10.5-10.8-10.5q0 0-0.1 0c-0.9-8.4-8.2-15-17-15-6.9 0-12.9 4.1-15.6 10q-0.1 0-0.2 0c-7.4 0-13.3 5.8-13.3 13 0 7.2 5.9 13.1 13.3 13.1"/>
			<path id="cloud-small-dark" class="s86" d="m516.2 349c3.7 0 6.8-3 6.8-6.7 0-3.8-3.1-6.8-6.8-6.8q-0.1 0-0.1 0c-0.6-5.3-5.2-9.5-10.7-9.5-4.4 0-8.2 2.6-9.9 6.3q-0.1 0-0.1 0c-4.7 0-8.4 3.8-8.4 8.4 0 4.6 3.7 8.3 8.4 8.3"/>
			<path id="snow-04" class="s87" d="m469 359.9c0 1.1-0.9 2-2 2-1.1 0-2-0.9-2-2 0-1.1 0.9-2 2-2 1.1 0 2 0.9 2 2zm10 0c0 1.1-0.9 2-2 2-1.1 0-2-0.9-2-2 0-1.1 0.9-2 2-2 1.1 0 2 0.9 2 2zm10 0c0 1.1-0.9 2-2 2-1.1 0-2-0.9-2-2 0-1.1 0.9-2 2-2 1.1 0 2 0.9 2 2zm-20 16.1c0 1.1-0.9 1.9-2 1.9-1.1 0-2-0.8-2-1.9 0-1.1 0.9-2 2-2 1.1 0 2 0.9 2 2zm10 0c0 1.1-0.9 1.9-2 1.9-1.1 0-2-0.8-2-1.9 0-1.1 0.9-2 2-2 1.1 0 2 0.9 2 2zm-5-7.9c0 1.1-0.9 1.9-2 1.9-1.1 0-2-0.8-2-1.9 0-1.1 0.9-2 2-2 1.1 0 2 0.9 2 2zm10 0c0 1.1-0.9 1.9-2 1.9-1.1 0-2-0.8-2-1.9 0-1.1 0.9-2 2-2 1.1 0 2 0.9 2 2z"/>
		</g>
		<g id="Breezy Snow">
			<path id="breezy" class="s88" d="m-99.7 196c-2.8 0-5.1-2.3-5.1-5.1q0-1.1 0.4-2h-29.3c-0.9 0-1.6-0.7-1.6-1.5 0-0.9 0.7-1.6 1.6-1.6h33.9q0 0 0 0 0 0 0.1 0c2.8 0 5.1 2.3 5.1 5.1 0 2.8-2.3 5.1-5.1 5.1zm10.6-8.8c-2.9 0-5.2-2.3-5.2-5.1q0.1-1 0.4-1.9h-53.6c-0.8 0-1.5-0.7-1.5-1.6 0-0.9 0.7-1.6 1.5-1.6h58.2q0.1 0 0.1 0 0 0 0.1 0c2.8 0 5.1 2.3 5.1 5.1 0 2.8-2.3 5.1-5.1 5.1zm-10.6-25.2c-2.8 0-5.1 2.2-5.1 5q0 1.1 0.4 2h-18.7c-0.9 0-1.6 0.7-1.6 1.6 0 0.8 0.7 1.5 1.6 1.5h23.3q0 0 0 0 0 0 0.1 0c2.8 0 5.1-2.2 5.1-5.1 0-2.8-2.3-5-5.1-5z"/>
			<path id="snow-02" class="s89" d="m-149 195c1.1 0 2 0.9 2 2 0 1.1-0.9 2-2 2-1.1 0-2-0.9-2-2 0-1.1 0.9-2 2-2m10 0c1.1 0 2 0.9 2 2 0 1.1-0.9 2-2 2-1.1 0-2-0.9-2-2 0-1.1 0.9-2 2-2m10 0c1.1 0 2 0.9 2 2 0 1.1-0.9 2-2 2-1.1 0-2-0.9-2-2 0-1.1 0.9-2 2-2m10 0c1.1 0 2 0.9 2 2 0 1.1-0.9 2-2 2-1.1 0-2-0.9-2-2 0-1.1 0.9-2 2-2m-23 9c0 1.1-0.9 2-2 2-1.1 0-2-0.9-2-2 0-1.1 0.9-2 2-2 1.1 0 2 0.9 2 2zm10 0c0 1.1-0.9 2-2 2-1.1 0-2-0.9-2-2 0-1.1 0.9-2 2-2 1.1 0 2 0.9 2 2zm10 0c0 1.1-0.9 2-2 2-1.1 0-2-0.9-2-2 0-1.1 0.9-2 2-2 1.1 0 2 0.9 2 2zm-22-12c-1.1 0-2-0.9-2-2 0-1.1 0.9-2 2-2 1.1 0 2 0.9 2 2m0 0c0 1.1-0.9 2-2 2"/>
		</g>
		<g id="Breezy">
			<path id="breezy" class="s90" d="m658.3 351c-2.8 0-5.1-2.3-5.1-5.1q0-1.1 0.4-2h-29.3c-0.9 0-1.6-0.7-1.6-1.5 0-0.9 0.7-1.6 1.6-1.6h33.9q0 0 0 0 0 0 0.1 0c2.8 0 5.1 2.3 5.1 5.1 0 2.8-2.3 5.1-5.1 5.1zm10.6-8.8c-2.9 0-5.2-2.3-5.2-5.1q0.1-1 0.4-1.9h-53.6c-0.8 0-1.5-0.7-1.5-1.6 0-0.9 0.7-1.6 1.5-1.6h58.2q0.1 0 0.1 0 0 0 0.1 0c2.8 0 5.1 2.3 5.1 5.1 0 2.8-2.3 5.1-5.1 5.1zm-10.6-25.2c-2.8 0-5.1 2.2-5.1 5q0 1.1 0.4 2h-18.7c-0.9 0-1.6 0.7-1.6 1.6 0 0.8 0.7 1.5 1.6 1.5h23.3q0 0 0 0 0 0 0.1 0c2.8 0 5.1-2.2 5.1-5.1 0-2.8-2.3-5-5.1-5z"/>
		</g>
	</g>
</svg>