<svg version="1.2" xmlns="http://www.w3.org/2000/svg" viewBox="0 0 69 64" width="500" height="464">
	<title>weather-icons</title>
	<defs>
		<linearGradient id="g1" x1="39.5" y1="40" x2="62.5" y2="17" gradientUnits="userSpaceOnUse">
			<stop offset="0" stop-color="#d6f2fd"/>
			<stop offset="1" stop-color="#e5f5fd"/>
		</linearGradient>
		<linearGradient id="g2" x1="14.6" y1="62.7" x2="30.3" y2="47" gradientUnits="userSpaceOnUse">
			<stop offset="0" stop-color="#00ccff"/>
			<stop offset="1" stop-color="#5ddefe"/>
		</linearGradient>
	</defs>
	<style>
		.s0 { fill: #ffffff } 
		.s1 { fill: url(#g1) } 
		.s2 { fill: url(#g2) } 
	</style>
	<g id="icons">
		<g id="Rain">
			<path id="cloud-large" class="s0" d="m48.2 40c6 0 10.8-4.8 10.8-10.6 0-5.8-4.8-10.5-10.8-10.5q0 0-0.1 0c-0.9-8.4-8.2-15-17-15-6.9 0-12.9 4.1-15.6 10q-0.1 0-0.2 0c-7.4 0-13.3 5.8-13.3 13 0 7.2 5.9 13.1 13.3 13.1"/>
			<path id="cloud-small-dark" class="s1" d="m62.2 40c3.7 0 6.8-3 6.8-6.7 0-3.8-3.1-6.8-6.8-6.8q-0.1 0-0.1 0c-0.6-5.3-5.2-9.5-10.7-9.5-4.4 0-8.2 2.6-9.9 6.3q-0.1 0-0.1 0c-4.7 0-8.4 3.8-8.4 8.4 0 4.6 3.7 8.3 8.4 8.3"/>
			<path id="rain-01" class="s2" d="m8.2 62.7q-0.5 0-1-0.3c-1-0.6-1.3-1.8-0.7-2.8l6.4-11.6c0.5-0.9 1.8-1.3 2.7-0.7 1 0.6 1.3 1.8 0.7 2.8l-6.4 11.5c-0.4 0.7-1 1.1-1.7 1.1zm11 0q-0.5 0-1-0.3c-0.9-0.6-1.3-1.8-0.7-2.8l6.4-11.6c0.6-0.9 1.8-1.3 2.7-0.7 1 0.6 1.3 1.8 0.8 2.8l-6.5 11.5c-0.3 0.7-1 1.1-1.7 1.1zm11 0q-0.5 0-1-0.3c-0.9-0.6-1.2-1.8-0.7-2.8l6.5-11.6c0.5-0.9 1.7-1.3 2.7-0.7 0.9 0.6 1.2 1.8 0.7 2.8l-6.5 11.5c-0.3 0.7-1 1.1-1.7 1.1z"/>
		</g>
	</g>
</svg>