<svg version="1.2" xmlns="http://www.w3.org/2000/svg" viewBox="0 0 72 68" width="500" height="472">
	<title>weather-icons</title>
	<defs>
		<linearGradient id="g1" x1="39" y1="29" x2="65" y2="3" gradientUnits="userSpaceOnUse">
			<stop offset="0" stop-color="#ffbc27"/>
			<stop offset="1" stop-color="#fde252"/>
		</linearGradient>
		<linearGradient id="g2" x1="20.5" y1="64.3" x2="42.5" y2="42.2" gradientUnits="userSpaceOnUse">
			<stop offset="0" stop-color="#ffbc27"/>
			<stop offset="1" stop-color="#fde252"/>
		</linearGradient>
		<linearGradient id="g3" x1="40.5" y1="44" x2="63.5" y2="21" gradientUnits="userSpaceOnUse">
			<stop offset="0" stop-color="#d6f2fd"/>
			<stop offset="1" stop-color="#e5f5fd"/>
		</linearGradient>
	</defs>
	<style>
		.s0 { fill: url(#g1) } 
		.s1 { fill: url(#g2) } 
		.s2 { fill: #ffffff } 
		.s3 { fill: url(#g3) } 
	</style>
	<g id="icons">
		<g id="Scattered Thunderstorm">
			<path id="sun-small" class="s0" d="m65 16c0 7.2-5.8 13-13 13-7.2 0-13-5.8-13-13 0-7.2 5.8-13 13-13 7.2 0 13 5.8 13 13z"/>
			<path id="lightning" class="s1" d="m30.6 40c-1.6 0-3.7 1.2-4.5 2.6l-5.3 9.2c-0.8 1.4-0.1 2.5 1.5 2.4l4.3-0.3c1.7-0.2 2.4 0.9 1.6 2.4l-4.8 8.9c-0.8 1.4-0.4 1.8 0.9 0.7l17.4-14.3c1.3-1.1 1-1.9-0.7-1.8l-6.6 0.3c-1.7 0.1-2.4-1-1.6-2.4l3-5.1c0.8-1.4 0.1-2.6-1.5-2.6z"/>
			<path id="cloud-large" class="s2" d="m49.2 44c6 0 10.8-4.8 10.8-10.6 0-5.8-4.8-10.5-10.8-10.5q0 0-0.1 0c-0.9-8.4-8.2-15-17-15-6.9 0-12.9 4.1-15.6 10q-0.1 0-0.2 0c-7.4 0-13.3 5.8-13.3 13 0 7.2 5.9 13.1 13.3 13.1"/>
			<path id="cloud-small-dark" class="s3" d="m63.2 44c3.7 0 6.8-3 6.8-6.7 0-3.8-3.1-6.8-6.8-6.8q-0.1 0-0.1 0c-0.6-5.3-5.2-9.5-10.7-9.5-4.4 0-8.2 2.6-9.9 6.3q-0.1 0-0.1 0c-4.7 0-8.4 3.8-8.4 8.4 0 4.6 3.7 8.3 8.4 8.3"/>
		</g>
	</g>
</svg>