<svg version="1.2" xmlns="http://www.w3.org/2000/svg" viewBox="0 0 72 72" width="500" height="500">
	<title>weather-icons</title>
	<defs>
		<linearGradient id="g1" x1="21.5" y1="69.3" x2="43.5" y2="47.2" gradientUnits="userSpaceOnUse">
			<stop offset="0" stop-color="#ffbc27"/>
			<stop offset="1" stop-color="#fde252"/>
		</linearGradient>
		<linearGradient id="g2" x1="41.9" y1="31.9" x2="70.9" y2="3" gradientUnits="userSpaceOnUse">
			<stop offset="0" stop-color="#00ccff"/>
			<stop offset="1" stop-color="#5ddefe"/>
		</linearGradient>
		<linearGradient id="g3" x1="63.1" y1="11.1" x2="70.5" y2="3.7" gradientUnits="userSpaceOnUse">
			<stop offset="0" stop-color="#ffbc27"/>
			<stop offset="1" stop-color="#fde252"/>
		</linearGradient>
		<linearGradient id="g4" x1="8.6" y1="14.6" x2="14.3" y2="8.9" gradientUnits="userSpaceOnUse">
			<stop offset="0" stop-color="#ffbc27"/>
			<stop offset="1" stop-color="#fde252"/>
		</linearGradient>
		<linearGradient id="g5" x1="14.5" y1="49" x2="50.5" y2="12.9" gradientUnits="userSpaceOnUse">
			<stop offset="0" stop-color="#d6f2fd"/>
			<stop offset="1" stop-color="#e5f5fd"/>
		</linearGradient>
	</defs>
	<style>
		.s0 { fill: url(#g1) } 
		.s1 { fill: url(#g2) } 
		.s2 { fill: url(#g3) } 
		.s3 { fill: url(#g4) } 
		.s4 { fill: url(#g5) } 
		.s5 { fill: #ffffff } 
	</style>
	<g id="icons">
		<g id="Scattered Thunderstorm Night">
			<path id="lightning" class="s0" d="m31.6 45c-1.6 0-3.7 1.2-4.5 2.6l-5.3 9.2c-0.8 1.4-0.1 2.5 1.5 2.4l4.3-0.3c1.7-0.2 2.4 0.9 1.6 2.4l-4.8 8.9c-0.8 1.4-0.4 1.8 0.9 0.7l17.4-14.3c1.3-1.1 1-1.9-0.7-1.8l-6.6 0.3c-1.7 0.1-2.4-1-1.6-2.4l3-5.1c0.8-1.4 0.1-2.6-1.5-2.6z"/>
			<path id="moon-small" class="s1" d="m56.7 31.9c-8.2 0-14.8-6.6-14.8-14.7 0-6.5 4.4-12.4 10.7-14.2 0.3 0 0.6 0 0.8 0.2 0.2 0.2 0.2 0.5 0.2 0.8q-0.6 1.8-0.6 3.6c0 7.3 6 13.2 13.2 13.2q1.9 0 3.7-0.5c0.3-0.1 0.5 0 0.7 0.2 0.2 0.2 0.3 0.5 0.2 0.8-1.8 6.3-7.6 10.6-14.1 10.6z"/>
			<path id="star-01" class="s2" d="m67.3 10.3c-0.3 1.1-0.7 1.1-1 0-0.3-1-1.4-2.1-2.4-2.4-1.1-0.3-1.1-0.7 0-1 1-0.3 2.1-1.4 2.4-2.4 0.3-1.1 0.7-1.1 1 0 0.3 1 1.4 2.1 2.4 2.4 1.1 0.3 1.1 0.7 0 1-1 0.3-2.1 1.4-2.4 2.4z"/>
			<path id="star-03" class="s3" d="m11.9 14c-0.2 0.8-0.6 0.8-0.8 0-0.2-0.8-1.1-1.7-1.9-1.9-0.7-0.2-0.7-0.5 0-0.8 0.8-0.2 1.7-1 1.9-1.8 0.2-0.8 0.6-0.8 0.8 0 0.2 0.8 1 1.6 1.8 1.8 0.8 0.3 0.8 0.6 0 0.8-0.8 0.2-1.6 1.1-1.8 1.9z"/>
			<path id="cloud-large-night" class="s4" d="m50.2 49c6 0 10.8-4.8 10.8-10.6 0-5.8-4.8-10.5-10.8-10.5q0 0-0.1 0c-0.9-8.4-8.2-15-17-15-6.9 0-12.9 4.1-15.6 10q-0.1 0-0.2 0c-7.4 0-13.3 5.8-13.3 13 0 7.2 5.9 13.1 13.3 13.1"/>
			<path id="cloud-small" class="s5" d="m64.2 49c3.7 0 6.8-3 6.8-6.7 0-3.8-3.1-6.8-6.8-6.8q-0.1 0-0.1 0c-0.6-5.3-5.2-9.5-10.7-9.5-4.4 0-8.2 2.6-9.9 6.3q-0.1 0-0.1 0c-4.7 0-8.4 3.8-8.4 8.4 0 4.6 3.7 8.3 8.4 8.3"/>
		</g>
	</g>
</svg>