<svg version="1.2" xmlns="http://www.w3.org/2000/svg" viewBox="0 0 69 69" width="500" height="500">
	<title>weather-icons</title>
	<defs>
		<linearGradient id="g1" x1="-415.1" y1="332.9" x2="-386.1" y2="304" gradientUnits="userSpaceOnUse">
			<stop offset="0" stop-color="#00ccff"/>
			<stop offset="1" stop-color="#5ddefe"/>
		</linearGradient>
		<linearGradient id="g2" x1="-443.5" y1="350" x2="-407.5" y2="313.9" gradientUnits="userSpaceOnUse">
			<stop offset="0" stop-color="#d6f2fd"/>
			<stop offset="1" stop-color="#e5f5fd"/>
		</linearGradient>
		<linearGradient id="g3" x1="-438.5" y1="378.9" x2="-418.5" y2="358.9" gradientUnits="userSpaceOnUse">
			<stop offset="0" stop-color="#d6f2fd"/>
			<stop offset="1" stop-color="#e5f5fd"/>
		</linearGradient>
		<linearGradient id="g4" x1="645.5" y1="501" x2="668.5" y2="478" gradientUnits="userSpaceOnUse">
			<stop offset="0" stop-color="#d6f2fd"/>
			<stop offset="1" stop-color="#e5f5fd"/>
		</linearGradient>
		<linearGradient id="g5" x1="623.5" y1="529.9" x2="643.5" y2="509.9" gradientUnits="userSpaceOnUse">
			<stop offset="0" stop-color="#d6f2fd"/>
			<stop offset="1" stop-color="#e5f5fd"/>
		</linearGradient>
		<linearGradient id="g6" x1="344.8" y1="497.9" x2="362.8" y2="479.9" gradientUnits="userSpaceOnUse">
			<stop offset="0" stop-color="#d6f2fd"/>
			<stop offset="1" stop-color="#e5f5fd"/>
		</linearGradient>
		<linearGradient id="g7" x1="38.5" y1="38" x2="61.5" y2="15" gradientUnits="userSpaceOnUse">
			<stop offset="0" stop-color="#d6f2fd"/>
			<stop offset="1" stop-color="#e5f5fd"/>
		</linearGradient>
		<linearGradient id="g8" x1="5.2" y1="66.7" x2="26.6" y2="45.3" gradientUnits="userSpaceOnUse">
			<stop offset="0" stop-color="#00ccff"/>
			<stop offset="1" stop-color="#5ddefe"/>
		</linearGradient>
		<linearGradient id="g9" x1="27" y1="65.8" x2="48" y2="44.9" gradientUnits="userSpaceOnUse">
			<stop offset="0" stop-color="#d6f2fd"/>
			<stop offset="1" stop-color="#e5f5fd"/>
		</linearGradient>
		<linearGradient id="g10" x1="797.9" y1="184.9" x2="826.9" y2="156" gradientUnits="userSpaceOnUse">
			<stop offset="0" stop-color="#00ccff"/>
			<stop offset="1" stop-color="#5ddefe"/>
		</linearGradient>
		<linearGradient id="g11" x1="770.5" y1="200" x2="806.5" y2="163.9" gradientUnits="userSpaceOnUse">
			<stop offset="0" stop-color="#d6f2fd"/>
			<stop offset="1" stop-color="#e5f5fd"/>
		</linearGradient>
		<linearGradient id="g12" x1="763.2" y1="228.7" x2="784.6" y2="207.3" gradientUnits="userSpaceOnUse">
			<stop offset="0" stop-color="#00ccff"/>
			<stop offset="1" stop-color="#5ddefe"/>
		</linearGradient>
		<linearGradient id="g13" x1="785" y1="227.8" x2="806" y2="206.9" gradientUnits="userSpaceOnUse">
			<stop offset="0" stop-color="#d6f2fd"/>
			<stop offset="1" stop-color="#e5f5fd"/>
		</linearGradient>
		<linearGradient id="g14" x1="474.5" y1="57.3" x2="496.5" y2="35.2" gradientUnits="userSpaceOnUse">
			<stop offset="0" stop-color="#ffbc27"/>
			<stop offset="1" stop-color="#fde252"/>
		</linearGradient>
		<linearGradient id="g15" x1="494.9" y1="20.9" x2="523.9" y2="-8" gradientUnits="userSpaceOnUse">
			<stop offset="0" stop-color="#00ccff"/>
			<stop offset="1" stop-color="#5ddefe"/>
		</linearGradient>
		<linearGradient id="g16" x1="466.5" y1="37" x2="502.5" y2=".9" gradientUnits="userSpaceOnUse">
			<stop offset="0" stop-color="#d6f2fd"/>
			<stop offset="1" stop-color="#e5f5fd"/>
		</linearGradient>
		<linearGradient id="g17" x1="625.5" y1="371.3" x2="647.5" y2="349.2" gradientUnits="userSpaceOnUse">
			<stop offset="0" stop-color="#ffbc27"/>
			<stop offset="1" stop-color="#fde252"/>
		</linearGradient>
		<linearGradient id="g18" x1="645.5" y1="350" x2="668.5" y2="327" gradientUnits="userSpaceOnUse">
			<stop offset="0" stop-color="#d6f2fd"/>
			<stop offset="1" stop-color="#e5f5fd"/>
		</linearGradient>
		<linearGradient id="g19" x1="473.5" y1="521.3" x2="495.5" y2="499.2" gradientUnits="userSpaceOnUse">
			<stop offset="0" stop-color="#ffbc27"/>
			<stop offset="1" stop-color="#fde252"/>
		</linearGradient>
		<linearGradient id="g20" x1="493.9" y1="483.9" x2="522.9" y2="455" gradientUnits="userSpaceOnUse">
			<stop offset="0" stop-color="#00ccff"/>
			<stop offset="1" stop-color="#5ddefe"/>
		</linearGradient>
		<linearGradient id="g21" x1="515.1" y1="463.1" x2="522.5" y2="455.7" gradientUnits="userSpaceOnUse">
			<stop offset="0" stop-color="#ffbc27"/>
			<stop offset="1" stop-color="#fde252"/>
		</linearGradient>
		<linearGradient id="g22" x1="460.6" y1="466.6" x2="466.3" y2="460.9" gradientUnits="userSpaceOnUse">
			<stop offset="0" stop-color="#ffbc27"/>
			<stop offset="1" stop-color="#fde252"/>
		</linearGradient>
		<linearGradient id="g23" x1="466.5" y1="501" x2="502.5" y2="464.9" gradientUnits="userSpaceOnUse">
			<stop offset="0" stop-color="#d6f2fd"/>
			<stop offset="1" stop-color="#e5f5fd"/>
		</linearGradient>
		<linearGradient id="g24" x1="-417" y1="185" x2="-391" y2="159" gradientUnits="userSpaceOnUse">
			<stop offset="0" stop-color="#ffbc27"/>
			<stop offset="1" stop-color="#fde252"/>
		</linearGradient>
		<linearGradient id="g25" x1="-435.5" y1="220.3" x2="-413.5" y2="198.2" gradientUnits="userSpaceOnUse">
			<stop offset="0" stop-color="#ffbc27"/>
			<stop offset="1" stop-color="#fde252"/>
		</linearGradient>
		<linearGradient id="g26" x1="-415.5" y1="200" x2="-392.5" y2="177" gradientUnits="userSpaceOnUse">
			<stop offset="0" stop-color="#d6f2fd"/>
			<stop offset="1" stop-color="#e5f5fd"/>
		</linearGradient>
		<linearGradient id="g27" x1="796.9" y1="484.9" x2="825.9" y2="456" gradientUnits="userSpaceOnUse">
			<stop offset="0" stop-color="#00ccff"/>
			<stop offset="1" stop-color="#5ddefe"/>
		</linearGradient>
		<linearGradient id="g28" x1="770.5" y1="500" x2="806.5" y2="463.9" gradientUnits="userSpaceOnUse">
			<stop offset="0" stop-color="#d6f2fd"/>
			<stop offset="1" stop-color="#e5f5fd"/>
		</linearGradient>
		<linearGradient id="g29" x1="782.5" y1="516.7" x2="791.3" y2="507.9" gradientUnits="userSpaceOnUse">
			<stop offset="0" stop-color="#00ccff"/>
			<stop offset="1" stop-color="#5ddefe"/>
		</linearGradient>
		<linearGradient id="g30" x1="188" y1="484" x2="214" y2="458" gradientUnits="userSpaceOnUse">
			<stop offset="0" stop-color="#ffbc27"/>
			<stop offset="1" stop-color="#fde252"/>
		</linearGradient>
		<linearGradient id="g31" x1="190.5" y1="500" x2="213.5" y2="477" gradientUnits="userSpaceOnUse">
			<stop offset="0" stop-color="#d6f2fd"/>
			<stop offset="1" stop-color="#e5f5fd"/>
		</linearGradient>
		<linearGradient id="g32" x1="176.5" y1="516.7" x2="185.3" y2="507.9" gradientUnits="userSpaceOnUse">
			<stop offset="0" stop-color="#00ccff"/>
			<stop offset="1" stop-color="#5ddefe"/>
		</linearGradient>
		<linearGradient id="g33" x1="342.9" y1="184.9" x2="371.9" y2="156" gradientUnits="userSpaceOnUse">
			<stop offset="0" stop-color="#00ccff"/>
			<stop offset="1" stop-color="#5ddefe"/>
		</linearGradient>
		<linearGradient id="g34" x1="315.5" y1="200" x2="351.5" y2="163.9" gradientUnits="userSpaceOnUse">
			<stop offset="0" stop-color="#d6f2fd"/>
			<stop offset="1" stop-color="#e5f5fd"/>
		</linearGradient>
		<linearGradient id="g35" x1="316.6" y1="222.7" x2="332.3" y2="207" gradientUnits="userSpaceOnUse">
			<stop offset="0" stop-color="#00ccff"/>
			<stop offset="1" stop-color="#5ddefe"/>
		</linearGradient>
		<linearGradient id="g36" x1="-112.5" y1="200" x2="-89.5" y2="177" gradientUnits="userSpaceOnUse">
			<stop offset="0" stop-color="#d6f2fd"/>
			<stop offset="1" stop-color="#e5f5fd"/>
		</linearGradient>
		<linearGradient id="g37" x1="-137.4" y1="222.7" x2="-121.7" y2="207" gradientUnits="userSpaceOnUse">
			<stop offset="0" stop-color="#00ccff"/>
			<stop offset="1" stop-color="#5ddefe"/>
		</linearGradient>
		<linearGradient id="g38" x1="342.9" y1="21.9" x2="371.9" y2="-7" gradientUnits="userSpaceOnUse">
			<stop offset="0" stop-color="#00ccff"/>
			<stop offset="1" stop-color="#5ddefe"/>
		</linearGradient>
		<linearGradient id="g39" x1="363.1" y1="1.1" x2="370.5" y2="-6.3" gradientUnits="userSpaceOnUse">
			<stop offset="0" stop-color="#ffbc27"/>
			<stop offset="1" stop-color="#fde252"/>
		</linearGradient>
		<linearGradient id="g40" x1="308.6" y1="3.6" x2="314.3" y2="-2.1" gradientUnits="userSpaceOnUse">
			<stop offset="0" stop-color="#ffbc27"/>
			<stop offset="1" stop-color="#fde252"/>
		</linearGradient>
		<linearGradient id="g41" x1="315.5" y1="37" x2="351.5" y2=".9" gradientUnits="userSpaceOnUse">
			<stop offset="0" stop-color="#d6f2fd"/>
			<stop offset="1" stop-color="#e5f5fd"/>
		</linearGradient>
		<linearGradient id="g42" x1="37" y1="339" x2="63" y2="313" gradientUnits="userSpaceOnUse">
			<stop offset="0" stop-color="#ffbc27"/>
			<stop offset="1" stop-color="#fde252"/>
		</linearGradient>
		<linearGradient id="g43" x1="38.5" y1="355" x2="61.5" y2="332" gradientUnits="userSpaceOnUse">
			<stop offset="0" stop-color="#d6f2fd"/>
			<stop offset="1" stop-color="#e5f5fd"/>
		</linearGradient>
		<linearGradient id="g44" x1="797.9" y1="334.9" x2="826.9" y2="306" gradientUnits="userSpaceOnUse">
			<stop offset="0" stop-color="#00ccff"/>
			<stop offset="1" stop-color="#5ddefe"/>
		</linearGradient>
		<linearGradient id="g45" x1="770.5" y1="351" x2="806.5" y2="314.9" gradientUnits="userSpaceOnUse">
			<stop offset="0" stop-color="#d6f2fd"/>
			<stop offset="1" stop-color="#e5f5fd"/>
		</linearGradient>
		<linearGradient id="g46" x1="190.5" y1="200" x2="213.5" y2="177" gradientUnits="userSpaceOnUse">
			<stop offset="0" stop-color="#d6f2fd"/>
			<stop offset="1" stop-color="#e5f5fd"/>
		</linearGradient>
		<linearGradient id="g47" x1="166" y1="356" x2="207" y2="315" gradientUnits="userSpaceOnUse">
			<stop offset="0" stop-color="#ffbc27"/>
			<stop offset="1" stop-color="#fde252"/>
		</linearGradient>
		<linearGradient id="g48" x1="-270.5" y1="57.3" x2="-248.5" y2="35.2" gradientUnits="userSpaceOnUse">
			<stop offset="0" stop-color="#ffbc27"/>
			<stop offset="1" stop-color="#fde252"/>
		</linearGradient>
		<linearGradient id="g49" x1="-264.1" y1="20.9" x2="-235.1" y2="-8" gradientUnits="userSpaceOnUse">
			<stop offset="0" stop-color="#00ccff"/>
			<stop offset="1" stop-color="#5ddefe"/>
		</linearGradient>
		<linearGradient id="g50" x1="-291.5" y1="37" x2="-255.5" y2=".9" gradientUnits="userSpaceOnUse">
			<stop offset="0" stop-color="#d6f2fd"/>
			<stop offset="1" stop-color="#e5f5fd"/>
		</linearGradient>
		<linearGradient id="g51" x1="-296" y1="59.7" x2="-280.3" y2="44" gradientUnits="userSpaceOnUse">
			<stop offset="0" stop-color="#00ccff"/>
			<stop offset="1" stop-color="#5ddefe"/>
		</linearGradient>
		<linearGradient id="g52" x1="-119.5" y1="57.3" x2="-97.5" y2="35.2" gradientUnits="userSpaceOnUse">
			<stop offset="0" stop-color="#ffbc27"/>
			<stop offset="1" stop-color="#fde252"/>
		</linearGradient>
		<linearGradient id="g53" x1="-112.5" y1="38" x2="-89.5" y2="15" gradientUnits="userSpaceOnUse">
			<stop offset="0" stop-color="#d6f2fd"/>
			<stop offset="1" stop-color="#e5f5fd"/>
		</linearGradient>
		<linearGradient id="g54" x1="-144" y1="59.7" x2="-128.3" y2="44" gradientUnits="userSpaceOnUse">
			<stop offset="0" stop-color="#00ccff"/>
			<stop offset="1" stop-color="#5ddefe"/>
		</linearGradient>
		<linearGradient id="g55" x1="-112.1" y1="484.9" x2="-83.1" y2="456" gradientUnits="userSpaceOnUse">
			<stop offset="0" stop-color="#00ccff"/>
			<stop offset="1" stop-color="#5ddefe"/>
		</linearGradient>
		<linearGradient id="g56" x1="-139.5" y1="501" x2="-103.5" y2="464.9" gradientUnits="userSpaceOnUse">
			<stop offset="0" stop-color="#d6f2fd"/>
			<stop offset="1" stop-color="#e5f5fd"/>
		</linearGradient>
		<linearGradient id="g57" x1="-134.9" y1="529.9" x2="-113.3" y2="508.2" gradientUnits="userSpaceOnUse">
			<stop offset="0" stop-color="#00ccff"/>
			<stop offset="1" stop-color="#5ddefe"/>
		</linearGradient>
		<linearGradient id="g58" x1="645.5" y1="38" x2="668.5" y2="15" gradientUnits="userSpaceOnUse">
			<stop offset="0" stop-color="#d6f2fd"/>
			<stop offset="1" stop-color="#e5f5fd"/>
		</linearGradient>
		<linearGradient id="g59" x1="623.1" y1="65.9" x2="644.7" y2="44.2" gradientUnits="userSpaceOnUse">
			<stop offset="0" stop-color="#00ccff"/>
			<stop offset="1" stop-color="#5ddefe"/>
		</linearGradient>
		<linearGradient id="g60" x1="610" y1="206" x2="651" y2="165" gradientUnits="userSpaceOnUse">
			<stop offset="0" stop-color="#ffbc27"/>
			<stop offset="1" stop-color="#fde252"/>
		</linearGradient>
		<linearGradient id="g61" x1="477.4" y1="224.8" x2="494.4" y2="207.9" gradientUnits="userSpaceOnUse">
			<stop offset="0" stop-color="#d6f2fd"/>
			<stop offset="1" stop-color="#e5f5fd"/>
		</linearGradient>
		<linearGradient id="g62" x1="494.9" y1="183.9" x2="523.9" y2="155" gradientUnits="userSpaceOnUse">
			<stop offset="0" stop-color="#00ccff"/>
			<stop offset="1" stop-color="#5ddefe"/>
		</linearGradient>
		<linearGradient id="g63" x1="466.5" y1="200" x2="502.5" y2="163.9" gradientUnits="userSpaceOnUse">
			<stop offset="0" stop-color="#d6f2fd"/>
			<stop offset="1" stop-color="#e5f5fd"/>
		</linearGradient>
		<linearGradient id="g64" x1="-280.6" y1="375.8" x2="-263.6" y2="358.9" gradientUnits="userSpaceOnUse">
			<stop offset="0" stop-color="#d6f2fd"/>
			<stop offset="1" stop-color="#e5f5fd"/>
		</linearGradient>
		<linearGradient id="g65" x1="-264.5" y1="350" x2="-241.5" y2="327" gradientUnits="userSpaceOnUse">
			<stop offset="0" stop-color="#d6f2fd"/>
			<stop offset="1" stop-color="#e5f5fd"/>
		</linearGradient>
		<linearGradient id="g66" x1="191.9" y1="21.9" x2="220.9" y2="-7" gradientUnits="userSpaceOnUse">
			<stop offset="0" stop-color="#00ccff"/>
			<stop offset="1" stop-color="#5ddefe"/>
		</linearGradient>
		<linearGradient id="g67" x1="162.5" y1="37" x2="198.5" y2=".9" gradientUnits="userSpaceOnUse">
			<stop offset="0" stop-color="#d6f2fd"/>
			<stop offset="1" stop-color="#e5f5fd"/>
		</linearGradient>
		<linearGradient id="g68" x1="178.9" y1="56" x2="189.9" y2="45" gradientUnits="userSpaceOnUse">
			<stop offset="0" stop-color="#00ccff"/>
			<stop offset="1" stop-color="#5ddefe"/>
		</linearGradient>
		<linearGradient id="g69" x1="38.5" y1="500" x2="61.5" y2="477" gradientUnits="userSpaceOnUse">
			<stop offset="0" stop-color="#d6f2fd"/>
			<stop offset="1" stop-color="#e5f5fd"/>
		</linearGradient>
		<linearGradient id="g70" x1="26.9" y1="518" x2="37.9" y2="507" gradientUnits="userSpaceOnUse">
			<stop offset="0" stop-color="#00ccff"/>
			<stop offset="1" stop-color="#5ddefe"/>
		</linearGradient>
		<linearGradient id="g71" x1="-300" y1="502" x2="-259" y2="461" gradientUnits="userSpaceOnUse">
			<stop offset="0" stop-color="#ffbc27"/>
			<stop offset="1" stop-color="#fde252"/>
		</linearGradient>
		<linearGradient id="g72" x1="-415.1" y1="484.9" x2="-386.1" y2="456" gradientUnits="userSpaceOnUse">
			<stop offset="0" stop-color="#00ccff"/>
			<stop offset="1" stop-color="#5ddefe"/>
		</linearGradient>
		<linearGradient id="g73" x1="-443.5" y1="500" x2="-407.5" y2="463.9" gradientUnits="userSpaceOnUse">
			<stop offset="0" stop-color="#d6f2fd"/>
			<stop offset="1" stop-color="#e5f5fd"/>
		</linearGradient>
		<linearGradient id="g74" x1="-428.9" y1="523.7" x2="-413.2" y2="508" gradientUnits="userSpaceOnUse">
			<stop offset="0" stop-color="#00ccff"/>
			<stop offset="1" stop-color="#5ddefe"/>
		</linearGradient>
		<linearGradient id="g75" x1="-425.5" y1="46" x2="-402.5" y2="23" gradientUnits="userSpaceOnUse">
			<stop offset="0" stop-color="#d6f2fd"/>
			<stop offset="1" stop-color="#e5f5fd"/>
		</linearGradient>
		<linearGradient id="g76" x1="-440.9" y1="69.7" x2="-425.2" y2="54" gradientUnits="userSpaceOnUse">
			<stop offset="0" stop-color="#00ccff"/>
			<stop offset="1" stop-color="#5ddefe"/>
		</linearGradient>
		<linearGradient id="g77" x1="11.9" y1="212" x2="57.8" y2="166.1" gradientUnits="userSpaceOnUse">
			<stop offset="0" stop-color="#00ccff"/>
			<stop offset="1" stop-color="#5ddefe"/>
		</linearGradient>
		<linearGradient id="g78" x1="38.1" y1="166.1" x2="45.5" y2="158.7" gradientUnits="userSpaceOnUse">
			<stop offset="0" stop-color="#ffbc27"/>
			<stop offset="1" stop-color="#fde252"/>
		</linearGradient>
		<linearGradient id="g79" x1="44.3" y1="182.6" x2="55.6" y2="171.4" gradientUnits="userSpaceOnUse">
			<stop offset="0" stop-color="#ffbc27"/>
			<stop offset="1" stop-color="#fde252"/>
		</linearGradient>
		<linearGradient id="g80" x1="800.3" y1="55.6" x2="810.2" y2="45.6" gradientUnits="userSpaceOnUse">
			<stop offset="0" stop-color="#d6f2fd"/>
			<stop offset="1" stop-color="#e5f5fd"/>
		</linearGradient>
		<linearGradient id="g81" x1="797.9" y1="21.9" x2="826.9" y2="-7" gradientUnits="userSpaceOnUse">
			<stop offset="0" stop-color="#00ccff"/>
			<stop offset="1" stop-color="#5ddefe"/>
		</linearGradient>
		<linearGradient id="g82" x1="769.5" y1="38" x2="805.5" y2="1.9" gradientUnits="userSpaceOnUse">
			<stop offset="0" stop-color="#d6f2fd"/>
			<stop offset="1" stop-color="#e5f5fd"/>
		</linearGradient>
		<linearGradient id="g83" x1="773" y1="66.9" x2="793" y2="46.9" gradientUnits="userSpaceOnUse">
			<stop offset="0" stop-color="#d6f2fd"/>
			<stop offset="1" stop-color="#e5f5fd"/>
		</linearGradient>
		<linearGradient id="g84" x1="343.3" y1="367.6" x2="353.2" y2="357.6" gradientUnits="userSpaceOnUse">
			<stop offset="0" stop-color="#d6f2fd"/>
			<stop offset="1" stop-color="#e5f5fd"/>
		</linearGradient>
		<linearGradient id="g85" x1="342.5" y1="350" x2="365.5" y2="327" gradientUnits="userSpaceOnUse">
			<stop offset="0" stop-color="#d6f2fd"/>
			<stop offset="1" stop-color="#e5f5fd"/>
		</linearGradient>
		<linearGradient id="g86" x1="316" y1="378.9" x2="336" y2="358.9" gradientUnits="userSpaceOnUse">
			<stop offset="0" stop-color="#d6f2fd"/>
			<stop offset="1" stop-color="#e5f5fd"/>
		</linearGradient>
		<linearGradient id="g87" x1="-284.5" y1="197" x2="-250.5" y2="163" gradientUnits="userSpaceOnUse">
			<stop offset="0" stop-color="#00ccff"/>
			<stop offset="1" stop-color="#5ddefe"/>
		</linearGradient>
		<linearGradient id="g88" x1="-294" y1="207" x2="-276" y2="189" gradientUnits="userSpaceOnUse">
			<stop offset="0" stop-color="#d6f2fd"/>
			<stop offset="1" stop-color="#e5f5fd"/>
		</linearGradient>
		<linearGradient id="g89" x1="473.5" y1="352" x2="507.5" y2="318" gradientUnits="userSpaceOnUse">
			<stop offset="0" stop-color="#00ccff"/>
			<stop offset="1" stop-color="#5ddefe"/>
		</linearGradient>
	</defs>
	<style>
		.s0 { fill: #dff5fe } 
		.s1 { fill: url(#g1) } 
		.s2 { fill: url(#g2) } 
		.s3 { fill: #ffffff } 
		.s4 { fill: url(#g3) } 
		.s5 { fill: url(#g4) } 
		.s6 { fill: url(#g5) } 
		.s7 { fill: url(#g6) } 
		.s8 { fill: url(#g7) } 
		.s9 { fill: url(#g8) } 
		.s10 { fill: url(#g9) } 
		.s11 { fill: url(#g10) } 
		.s12 { fill: url(#g11) } 
		.s13 { fill: url(#g12) } 
		.s14 { fill: url(#g13) } 
		.s15 { fill: url(#g14) } 
		.s16 { fill: url(#g15) } 
		.s17 { fill: url(#g16) } 
		.s18 { fill: url(#g17) } 
		.s19 { fill: url(#g18) } 
		.s20 { fill: url(#g19) } 
		.s21 { fill: url(#g20) } 
		.s22 { fill: url(#g21) } 
		.s23 { fill: url(#g22) } 
		.s24 { fill: url(#g23) } 
		.s25 { fill: url(#g24) } 
		.s26 { fill: url(#g25) } 
		.s27 { fill: url(#g26) } 
		.s28 { fill: url(#g27) } 
		.s29 { fill: url(#g28) } 
		.s30 { fill: url(#g29) } 
		.s31 { fill: url(#g30) } 
		.s32 { fill: url(#g31) } 
		.s33 { fill: url(#g32) } 
		.s34 { fill: url(#g33) } 
		.s35 { fill: url(#g34) } 
		.s36 { fill: url(#g35) } 
		.s37 { fill: url(#g36) } 
		.s38 { fill: url(#g37) } 
		.s39 { fill: url(#g38) } 
		.s40 { fill: url(#g39) } 
		.s41 { fill: url(#g40) } 
		.s42 { fill: url(#g41) } 
		.s43 { fill: url(#g42) } 
		.s44 { fill: url(#g43) } 
		.s45 { fill: url(#g44) } 
		.s46 { fill: url(#g45) } 
		.s47 { fill: url(#g46) } 
		.s48 { fill: url(#g47) } 
		.s49 { fill: url(#g48) } 
		.s50 { fill: url(#g49) } 
		.s51 { fill: url(#g50) } 
		.s52 { fill: url(#g51) } 
		.s53 { fill: url(#g52) } 
		.s54 { fill: url(#g53) } 
		.s55 { fill: url(#g54) } 
		.s56 { fill: url(#g55) } 
		.s57 { fill: url(#g56) } 
		.s58 { fill: url(#g57) } 
		.s59 { fill: url(#g58) } 
		.s60 { fill: url(#g59) } 
		.s61 { fill: url(#g60) } 
		.s62 { fill: url(#g61) } 
		.s63 { fill: url(#g62) } 
		.s64 { fill: url(#g63) } 
		.s65 { fill: url(#g64) } 
		.s66 { fill: url(#g65) } 
		.s67 { fill: url(#g66) } 
		.s68 { fill: url(#g67) } 
		.s69 { fill: url(#g68) } 
		.s70 { fill: url(#g69) } 
		.s71 { fill: url(#g70) } 
		.s72 { fill: url(#g71) } 
		.s73 { fill: url(#g72) } 
		.s74 { fill: url(#g73) } 
		.s75 { fill: url(#g74) } 
		.s76 { fill: url(#g75) } 
		.s77 { fill: url(#g76) } 
		.s78 { fill: url(#g77) } 
		.s79 { fill: url(#g78) } 
		.s80 { fill: url(#g79) } 
		.s81 { fill: url(#g80) } 
		.s82 { fill: url(#g81) } 
		.s83 { fill: url(#g82) } 
		.s84 { fill: url(#g83) } 
		.s85 { fill: url(#g84) } 
		.s86 { fill: url(#g85) } 
		.s87 { fill: url(#g86) } 
		.s88 { fill: url(#g87) } 
		.s89 { fill: url(#g88) } 
		.s90 { fill: url(#g89) } 
	</style>
	<g id="icons">
		<g id="Tornado">
			<path id="tronado" class="s0" d="m-98 321.9h-39c-1.1 0-2-0.9-2-2 0-1.1 0.9-2 2-2h39c1.1 0 2 0.9 2 2 0 1.1-0.9 2-2 2zm-5.1 1.9m-27.9-10.9m23 18.5h-21c-1.1 0-2-0.9-2-2 0-1.1 0.9-2 2-2h21c1.1 0 2 0.9 2 2 0 1.1-0.9 2-2 2zm3 9.5h-18c-1.1 0-2-0.9-2-2 0-1.1 0.9-2 2-2h18c1.1 0 2 0.9 2 2 0 1.1-0.9 2-2 2zm-6 9.5h-12c-1.1 0-2-0.9-2-1.9 0-1.1 0.9-2 2-2h12c1.1 0 2 0.9 2 2 0 1-0.9 1.9-2 1.9zm-9.5 9.6h-1c-1.1 0-2-0.9-2-2 0-1.1 0.9-2 2-2h1c1.1 0 2 0.9 2 2 0 1.1-0.9 2-2 2z"/>
		</g>
		<g id="Snow Night">
			<path id="moon-small" class="s1" d="m-400.3 332.9c-8.2 0-14.8-6.6-14.8-14.7 0-6.5 4.4-12.4 10.7-14.2 0.3 0 0.6 0 0.8 0.2 0.2 0.2 0.2 0.5 0.2 0.8q-0.6 1.8-0.6 3.6c0 7.3 6 13.2 13.2 13.2q1.9 0 3.7-0.5c0.3-0.1 0.5 0 0.7 0.2 0.2 0.2 0.3 0.5 0.2 0.8-1.8 6.3-7.6 10.6-14.1 10.6z"/>
			<path id="cloud-large-night" class="s2" d="m-407.8 350c6 0 10.8-4.8 10.8-10.6 0-5.8-4.8-10.5-10.8-10.5q0 0-0.1 0c-0.9-8.4-8.2-15-17-15-6.9 0-12.9 4.1-15.6 10q-0.1 0-0.2 0c-7.4 0-13.3 5.8-13.3 13 0 7.2 5.9 13.1 13.3 13.1"/>
			<path id="cloud-small" class="s3" d="m-393.8 350c3.7 0 6.8-3 6.8-6.7 0-3.8-3.1-6.8-6.8-6.8q-0.1 0-0.1 0c-0.6-5.3-5.2-9.5-10.7-9.5-4.4 0-8.2 2.6-9.9 6.3q-0.1 0-0.1 0c-4.7 0-8.4 3.8-8.4 8.4 0 4.6 3.7 8.3 8.4 8.3"/>
			<path id="snow-01" class="s4" d="m-439 360.9c0 1.1-0.9 2-2 2-1.1 0-2-0.9-2-2 0-1.1 0.9-2 2-2 1.1 0 2 0.9 2 2zm10 0c0 1.1-0.9 2-2 2-1.1 0-2-0.9-2-2 0-1.1 0.9-2 2-2 1.1 0 2 0.9 2 2zm10 0c0 1.1-0.9 2-2 2-1.1 0-2-0.9-2-2 0-1.1 0.9-2 2-2 1.1 0 2 0.9 2 2zm10 0c0 1.1-0.9 2-2 2-1.1 0-2-0.9-2-2 0-1.1 0.9-2 2-2 1.1 0 2 0.9 2 2zm-30 16.1c0 1.1-0.9 1.9-2 1.9-1.1 0-2-0.8-2-1.9 0-1.1 0.9-2 2-2 1.1 0 2 0.9 2 2zm10 0c0 1.1-0.9 1.9-2 1.9-1.1 0-2-0.8-2-1.9 0-1.1 0.9-2 2-2 1.1 0 2 0.9 2 2zm10 0c0 1.1-0.9 1.9-2 1.9-1.1 0-2-0.8-2-1.9 0-1.1 0.9-2 2-2 1.1 0 2 0.9 2 2zm10 0c0 1.1-0.9 1.9-2 1.9-1.1 0-2-0.8-2-1.9 0-1.1 0.9-2 2-2 1.1 0 2 0.9 2 2zm-35-7.9c0 1.1-0.9 1.9-2 1.9-1.1 0-2-0.8-2-1.9 0-1.1 0.9-2 2-2 1.1 0 2 0.9 2 2zm10 0c0 1.1-0.9 1.9-2 1.9-1.1 0-2-0.8-2-1.9 0-1.1 0.9-2 2-2 1.1 0 2 0.9 2 2zm10 0c0 1.1-0.9 1.9-2 1.9-1.1 0-2-0.8-2-1.9 0-1.1 0.9-2 2-2 1.1 0 2 0.9 2 2zm10 0c0 1.1-0.9 1.9-2 1.9-1.1 0-2-0.8-2-1.9 0-1.1 0.9-2 2-2 1.1 0 2 0.9 2 2z"/>
		</g>
		<g id="Snow">
			<path id="cloud-large" class="s3" d="m654.2 501c6 0 10.8-4.8 10.8-10.6 0-5.8-4.8-10.5-10.8-10.5q0 0-0.1 0c-0.9-8.4-8.2-15-17-15-6.9 0-12.9 4.1-15.6 10q-0.1 0-0.2 0c-7.4 0-13.3 5.8-13.3 13 0 7.2 5.9 13.1 13.3 13.1"/>
			<path id="cloud-small-dark" class="s5" d="m668.2 501c3.7 0 6.8-3 6.8-6.7 0-3.8-3.1-6.8-6.8-6.8q-0.1 0-0.1 0c-0.6-5.3-5.2-9.5-10.7-9.5-4.4 0-8.2 2.6-9.9 6.3q-0.1 0-0.1 0c-4.7 0-8.4 3.8-8.4 8.4 0 4.6 3.7 8.3 8.4 8.3"/>
			<path id="snow-01" class="s6" d="m623 511.9c0 1.1-0.9 2-2 2-1.1 0-2-0.9-2-2 0-1.1 0.9-2 2-2 1.1 0 2 0.9 2 2zm10 0c0 1.1-0.9 2-2 2-1.1 0-2-0.9-2-2 0-1.1 0.9-2 2-2 1.1 0 2 0.9 2 2zm10 0c0 1.1-0.9 2-2 2-1.1 0-2-0.9-2-2 0-1.1 0.9-2 2-2 1.1 0 2 0.9 2 2zm10 0c0 1.1-0.9 2-2 2-1.1 0-2-0.9-2-2 0-1.1 0.9-2 2-2 1.1 0 2 0.9 2 2zm-30 16.1c0 1.1-0.9 1.9-2 1.9-1.1 0-2-0.8-2-1.9 0-1.1 0.9-2 2-2 1.1 0 2 0.9 2 2zm10 0c0 1.1-0.9 1.9-2 1.9-1.1 0-2-0.8-2-1.9 0-1.1 0.9-2 2-2 1.1 0 2 0.9 2 2zm10 0c0 1.1-0.9 1.9-2 1.9-1.1 0-2-0.8-2-1.9 0-1.1 0.9-2 2-2 1.1 0 2 0.9 2 2zm10 0c0 1.1-0.9 1.9-2 1.9-1.1 0-2-0.8-2-1.9 0-1.1 0.9-2 2-2 1.1 0 2 0.9 2 2zm-35-7.9c0 1.1-0.9 1.9-2 1.9-1.1 0-2-0.8-2-1.9 0-1.1 0.9-2 2-2 1.1 0 2 0.9 2 2zm10 0c0 1.1-0.9 1.9-2 1.9-1.1 0-2-0.8-2-1.9 0-1.1 0.9-2 2-2 1.1 0 2 0.9 2 2zm10 0c0 1.1-0.9 1.9-2 1.9-1.1 0-2-0.8-2-1.9 0-1.1 0.9-2 2-2 1.1 0 2 0.9 2 2zm10 0c0 1.1-0.9 1.9-2 1.9-1.1 0-2-0.8-2-1.9 0-1.1 0.9-2 2-2 1.1 0 2 0.9 2 2z"/>
		</g>
		<g id="Smoke">
			<path id="smoke-01" class="s0" d="m330 484.5c0 7.5-6.1 13.5-13.5 13.5-7.5 0-13.5-6-13.5-13.5 0-7.5 6-13.5 13.5-13.5 7.4 0 13.5 6 13.5 13.5z"/>
			<path id="smoke-04" class="s3" d="m323 492.5c0-6.9 5.6-12.5 12.5-12.5 6.9 0 12.4 5.6 12.4 12.5 0 6.9-5.5 12.5-12.4 12.5-6.9 0-12.5-5.6-12.5-12.5z"/>
			<path id="smoke-05" class="s3" d="m362 478.5c0 5.8-4.7 10.5-10.5 10.5-5.8 0-10.5-4.7-10.5-10.5 0-5.8 4.7-10.5 10.5-10.5 5.8 0 10.5 4.7 10.5 10.5z"/>
			<path id="smoke-06" class="s3" d="m354.8 485.9c0 4.9 4 8.9 9 8.9 5 0 9-4 9-8.9 0-5-4-9-9-9-5 0-9 4-9 9z"/>
			<path id="smoke-02" class="s0" d="m343.9 475.9c0 5.6-4.5 10-10 10-5.6 0-10.1-4.4-10.1-10 0-5.5 4.5-10 10.1-10 5.5 0 10 4.5 10 10z"/>
			<path id="smoke-03" class="s7" d="m344.8 488.9c0-4.9 4.1-9 9-9 5 0 9 4.1 9 9 0 5-4 9-9 9-4.9 0-9-4-9-9z"/>
		</g>
		<g id="Sleet">
			<path id="cloud-large" class="s3" d="m47.2 38c6 0 10.8-4.8 10.8-10.6 0-5.8-4.8-10.5-10.8-10.5q0 0-0.1 0c-0.9-8.4-8.2-15-17-15-6.9 0-12.9 4.1-15.6 10q-0.1 0-0.2 0c-7.4 0-13.3 5.8-13.3 13 0 7.2 5.9 13.1 13.3 13.1"/>
			<path id="cloud-small-dark" class="s8" d="m61.2 38c3.7 0 6.8-3 6.8-6.7 0-3.8-3.1-6.8-6.8-6.8q-0.1 0-0.1 0c-0.6-5.3-5.2-9.5-10.7-9.5-4.4 0-8.2 2.6-9.9 6.3q-0.1 0-0.1 0c-4.7 0-8.4 3.8-8.4 8.4 0 4.6 3.7 8.3 8.4 8.3"/>
			<path id="rain-03" class="s9" d="m7.2 60.7q-0.5 0-1-0.3c-1-0.5-1.3-1.8-0.8-2.8l6.6-11.4c0.6-1 1.8-1.3 2.8-0.7 0.9 0.5 1.3 1.8 0.7 2.7l-6.6 11.5c-0.3 0.6-1 1-1.7 1zm7.2 6.2q-0.5 0-1-0.3c-1-0.6-1.3-1.8-0.7-2.8l10.1-17.6c0.5-1 1.8-1.3 2.7-0.7 1 0.5 1.3 1.8 0.8 2.7l-10.1 17.6c-0.4 0.7-1.1 1.1-1.8 1.1z"/>
			<path id="snow-03" class="s10" d="m37 44.9c1.1 0 2 0.9 2 2 0 1.1-0.9 2-2 2-1.1 0-2-0.9-2-2 0-1.1 0.9-2 2-2m10 0c1.1 0 2 0.9 2 2 0 1.1-0.9 2-2 2-1.1 0-2-0.9-2-2 0-1.1 0.9-2 2-2m-17 18.9c0 1.1-0.9 2-2 2-1.1 0-2-0.9-2-2 0-1.1 0.9-2 2-2 1.1 0 2 0.9 2 2zm1-8.6c0-1.2 0.9-2.1 2-2.1 1.1 0 2 0.9 2 2.1 0 1.1-0.9 2-2 2-1.1 0-2-0.9-2-2m14 0c0 1.1-0.9 2-2 2-1.1 0-2-0.9-2-2 0-1.2 0.9-2.1 2-2.1 1.1 0 2 0.9 2 2.1z"/>
		</g>
		<g id="Sleet Night">
			<path id="moon-small" class="s11" d="m812.7 184.9c-8.2 0-14.8-6.6-14.8-14.7 0-6.5 4.4-12.4 10.7-14.2 0.3 0 0.6 0 0.8 0.2 0.2 0.2 0.2 0.5 0.2 0.8q-0.6 1.8-0.6 3.6c0 7.3 6 13.2 13.2 13.2q1.9 0 3.7-0.5c0.3-0.1 0.5 0 0.7 0.2 0.2 0.2 0.3 0.5 0.2 0.8-1.8 6.3-7.6 10.6-14.1 10.6z"/>
			<path id="cloud-large-night" class="s12" d="m806.2 200c6 0 10.8-4.8 10.8-10.6 0-5.8-4.8-10.5-10.8-10.5q0 0-0.1 0c-0.9-8.4-8.2-15-17-15-6.9 0-12.9 4.1-15.6 10q-0.1 0-0.2 0c-7.4 0-13.3 5.8-13.3 13 0 7.2 5.9 13.1 13.3 13.1"/>
			<path id="cloud-small" class="s3" d="m820.2 200c3.7 0 6.8-3 6.8-6.7 0-3.8-3.1-6.8-6.8-6.8q-0.1 0-0.1 0c-0.6-5.3-5.2-9.5-10.7-9.5-4.4 0-8.2 2.6-9.9 6.3q-0.1 0-0.1 0c-4.7 0-8.4 3.8-8.4 8.4 0 4.6 3.7 8.3 8.4 8.3"/>
			<path id="rain-03" class="s13" d="m765.2 222.7q-0.5 0-1-0.3c-1-0.5-1.3-1.8-0.8-2.8l6.6-11.4c0.6-1 1.8-1.3 2.8-0.7 0.9 0.5 1.3 1.8 0.7 2.7l-6.6 11.5c-0.3 0.6-1 1-1.7 1zm7.2 6.2q-0.5 0-1-0.3c-1-0.6-1.3-1.8-0.7-2.8l10.1-17.6c0.5-1 1.8-1.3 2.7-0.7 1 0.5 1.3 1.8 0.8 2.7l-10.1 17.6c-0.4 0.7-1.1 1.1-1.8 1.1z"/>
			<path id="snow-03" class="s14" d="m795 206.9c1.1 0 2 0.9 2 2 0 1.1-0.9 2-2 2-1.1 0-2-0.9-2-2 0-1.1 0.9-2 2-2m10 0c1.1 0 2 0.9 2 2 0 1.1-0.9 2-2 2-1.1 0-2-0.9-2-2 0-1.1 0.9-2 2-2m-17 18.9c0 1.1-0.9 2-2 2-1.1 0-2-0.9-2-2 0-1.1 0.9-2 2-2 1.1 0 2 0.9 2 2zm1-8.6c0-1.2 0.9-2.1 2-2.1 1.1 0 2 0.9 2 2.1 0 1.1-0.9 2-2 2-1.1 0-2-0.9-2-2m14 0c0 1.1-0.9 2-2 2-1.1 0-2-0.9-2-2 0-1.2 0.9-2.1 2-2.1 1.1 0 2 0.9 2 2.1z"/>
		</g>
		<g id="Severe Thunderstorm Night">
			<path id="lightning" class="s15" d="m484.6 33c-1.6 0-3.7 1.2-4.5 2.6l-5.3 9.2c-0.8 1.4-0.1 2.5 1.5 2.4l4.3-0.3c1.7-0.2 2.4 0.9 1.6 2.4l-4.8 8.9c-0.8 1.4-0.4 1.8 0.9 0.7l17.4-14.3c1.3-1.1 1-1.9-0.7-1.8l-6.6 0.3c-1.7 0.1-2.4-1-1.6-2.4l3-5.1c0.8-1.4 0.1-2.6-1.5-2.6z"/>
			<path id="moon-small" class="s16" d="m509.7 20.9c-8.2 0-14.8-6.6-14.8-14.7 0-6.5 4.4-12.4 10.7-14.2 0.3 0 0.6 0 0.8 0.2 0.2 0.2 0.2 0.5 0.2 0.8q-0.6 1.8-0.6 3.6c0 7.3 6 13.2 13.2 13.2q1.9 0 3.7-0.5c0.3-0.1 0.5 0 0.7 0.2 0.2 0.2 0.3 0.5 0.2 0.8-1.8 6.3-7.6 10.6-14.1 10.6z"/>
			<path id="cloud-large-night" class="s17" d="m502.2 37c6 0 10.8-4.8 10.8-10.6 0-5.8-4.8-10.5-10.8-10.5q0 0-0.1 0c-0.9-8.4-8.2-15-17-15-6.9 0-12.9 4.1-15.6 10q-0.1 0-0.2 0c-7.4 0-13.3 5.8-13.3 13 0 7.2 5.9 13.1 13.3 13.1"/>
			<path id="cloud-small" class="s3" d="m516.2 37c3.7 0 6.8-3 6.8-6.7 0-3.8-3.1-6.8-6.8-6.8q-0.1 0-0.1 0c-0.6-5.3-5.2-9.5-10.7-9.5-4.4 0-8.2 2.6-9.9 6.3q-0.1 0-0.1 0c-4.7 0-8.4 3.8-8.4 8.4 0 4.6 3.7 8.3 8.4 8.3"/>
		</g>
		<g id="Severe Thunderstorm">
			<path id="lightning" class="s18" d="m635.6 347c-1.6 0-3.7 1.2-4.5 2.6l-5.3 9.2c-0.8 1.4-0.1 2.5 1.5 2.4l4.3-0.3c1.7-0.2 2.4 0.9 1.6 2.4l-4.8 8.9c-0.8 1.4-0.4 1.8 0.9 0.7l17.4-14.3c1.3-1.1 1-1.9-0.7-1.8l-6.6 0.3c-1.7 0.1-2.4-1-1.6-2.4l3-5.1c0.8-1.4 0.1-2.6-1.5-2.6z"/>
			<path id="cloud-large" class="s3" d="m654.2 350c6 0 10.8-4.8 10.8-10.6 0-5.8-4.8-10.5-10.8-10.5q0 0-0.1 0c-0.9-8.4-8.2-15-17-15-6.9 0-12.9 4.1-15.6 10q-0.1 0-0.2 0c-7.4 0-13.3 5.8-13.3 13 0 7.2 5.9 13.1 13.3 13.1"/>
			<path id="cloud-small-dark" class="s19" d="m668.2 350c3.7 0 6.8-3 6.8-6.7 0-3.8-3.1-6.8-6.8-6.8q-0.1 0-0.1 0c-0.6-5.3-5.2-9.5-10.7-9.5-4.4 0-8.2 2.6-9.9 6.3q-0.1 0-0.1 0c-4.7 0-8.4 3.8-8.4 8.4 0 4.6 3.7 8.3 8.4 8.3"/>
		</g>
		<g id="Scattered Thunderstorm Night">
			<path id="lightning" class="s20" d="m483.6 497c-1.6 0-3.7 1.2-4.5 2.6l-5.3 9.2c-0.8 1.4-0.1 2.5 1.5 2.4l4.3-0.3c1.7-0.2 2.4 0.9 1.6 2.4l-4.8 8.9c-0.8 1.4-0.4 1.8 0.9 0.7l17.4-14.3c1.3-1.1 1-1.9-0.7-1.8l-6.6 0.3c-1.7 0.1-2.4-1-1.6-2.4l3-5.1c0.8-1.4 0.1-2.6-1.5-2.6z"/>
			<path id="moon-small" class="s21" d="m508.7 483.9c-8.2 0-14.8-6.6-14.8-14.7 0-6.5 4.4-12.4 10.7-14.2 0.3 0 0.6 0 0.8 0.2 0.2 0.2 0.2 0.5 0.2 0.8q-0.6 1.8-0.6 3.6c0 7.3 6 13.2 13.2 13.2q1.9 0 3.7-0.5c0.3-0.1 0.5 0 0.7 0.2 0.2 0.2 0.3 0.5 0.2 0.8-1.8 6.3-7.6 10.6-14.1 10.6z"/>
			<path id="star-01" class="s22" d="m519.3 462.3c-0.3 1.1-0.7 1.1-1 0-0.3-1-1.4-2.1-2.4-2.4-1.1-0.3-1.1-0.7 0-1 1-0.3 2.1-1.4 2.4-2.4 0.3-1.1 0.7-1.1 1 0 0.3 1 1.4 2.1 2.4 2.4 1.1 0.3 1.1 0.7 0 1-1 0.3-2.1 1.4-2.4 2.4z"/>
			<path id="star-03" class="s23" d="m463.9 466c-0.2 0.8-0.6 0.8-0.8 0-0.2-0.8-1.1-1.7-1.9-1.9-0.7-0.2-0.7-0.5 0-0.8 0.8-0.2 1.7-1 1.9-1.8 0.2-0.8 0.6-0.8 0.8 0 0.2 0.8 1 1.6 1.8 1.8 0.8 0.3 0.8 0.6 0 0.8-0.8 0.2-1.6 1.1-1.8 1.9z"/>
			<path id="cloud-large-night" class="s24" d="m502.2 501c6 0 10.8-4.8 10.8-10.6 0-5.8-4.8-10.5-10.8-10.5q0 0-0.1 0c-0.9-8.4-8.2-15-17-15-6.9 0-12.9 4.1-15.6 10q-0.1 0-0.2 0c-7.4 0-13.3 5.8-13.3 13 0 7.2 5.9 13.1 13.3 13.1"/>
			<path id="cloud-small" class="s3" d="m516.2 501c3.7 0 6.8-3 6.8-6.7 0-3.8-3.1-6.8-6.8-6.8q-0.1 0-0.1 0c-0.6-5.3-5.2-9.5-10.7-9.5-4.4 0-8.2 2.6-9.9 6.3q-0.1 0-0.1 0c-4.7 0-8.4 3.8-8.4 8.4 0 4.6 3.7 8.3 8.4 8.3"/>
		</g>
		<g id="Scattered Thunderstorm">
			<path id="sun-small" class="s25" d="m-391 172c0 7.2-5.8 13-13 13-7.2 0-13-5.8-13-13 0-7.2 5.8-13 13-13 7.2 0 13 5.8 13 13z"/>
			<path id="lightning" class="s26" d="m-425.4 196c-1.6 0-3.7 1.2-4.5 2.6l-5.3 9.2c-0.8 1.4-0.1 2.5 1.5 2.4l4.3-0.3c1.7-0.2 2.4 0.9 1.6 2.4l-4.8 8.9c-0.8 1.4-0.4 1.8 0.9 0.7l17.4-14.3c1.3-1.1 1-1.9-0.7-1.8l-6.6 0.3c-1.7 0.1-2.4-1-1.6-2.4l3-5.1c0.8-1.4 0.1-2.6-1.5-2.6z"/>
			<path id="cloud-large" class="s3" d="m-406.8 200c6 0 10.8-4.8 10.8-10.6 0-5.8-4.8-10.5-10.8-10.5q0 0-0.1 0c-0.9-8.4-8.2-15-17-15-6.9 0-12.9 4.1-15.6 10q-0.1 0-0.2 0c-7.4 0-13.3 5.8-13.3 13 0 7.2 5.9 13.1 13.3 13.1"/>
			<path id="cloud-small-dark" class="s27" d="m-392.8 200c3.7 0 6.8-3 6.8-6.7 0-3.8-3.1-6.8-6.8-6.8q-0.1 0-0.1 0c-0.6-5.3-5.2-9.5-10.7-9.5-4.4 0-8.2 2.6-9.9 6.3q-0.1 0-0.1 0c-4.7 0-8.4 3.8-8.4 8.4 0 4.6 3.7 8.3 8.4 8.3"/>
		</g>
		<g id="Scattered Showers Night">
			<path id="moon-small" class="s28" d="m811.7 484.9c-8.2 0-14.8-6.6-14.8-14.7 0-6.5 4.4-12.4 10.7-14.2 0.3 0 0.6 0 0.8 0.2 0.2 0.2 0.2 0.5 0.2 0.8q-0.6 1.8-0.6 3.6c0 7.3 6 13.2 13.2 13.2q1.9 0 3.7-0.5c0.3-0.1 0.5 0 0.7 0.2 0.2 0.2 0.3 0.5 0.2 0.8-1.8 6.3-7.6 10.6-14.1 10.6z"/>
			<path id="cloud-large-night" class="s29" d="m806.2 500c6 0 10.8-4.8 10.8-10.6 0-5.8-4.8-10.5-10.8-10.5q0 0-0.1 0c-0.9-8.4-8.2-15-17-15-6.9 0-12.9 4.1-15.6 10q-0.1 0-0.2 0c-7.4 0-13.3 5.8-13.3 13 0 7.2 5.9 13.1 13.3 13.1"/>
			<path id="cloud-small" class="s3" d="m820.2 500c3.7 0 6.8-3 6.8-6.7 0-3.8-3.1-6.8-6.8-6.8q-0.1 0-0.1 0c-0.6-5.3-5.2-9.5-10.7-9.5-4.4 0-8.2 2.6-9.9 6.3q-0.1 0-0.1 0c-4.7 0-8.4 3.8-8.4 8.4 0 4.6 3.7 8.3 8.4 8.3"/>
			<path id="rain-06" class="s30" d="m771.2 516.7q-0.5 0-1-0.2c-0.9-0.6-1.3-1.8-0.7-2.7l2.9-4.9c0.6-0.9 1.8-1.2 2.8-0.7 0.9 0.5 1.3 1.7 0.7 2.7l-2.9 4.8c-0.4 0.7-1.1 1-1.8 1zm13.8 0q-0.5 0-1-0.2c-1-0.6-1.3-1.8-0.8-2.7l2.9-4.9c0.6-0.9 1.8-1.2 2.8-0.7 1 0.5 1.3 1.7 0.7 2.7l-2.9 4.8c-0.4 0.7-1 1-1.7 1zm14.7 0q-0.5 0-1-0.2c-1-0.6-1.3-1.8-0.7-2.7l2.9-4.9c0.5-0.9 1.8-1.2 2.7-0.7 1 0.5 1.3 1.7 0.8 2.7l-2.9 4.8c-0.4 0.7-1.1 1-1.8 1z"/>
		</g>
		<g id="Scattered Showers">
			<path id="sun-small" class="s31" d="m214 471c0 7.2-5.8 13-13 13-7.2 0-13-5.8-13-13 0-7.2 5.8-13 13-13 7.2 0 13 5.8 13 13z"/>
			<path id="cloud-large" class="s3" d="m199.2 500c6 0 10.8-4.8 10.8-10.6 0-5.8-4.8-10.5-10.8-10.5q0 0-0.1 0c-0.9-8.4-8.2-15-17-15-6.9 0-12.9 4.1-15.6 10q-0.1 0-0.2 0c-7.4 0-13.3 5.8-13.3 13 0 7.2 5.9 13.1 13.3 13.1"/>
			<path id="cloud-small-dark" class="s32" d="m213.2 500c3.7 0 6.8-3 6.8-6.7 0-3.8-3.1-6.8-6.8-6.8q-0.1 0-0.1 0c-0.6-5.3-5.2-9.5-10.7-9.5-4.4 0-8.2 2.6-9.9 6.3q-0.1 0-0.1 0c-4.7 0-8.4 3.8-8.4 8.4 0 4.6 3.7 8.3 8.4 8.3"/>
			<path id="rain-06" class="s33" d="m165.2 516.7q-0.5 0-1-0.2c-0.9-0.6-1.3-1.8-0.7-2.7l2.9-4.9c0.6-0.9 1.8-1.2 2.8-0.7 0.9 0.5 1.3 1.7 0.7 2.7l-2.9 4.8c-0.4 0.7-1.1 1-1.8 1zm13.8 0q-0.5 0-1-0.2c-1-0.6-1.3-1.8-0.8-2.7l2.9-4.9c0.6-0.9 1.8-1.2 2.8-0.7 1 0.5 1.3 1.7 0.7 2.7l-2.9 4.8c-0.4 0.7-1 1-1.7 1zm14.7 0q-0.5 0-1-0.2c-1-0.6-1.3-1.8-0.7-2.7l2.9-4.9c0.5-0.9 1.8-1.2 2.7-0.7 1 0.5 1.3 1.7 0.8 2.7l-2.9 4.8c-0.4 0.7-1.1 1-1.8 1z"/>
		</g>
		<g id="Rain Nght">
			<path id="moon-small" class="s34" d="m357.7 184.9c-8.2 0-14.8-6.6-14.8-14.7 0-6.5 4.4-12.4 10.7-14.2 0.3 0 0.6 0 0.8 0.2 0.2 0.2 0.2 0.5 0.2 0.8q-0.6 1.8-0.6 3.6c0 7.3 6 13.2 13.2 13.2q1.9 0 3.7-0.5c0.3-0.1 0.5 0 0.7 0.2 0.2 0.2 0.3 0.5 0.2 0.8-1.8 6.3-7.6 10.6-14.1 10.6z"/>
			<path id="cloud-large-night" class="s35" d="m351.2 200c6 0 10.8-4.8 10.8-10.6 0-5.8-4.8-10.5-10.8-10.5q0 0-0.1 0c-0.9-8.4-8.2-15-17-15-6.9 0-12.9 4.1-15.6 10q-0.1 0-0.2 0c-7.4 0-13.3 5.8-13.3 13 0 7.2 5.9 13.1 13.3 13.1"/>
			<path id="cloud-small" class="s3" d="m365.2 200c3.7 0 6.8-3 6.8-6.7 0-3.8-3.1-6.8-6.8-6.8q-0.1 0-0.1 0c-0.6-5.3-5.2-9.5-10.7-9.5-4.4 0-8.2 2.6-9.9 6.3q-0.1 0-0.1 0c-4.7 0-8.4 3.8-8.4 8.4 0 4.6 3.7 8.3 8.4 8.3"/>
			<path id="rain-01" class="s36" d="m310.2 222.7q-0.5 0-1-0.3c-1-0.6-1.3-1.8-0.7-2.8l6.4-11.6c0.5-0.9 1.8-1.3 2.7-0.7 1 0.6 1.3 1.8 0.7 2.8l-6.4 11.5c-0.4 0.7-1 1.1-1.7 1.1zm11 0q-0.5 0-1-0.3c-0.9-0.6-1.3-1.8-0.7-2.8l6.4-11.6c0.6-0.9 1.8-1.3 2.7-0.7 1 0.6 1.3 1.8 0.8 2.8l-6.5 11.5c-0.3 0.7-1 1.1-1.7 1.1zm11 0q-0.5 0-1-0.3c-0.9-0.6-1.2-1.8-0.7-2.8l6.5-11.6c0.5-0.9 1.7-1.3 2.7-0.7 0.9 0.6 1.2 1.8 0.7 2.8l-6.5 11.5c-0.3 0.7-1 1.1-1.7 1.1z"/>
		</g>
		<g id="Rain">
			<path id="cloud-large" class="s3" d="m-103.8 200c6 0 10.8-4.8 10.8-10.6 0-5.8-4.8-10.5-10.8-10.5q0 0-0.1 0c-0.9-8.4-8.2-15-17-15-6.9 0-12.9 4.1-15.6 10q-0.1 0-0.2 0c-7.4 0-13.3 5.8-13.3 13 0 7.2 5.9 13.1 13.3 13.1"/>
			<path id="cloud-small-dark" class="s37" d="m-89.8 200c3.7 0 6.8-3 6.8-6.7 0-3.8-3.1-6.8-6.8-6.8q-0.1 0-0.1 0c-0.6-5.3-5.2-9.5-10.7-9.5-4.4 0-8.2 2.6-9.9 6.3q-0.1 0-0.1 0c-4.7 0-8.4 3.8-8.4 8.4 0 4.6 3.7 8.3 8.4 8.3"/>
			<path id="rain-01" class="s38" d="m-143.8 222.7q-0.5 0-1-0.3c-1-0.6-1.3-1.8-0.7-2.8l6.4-11.6c0.5-0.9 1.8-1.3 2.7-0.7 1 0.6 1.3 1.8 0.7 2.8l-6.4 11.5c-0.4 0.7-1 1.1-1.7 1.1zm11 0q-0.5 0-1-0.3c-0.9-0.6-1.3-1.8-0.7-2.8l6.4-11.6c0.6-0.9 1.8-1.3 2.7-0.7 1 0.6 1.3 1.8 0.8 2.8l-6.5 11.5c-0.3 0.7-1 1.1-1.7 1.1zm11 0q-0.5 0-1-0.3c-0.9-0.6-1.2-1.8-0.7-2.8l6.5-11.6c0.5-0.9 1.7-1.3 2.7-0.7 0.9 0.6 1.2 1.8 0.7 2.8l-6.5 11.5c-0.3 0.7-1 1.1-1.7 1.1z"/>
		</g>
		<g id="Party Cloudy Night">
			<path id="moon-small" class="s39" d="m357.7 21.9c-8.2 0-14.8-6.6-14.8-14.7 0-6.5 4.4-12.4 10.7-14.2 0.3 0 0.6 0 0.8 0.2 0.2 0.2 0.2 0.5 0.2 0.8q-0.6 1.8-0.6 3.6c0 7.3 6 13.2 13.2 13.2q1.9 0 3.7-0.5c0.3-0.1 0.5 0 0.7 0.2 0.2 0.2 0.3 0.5 0.2 0.8-1.8 6.3-7.6 10.6-14.1 10.6z"/>
			<path id="star-01" class="s40" d="m367.3 0.3c-0.3 1.1-0.7 1.1-1 0-0.3-1-1.4-2.1-2.4-2.4-1.1-0.3-1.1-0.7 0-1 1-0.3 2.1-1.4 2.4-2.4 0.3-1.1 0.7-1.1 1 0 0.3 1 1.4 2.1 2.4 2.4 1.1 0.3 1.1 0.7 0 1-1 0.3-2.1 1.4-2.4 2.4z"/>
			<path id="star-03" class="s41" d="m311.9 3c-0.2 0.8-0.6 0.8-0.8 0-0.2-0.8-1.1-1.7-1.9-1.9-0.7-0.2-0.7-0.5 0-0.8 0.8-0.2 1.7-1 1.9-1.8 0.2-0.8 0.6-0.8 0.8 0 0.2 0.8 1 1.6 1.8 1.8 0.8 0.3 0.8 0.6 0 0.8-0.8 0.2-1.6 1.1-1.8 1.9z"/>
			<path id="cloud-large-night" class="s42" d="m351.2 37c6 0 10.8-4.8 10.8-10.6 0-5.8-4.8-10.5-10.8-10.5q0 0-0.1 0c-0.9-8.4-8.2-15-17-15-6.9 0-12.9 4.1-15.6 10q-0.1 0-0.2 0c-7.4 0-13.3 5.8-13.3 13 0 7.2 5.9 13.1 13.3 13.1"/>
			<path id="cloud-small" class="s3" d="m365.2 37c3.7 0 6.8-3 6.8-6.7 0-3.8-3.1-6.8-6.8-6.8q-0.1 0-0.1 0c-0.6-5.3-5.2-9.5-10.7-9.5-4.4 0-8.2 2.6-9.9 6.3q-0.1 0-0.1 0c-4.7 0-8.4 3.8-8.4 8.4 0 4.6 3.7 8.3 8.4 8.3"/>
		</g>
		<g id="Party Cloudy">
			<path id="sun-small" class="s43" d="m63 326c0 7.2-5.8 13-13 13-7.2 0-13-5.8-13-13 0-7.2 5.8-13 13-13 7.2 0 13 5.8 13 13z"/>
			<path id="cloud-large" class="s3" d="m47.2 355c6 0 10.8-4.8 10.8-10.6 0-5.8-4.8-10.5-10.8-10.5q0 0-0.1 0c-0.9-8.4-8.2-15-17-15-6.9 0-12.9 4.1-15.6 10q-0.1 0-0.2 0c-7.4 0-13.3 5.8-13.3 13 0 7.2 5.9 13.1 13.3 13.1"/>
			<path id="cloud-small-dark" class="s44" d="m61.2 355c3.7 0 6.8-3 6.8-6.7 0-3.8-3.1-6.8-6.8-6.8q-0.1 0-0.1 0c-0.6-5.3-5.2-9.5-10.7-9.5-4.4 0-8.2 2.6-9.9 6.3q-0.1 0-0.1 0c-4.7 0-8.4 3.8-8.4 8.4 0 4.6 3.7 8.3 8.4 8.3"/>
		</g>
		<g id="Mostly Cloudy Night">
			<path id="moon-small" class="s45" d="m812.7 334.9c-8.2 0-14.8-6.6-14.8-14.7 0-6.5 4.4-12.4 10.7-14.2 0.3 0 0.6 0 0.8 0.2 0.2 0.2 0.2 0.5 0.2 0.8q-0.6 1.8-0.6 3.6c0 7.3 6 13.2 13.2 13.2q1.9 0 3.7-0.5c0.3-0.1 0.5 0 0.7 0.2 0.2 0.2 0.3 0.5 0.2 0.8-1.8 6.3-7.6 10.6-14.1 10.6z"/>
			<path id="cloud-large-night" class="s46" d="m806.2 351c6 0 10.8-4.8 10.8-10.6 0-5.8-4.8-10.5-10.8-10.5q0 0-0.1 0c-0.9-8.4-8.2-15-17-15-6.9 0-12.9 4.1-15.6 10q-0.1 0-0.2 0c-7.4 0-13.3 5.8-13.3 13 0 7.2 5.9 13.1 13.3 13.1"/>
			<path id="cloud-small" class="s3" d="m820.2 351c3.7 0 6.8-3 6.8-6.7 0-3.8-3.1-6.8-6.8-6.8q-0.1 0-0.1 0c-0.6-5.3-5.2-9.5-10.7-9.5-4.4 0-8.2 2.6-9.9 6.3q-0.1 0-0.1 0c-4.7 0-8.4 3.8-8.4 8.4 0 4.6 3.7 8.3 8.4 8.3"/>
		</g>
		<g id="Mostly Cloudy">
			<path id="cloud-large" class="s3" d="m199.2 200c6 0 10.8-4.8 10.8-10.6 0-5.8-4.8-10.5-10.8-10.5q0 0-0.1 0c-0.9-8.4-8.2-15-17-15-6.9 0-12.9 4.1-15.6 10q-0.1 0-0.2 0c-7.4 0-13.3 5.8-13.3 13 0 7.2 5.9 13.1 13.3 13.1"/>
			<path id="cloud-small-dark" class="s47" d="m213.2 200c3.7 0 6.8-3 6.8-6.7 0-3.8-3.1-6.8-6.8-6.8q-0.1 0-0.1 0c-0.6-5.3-5.2-9.5-10.7-9.5-4.4 0-8.2 2.6-9.9 6.3q-0.1 0-0.1 0c-4.7 0-8.4 3.8-8.4 8.4 0 4.6 3.7 8.3 8.4 8.3"/>
		</g>
		<g id="Mostly Sunny">
			<path id="sun" class="s48" d="m207 335.5c0 11.3-9.2 20.5-20.5 20.5-11.3 0-20.5-9.2-20.5-20.5 0-11.3 9.2-20.5 20.5-20.5 11.3 0 20.5 9.2 20.5 20.5z"/>
		</g>
		<g id="Mix Rainfall Night">
			<path id="lightning" class="s49" d="m-260.4 33c-1.6 0-3.7 1.2-4.5 2.6l-5.3 9.2c-0.8 1.4-0.1 2.5 1.5 2.4l4.3-0.3c1.7-0.2 2.4 0.9 1.6 2.4l-4.8 8.9c-0.8 1.4-0.4 1.8 0.9 0.7l17.4-14.3c1.3-1.1 1-1.9-0.7-1.8l-6.6 0.3c-1.7 0.1-2.4-1-1.6-2.4l3-5.1c0.8-1.4 0.1-2.6-1.5-2.6z"/>
			<path id="moon-small" class="s50" d="m-249.3 20.9c-8.2 0-14.8-6.6-14.8-14.7 0-6.5 4.4-12.4 10.7-14.2 0.3 0 0.6 0 0.8 0.2 0.2 0.2 0.2 0.5 0.2 0.8q-0.6 1.8-0.6 3.6c0 7.3 6 13.2 13.2 13.2q1.9 0 3.7-0.5c0.3-0.1 0.5 0 0.7 0.2 0.2 0.2 0.3 0.5 0.2 0.8-1.8 6.3-7.6 10.6-14.1 10.6z"/>
			<path id="cloud-large-night" class="s51" d="m-255.8 37c6 0 10.8-4.8 10.8-10.6 0-5.8-4.8-10.5-10.8-10.5q0 0-0.1 0c-0.9-8.4-8.2-15-17-15-6.9 0-12.9 4.1-15.6 10q-0.1 0-0.2 0c-7.4 0-13.3 5.8-13.3 13 0 7.2 5.9 13.1 13.3 13.1"/>
			<path id="cloud-small" class="s3" d="m-241.8 37c3.7 0 6.8-3 6.8-6.7 0-3.8-3.1-6.8-6.8-6.8q-0.1 0-0.1 0c-0.6-5.3-5.2-9.5-10.7-9.5-4.4 0-8.2 2.6-9.9 6.3q-0.1 0-0.1 0c-4.7 0-8.4 3.8-8.4 8.4 0 4.6 3.7 8.3 8.4 8.3"/>
			<path id="rain-02" class="s52" d="m-296.8 59.7q-0.5 0-1-0.3c-1-0.6-1.3-1.8-0.8-2.8l6.6-11.6c0.6-0.9 1.8-1.3 2.8-0.7 0.9 0.6 1.3 1.8 0.7 2.8l-6.6 11.5c-0.3 0.7-1 1.1-1.7 1.1zm10.7 0q-0.5 0-1-0.3c-0.9-0.6-1.3-1.8-0.7-2.8l6.6-11.6c0.5-0.9 1.8-1.3 2.7-0.7 1 0.6 1.3 1.8 0.8 2.8l-6.6 11.5c-0.4 0.7-1.1 1.1-1.8 1.1z"/>
		</g>
		<g id="Mix Rainfall">
			<path id="lightning" class="s53" d="m-109.4 33c-1.6 0-3.7 1.2-4.5 2.6l-5.3 9.2c-0.8 1.4-0.1 2.5 1.5 2.4l4.3-0.3c1.7-0.2 2.4 0.9 1.6 2.4l-4.8 8.9c-0.8 1.4-0.4 1.8 0.9 0.7l17.4-14.3c1.3-1.1 1-1.9-0.7-1.8l-6.6 0.3c-1.7 0.1-2.4-1-1.6-2.4l3-5.1c0.8-1.4 0.1-2.6-1.5-2.6z"/>
			<path id="cloud-large" class="s3" d="m-103.8 38c6 0 10.8-4.8 10.8-10.6 0-5.8-4.8-10.5-10.8-10.5q0 0-0.1 0c-0.9-8.4-8.2-15-17-15-6.9 0-12.9 4.1-15.6 10q-0.1 0-0.2 0c-7.4 0-13.3 5.8-13.3 13 0 7.2 5.9 13.1 13.3 13.1"/>
			<path id="cloud-small-dark" class="s54" d="m-89.8 38c3.7 0 6.8-3 6.8-6.7 0-3.8-3.1-6.8-6.8-6.8q-0.1 0-0.1 0c-0.6-5.3-5.2-9.5-10.7-9.5-4.4 0-8.2 2.6-9.9 6.3q-0.1 0-0.1 0c-4.7 0-8.4 3.8-8.4 8.4 0 4.6 3.7 8.3 8.4 8.3"/>
			<path id="rain-02" class="s55" d="m-144.8 59.7q-0.5 0-1-0.3c-1-0.6-1.3-1.8-0.8-2.8l6.6-11.6c0.6-0.9 1.8-1.3 2.8-0.7 0.9 0.6 1.3 1.8 0.7 2.8l-6.6 11.5c-0.3 0.7-1 1.1-1.7 1.1zm10.7 0q-0.5 0-1-0.3c-0.9-0.6-1.3-1.8-0.7-2.8l6.6-11.6c0.5-0.9 1.8-1.3 2.7-0.7 1 0.6 1.3 1.8 0.8 2.8l-6.6 11.5c-0.4 0.7-1.1 1.1-1.8 1.1z"/>
		</g>
		<g id="Heavy Rain Night">
			<path id="moon-small" class="s56" d="m-97.3 484.9c-8.2 0-14.8-6.6-14.8-14.7 0-6.5 4.4-12.4 10.7-14.2 0.3 0 0.6 0 0.8 0.2 0.2 0.2 0.2 0.5 0.2 0.8q-0.6 1.8-0.6 3.6c0 7.3 6 13.2 13.2 13.2q1.9 0 3.7-0.5c0.3-0.1 0.5 0 0.7 0.2 0.2 0.2 0.3 0.5 0.2 0.8-1.8 6.3-7.6 10.6-14.1 10.6z"/>
			<path id="cloud-large-night" class="s57" d="m-103.8 501c6 0 10.8-4.8 10.8-10.6 0-5.8-4.8-10.5-10.8-10.5q0 0-0.1 0c-0.9-8.4-8.2-15-17-15-6.9 0-12.9 4.1-15.6 10q-0.1 0-0.2 0c-7.4 0-13.3 5.8-13.3 13 0 7.2 5.9 13.1 13.3 13.1"/>
			<path id="cloud-small" class="s3" d="m-89.8 501c3.7 0 6.8-3 6.8-6.7 0-3.8-3.1-6.8-6.8-6.8q-0.1 0-0.1 0c-0.6-5.3-5.2-9.5-10.7-9.5-4.4 0-8.2 2.6-9.9 6.3q-0.1 0-0.1 0c-4.7 0-8.4 3.8-8.4 8.4 0 4.6 3.7 8.3 8.4 8.3"/>
			<path id="rain-04" class="s58" d="m-142.9 523.7q-0.5 0-1-0.3c-0.9-0.5-1.2-1.8-0.7-2.8l6.5-11.4c0.5-1 1.7-1.3 2.7-0.7 0.9 0.5 1.2 1.8 0.7 2.7l-6.4 11.5c-0.4 0.6-1.1 1-1.8 1zm7.1 6.2q-0.5 0-1-0.3c-0.9-0.6-1.3-1.8-0.7-2.8l9.9-17.6c0.5-1 1.7-1.3 2.7-0.7 0.9 0.5 1.2 1.8 0.7 2.7l-9.9 17.6c-0.4 0.7-1 1.1-1.7 1.1zm24.5-7.1q-0.5 0-1-0.3c-0.9-0.5-1.3-1.8-0.7-2.7l5.9-10.6c0.6-1 1.8-1.3 2.7-0.7 1 0.5 1.3 1.8 0.8 2.7l-6 10.6c-0.3 0.7-1 1-1.7 1zm-11.8 3.5q-0.5 0-0.9-0.2c-1-0.6-1.3-1.8-0.8-2.8l7.9-14.1c0.6-1 1.8-1.3 2.7-0.7 1 0.5 1.3 1.8 0.8 2.7l-7.9 14.1c-0.4 0.7-1.1 1-1.8 1z"/>
		</g>
		<g id="Heavy Rain">
			<path id="cloud-large" class="s3" d="m654.2 38c6 0 10.8-4.8 10.8-10.6 0-5.8-4.8-10.5-10.8-10.5q0 0-0.1 0c-0.9-8.4-8.2-15-17-15-6.9 0-12.9 4.1-15.6 10q-0.1 0-0.2 0c-7.4 0-13.3 5.8-13.3 13 0 7.2 5.9 13.1 13.3 13.1"/>
			<path id="cloud-small-dark" class="s59" d="m668.2 38c3.7 0 6.8-3 6.8-6.7 0-3.8-3.1-6.8-6.8-6.8q-0.1 0-0.1 0c-0.6-5.3-5.2-9.5-10.7-9.5-4.4 0-8.2 2.6-9.9 6.3q-0.1 0-0.1 0c-4.7 0-8.4 3.8-8.4 8.4 0 4.6 3.7 8.3 8.4 8.3"/>
			<path id="rain-04" class="s60" d="m615.1 59.7q-0.5 0-1-0.3c-0.9-0.5-1.2-1.8-0.7-2.8l6.5-11.4c0.5-1 1.7-1.3 2.7-0.7 0.9 0.5 1.2 1.8 0.7 2.7l-6.4 11.5c-0.4 0.6-1.1 1-1.8 1zm7.1 6.2q-0.5 0-1-0.3c-0.9-0.6-1.3-1.8-0.7-2.8l9.9-17.6c0.5-1 1.7-1.3 2.7-0.7 0.9 0.5 1.2 1.8 0.7 2.7l-9.9 17.6c-0.4 0.7-1 1.1-1.7 1.1zm24.5-7.1q-0.5 0-1-0.3c-0.9-0.5-1.3-1.8-0.7-2.7l5.9-10.6c0.6-1 1.8-1.3 2.7-0.7 1 0.5 1.3 1.8 0.8 2.7l-6 10.6c-0.3 0.7-1 1-1.7 1zm-11.8 3.5q-0.5 0-0.9-0.2c-1-0.6-1.3-1.8-0.8-2.8l7.9-14.1c0.6-1 1.8-1.3 2.7-0.7 1 0.5 1.3 1.8 0.8 2.7l-7.9 14.1c-0.4 0.7-1.1 1-1.8 1z"/>
		</g>
		<g id="Haze">
			<path id="sun" class="s61" d="m651 185.5c0 11.3-9.2 20.5-20.5 20.5-11.3 0-20.5-9.2-20.5-20.5 0-11.3 9.2-20.5 20.5-20.5 11.3 0 20.5 9.2 20.5 20.5z"/>
			<path id="haze" class="s3" d="m639.5 185.8h-10.1c-0.8 0-1.5-0.7-1.5-1.5 0-0.9 0.7-1.6 1.5-1.6h10.1c0.9 0 1.6 0.7 1.6 1.6 0 0.8-0.7 1.5-1.6 1.5zm21.8 0h-15.2c-0.8 0-1.5-0.7-1.5-1.5 0-0.9 0.7-1.6 1.5-1.6h15.2c0.8 0 1.5 0.7 1.5 1.6 0 0.8-0.7 1.5-1.5 1.5zm-21.8 14.9h-10.1c-0.8 0-1.5-0.7-1.5-1.6 0-0.8 0.7-1.5 1.5-1.5h10.1c0.9 0 1.6 0.7 1.6 1.5 0 0.9-0.7 1.6-1.6 1.6zm21.8 0h-15.2c-0.8 0-1.5-0.7-1.5-1.6 0-0.8 0.7-1.5 1.5-1.5h15.2c0.8 0 1.5 0.7 1.5 1.5 0 0.9-0.7 1.6-1.5 1.6zm-11.7-7.2h-20.2c-0.8 0-1.5-0.7-1.5-1.5 0-0.9 0.7-1.6 1.5-1.6h20.2c0.9 0 1.6 0.7 1.6 1.6 0 0.8-0.7 1.5-1.6 1.5zm21.8 0h-15.2c-0.8 0-1.5-0.7-1.5-1.5 0-0.9 0.7-1.6 1.5-1.6h15.2c0.8 0 1.5 0.7 1.5 1.6 0 0.8-0.7 1.5-1.5 1.5z"/>
		</g>
		<g id="Hail Night">
			<path id="hail" class="s62" d="m476.7 212.8c0 2.7-2.2 4.9-4.9 4.9-2.7 0-4.9-2.2-4.9-4.9 0-2.7 2.2-4.9 4.9-4.9 2.7 0 4.9 2.2 4.9 4.9zm28.2 0c0 2.7-2.2 4.9-4.9 4.9-2.7 0-4.9-2.2-4.9-4.9 0-2.7 2.2-4.9 4.9-4.9 2.7 0 4.9 2.2 4.9 4.9zm-13.6 7.1c0 2.7-2.2 4.9-4.9 4.9-2.7 0-4.9-2.2-4.9-4.9 0-2.7 2.2-4.9 4.9-4.9 2.7 0 4.9 2.2 4.9 4.9z"/>
			<path id="moon-small" class="s63" d="m509.7 183.9c-8.2 0-14.8-6.6-14.8-14.7 0-6.5 4.4-12.4 10.7-14.2 0.3 0 0.6 0 0.8 0.2 0.2 0.2 0.2 0.5 0.2 0.8q-0.6 1.8-0.6 3.6c0 7.3 6 13.2 13.2 13.2q1.9 0 3.7-0.5c0.3-0.1 0.5 0 0.7 0.2 0.2 0.2 0.3 0.5 0.2 0.8-1.8 6.3-7.6 10.6-14.1 10.6z"/>
			<path id="cloud-large-night" class="s64" d="m502.2 200c6 0 10.8-4.8 10.8-10.6 0-5.8-4.8-10.5-10.8-10.5q0 0-0.1 0c-0.9-8.4-8.2-15-17-15-6.9 0-12.9 4.1-15.6 10q-0.1 0-0.2 0c-7.4 0-13.3 5.8-13.3 13 0 7.2 5.9 13.1 13.3 13.1"/>
			<path id="cloud-small" class="s3" d="m516.2 200c3.7 0 6.8-3 6.8-6.7 0-3.8-3.1-6.8-6.8-6.8q-0.1 0-0.1 0c-0.6-5.3-5.2-9.5-10.7-9.5-4.4 0-8.2 2.6-9.9 6.3q-0.1 0-0.1 0c-4.7 0-8.4 3.8-8.4 8.4 0 4.6 3.7 8.3 8.4 8.3"/>
		</g>
		<g id="Hail">
			<path id="hail" class="s65" d="m-281.3 363.8c0 2.7-2.2 4.9-4.9 4.9-2.7 0-4.9-2.2-4.9-4.9 0-2.7 2.2-4.9 4.9-4.9 2.7 0 4.9 2.2 4.9 4.9zm28.2 0c0 2.7-2.2 4.9-4.9 4.9-2.7 0-4.9-2.2-4.9-4.9 0-2.7 2.2-4.9 4.9-4.9 2.7 0 4.9 2.2 4.9 4.9zm-13.6 7.1c0 2.7-2.2 4.9-4.9 4.9-2.7 0-4.9-2.2-4.9-4.9 0-2.7 2.2-4.9 4.9-4.9 2.7 0 4.9 2.2 4.9 4.9z"/>
			<path id="cloud-large" class="s3" d="m-255.8 350c6 0 10.8-4.8 10.8-10.6 0-5.8-4.8-10.5-10.8-10.5q0 0-0.1 0c-0.9-8.4-8.2-15-17-15-6.9 0-12.9 4.1-15.6 10q-0.1 0-0.2 0c-7.4 0-13.3 5.8-13.3 13 0 7.2 5.9 13.1 13.3 13.1"/>
			<path id="cloud-small-dark" class="s66" d="m-241.8 350c3.7 0 6.8-3 6.8-6.7 0-3.8-3.1-6.8-6.8-6.8q-0.1 0-0.1 0c-0.6-5.3-5.2-9.5-10.7-9.5-4.4 0-8.2 2.6-9.9 6.3q-0.1 0-0.1 0c-4.7 0-8.4 3.8-8.4 8.4 0 4.6 3.7 8.3 8.4 8.3"/>
		</g>
		<g id="Fog Night">
			<path id="moon-small" class="s67" d="m206.7 21.9c-8.2 0-14.8-6.6-14.8-14.7 0-6.5 4.4-12.4 10.7-14.2 0.3 0 0.6 0 0.8 0.2 0.2 0.2 0.2 0.5 0.2 0.8q-0.6 1.8-0.6 3.6c0 7.3 6 13.2 13.2 13.2q1.9 0 3.7-0.5c0.3-0.1 0.5 0 0.7 0.2 0.2 0.2 0.3 0.5 0.2 0.8-1.8 6.3-7.6 10.6-14.1 10.6z"/>
			<path id="cloud-large-night" class="s68" d="m198.2 37c6 0 10.8-4.8 10.8-10.6 0-5.8-4.8-10.5-10.8-10.5q0 0-0.1 0c-0.9-8.4-8.2-15-17-15-6.9 0-12.9 4.1-15.6 10q-0.1 0-0.2 0c-7.4 0-13.3 5.8-13.3 13 0 7.2 5.9 13.1 13.3 13.1"/>
			<path id="cloud-small" class="s3" d="m212.2 37c3.7 0 6.8-3 6.8-6.7 0-3.8-3.1-6.8-6.8-6.8q-0.1 0-0.1 0c-0.6-5.3-5.2-9.5-10.7-9.5-4.4 0-8.2 2.6-9.9 6.3q-0.1 0-0.1 0c-4.7 0-8.4 3.8-8.4 8.4 0 4.6 3.7 8.3 8.4 8.3"/>
			<path id="fog" class="s69" d="m173.5 48h-10.1c-0.8 0-1.5-0.7-1.5-1.5 0-0.8 0.7-1.5 1.5-1.5h10.1c0.9 0 1.6 0.7 1.6 1.5 0 0.8-0.7 1.5-1.6 1.5zm21.8 0h-15.2c-0.8 0-1.5-0.7-1.5-1.5 0-0.8 0.7-1.5 1.5-1.5h15.2c0.8 0 1.5 0.7 1.5 1.5 0 0.8-0.7 1.5-1.5 1.5zm-11.7 8h-20.2c-0.8 0-1.5-0.7-1.5-1.5 0-0.8 0.7-1.5 1.5-1.5h20.2c0.9 0 1.6 0.7 1.6 1.5 0 0.8-0.7 1.5-1.6 1.5zm21.8 0h-15.2c-0.8 0-1.5-0.7-1.5-1.5 0-0.8 0.7-1.5 1.5-1.5h15.2c0.8 0 1.5 0.7 1.5 1.5 0 0.8-0.7 1.5-1.5 1.5z"/>
		</g>
		<g id="Fog">
			<path id="cloud-large" class="s3" d="m47.2 500c6 0 10.8-4.8 10.8-10.6 0-5.8-4.8-10.5-10.8-10.5q0 0-0.1 0c-0.9-8.4-8.2-15-17-15-6.9 0-12.9 4.1-15.6 10q-0.1 0-0.2 0c-7.4 0-13.3 5.8-13.3 13 0 7.2 5.9 13.1 13.3 13.1"/>
			<path id="cloud-small-dark" class="s70" d="m61.2 500c3.7 0 6.8-3 6.8-6.7 0-3.8-3.1-6.8-6.8-6.8q-0.1 0-0.1 0c-0.6-5.3-5.2-9.5-10.7-9.5-4.4 0-8.2 2.6-9.9 6.3q-0.1 0-0.1 0c-4.7 0-8.4 3.8-8.4 8.4 0 4.6 3.7 8.3 8.4 8.3"/>
			<path id="fog" class="s71" d="m21.5 510h-10.1c-0.8 0-1.5-0.7-1.5-1.5 0-0.8 0.7-1.5 1.5-1.5h10.1c0.9 0 1.6 0.7 1.6 1.5 0 0.8-0.7 1.5-1.6 1.5zm21.8 0h-15.2c-0.8 0-1.5-0.7-1.5-1.5 0-0.8 0.7-1.5 1.5-1.5h15.2c0.8 0 1.5 0.7 1.5 1.5 0 0.8-0.7 1.5-1.5 1.5zm-11.7 8h-20.2c-0.8 0-1.5-0.7-1.5-1.5 0-0.8 0.7-1.5 1.5-1.5h20.2c0.9 0 1.6 0.7 1.6 1.5 0 0.8-0.7 1.5-1.6 1.5zm21.8 0h-15.2c-0.8 0-1.5-0.7-1.5-1.5 0-0.8 0.7-1.5 1.5-1.5h15.2c0.8 0 1.5 0.7 1.5 1.5 0 0.8-0.7 1.5-1.5 1.5z"/>
		</g>
		<g id="Dust">
			<path id="sun" class="s72" d="m-259 481.5c0 11.3-9.2 20.5-20.5 20.5-11.3 0-20.5-9.2-20.5-20.5 0-11.3 9.2-20.5 20.5-20.5 11.3 0 20.5 9.2 20.5 20.5z"/>
			<path id="dust" class="s3" d="m-267 481c0 1.1-0.9 2-2 2-1.1 0-2-0.9-2-2 0-1.1 0.9-2 2-2 1.1 0 2 0.9 2 2zm10 0c0 1.1-0.9 2-2 2-1.1 0-2-0.9-2-2 0-1.1 0.9-2 2-2 1.1 0 2 0.9 2 2zm10 0c0 1.1-0.9 2-2 2-1.1 0-2-0.9-2-2 0-1.1 0.9-2 2-2 1.1 0 2 0.9 2 2zm10 0c0 1.1-0.9 2-2 2-1.1 0-2-0.9-2-2 0-1.1 0.9-2 2-2 1.1 0 2 0.9 2 2zm-20 14c0 1.1-0.9 2-2 2-1.1 0-2-0.9-2-2 0-1.1 0.9-2 2-2 1.1 0 2 0.9 2 2zm10 0c0 1.1-0.9 2-2 2-1.1 0-2-0.9-2-2 0-1.1 0.9-2 2-2 1.1 0 2 0.9 2 2zm-25-7c0 1.1-0.9 2-2 2-1.1 0-2-0.9-2-2 0-1.1 0.9-2 2-2 1.1 0 2 0.9 2 2zm10 0c0 1.1-0.9 2-2 2-1.1 0-2-0.9-2-2 0-1.1 0.9-2 2-2 1.1 0 2 0.9 2 2zm10 0c0 1.1-0.9 2-2 2-1.1 0-2-0.9-2-2 0-1.1 0.9-2 2-2 1.1 0 2 0.9 2 2zm10 0c0 1.1-0.9 2-2 2-1.1 0-2-0.9-2-2 0-1.1 0.9-2 2-2 1.1 0 2 0.9 2 2z"/>
		</g>
		<g id="Drizzle Night">
			<path id="moon-small" class="s73" d="m-400.3 484.9c-8.2 0-14.8-6.6-14.8-14.7 0-6.5 4.4-12.4 10.7-14.2 0.3 0 0.6 0 0.8 0.2 0.2 0.2 0.2 0.5 0.2 0.8q-0.6 1.8-0.6 3.6c0 7.3 6 13.2 13.2 13.2q1.9 0 3.7-0.5c0.3-0.1 0.5 0 0.7 0.2 0.2 0.2 0.3 0.5 0.2 0.8-1.8 6.3-7.6 10.6-14.1 10.6z"/>
			<path id="cloud-large-night" class="s74" d="m-407.8 500c6 0 10.8-4.8 10.8-10.6 0-5.8-4.8-10.5-10.8-10.5q0 0-0.1 0c-0.9-8.4-8.2-15-17-15-6.9 0-12.9 4.1-15.6 10q-0.1 0-0.2 0c-7.4 0-13.3 5.8-13.3 13 0 7.2 5.9 13.1 13.3 13.1"/>
			<path id="cloud-small" class="s3" d="m-393.8 500c3.7 0 6.8-3 6.8-6.7 0-3.8-3.1-6.8-6.8-6.8q-0.1 0-0.1 0c-0.6-5.3-5.2-9.5-10.7-9.5-4.4 0-8.2 2.6-9.9 6.3q-0.1 0-0.1 0c-4.7 0-8.4 3.8-8.4 8.4 0 4.6 3.7 8.3 8.4 8.3"/>
			<path id="rain-05" class="s75" d="m-441.7 516.7q-0.6 0-1-0.2c-1-0.6-1.3-1.8-0.8-2.7l2.9-4.9c0.6-0.9 1.8-1.2 2.8-0.7 0.9 0.6 1.3 1.8 0.7 2.7l-2.9 4.9c-0.4 0.6-1 0.9-1.7 0.9zm16.2 0q-0.5 0-1-0.2c-1-0.6-1.3-1.8-0.8-2.7l2.9-4.9c0.6-0.9 1.8-1.2 2.8-0.7 1 0.6 1.3 1.8 0.7 2.7l-2.9 4.9c-0.3 0.6-1 0.9-1.7 0.9zm16.2 0q-0.5 0-1-0.2c-1-0.6-1.3-1.8-0.7-2.7l2.9-4.9c0.5-0.9 1.8-1.2 2.7-0.7 1 0.6 1.3 1.8 0.8 2.7l-3 4.9c-0.3 0.6-1 0.9-1.7 0.9zm-27.4 7q-0.5 0-1-0.2c-1-0.6-1.3-1.8-0.7-2.7l2.9-4.9c0.5-0.9 1.7-1.2 2.7-0.7 1 0.6 1.3 1.8 0.7 2.7l-2.9 4.9c-0.3 0.6-1 0.9-1.7 0.9zm16.7 0q-0.5 0-1-0.2c-0.9-0.6-1.3-1.8-0.7-2.7l2.9-4.9c0.5-0.9 1.8-1.2 2.7-0.7 1 0.6 1.3 1.8 0.8 2.7l-2.9 4.9c-0.4 0.6-1.1 0.9-1.8 0.9zm16.7 0q-0.5 0-1-0.2c-0.9-0.6-1.3-1.8-0.7-2.7l2.9-4.9c0.6-0.9 1.8-1.2 2.8-0.7 0.9 0.6 1.3 1.8 0.7 2.7l-2.9 4.9c-0.4 0.6-1.1 0.9-1.8 0.9z"/>
		</g>
		<g id="Drizzle">
			<path id="cloud-large" class="s3" d="m-416.8 46c6 0 10.8-4.8 10.8-10.6 0-5.8-4.8-10.5-10.8-10.5q0 0-0.1 0c-0.9-8.4-8.2-15-17-15-6.9 0-12.9 4.1-15.6 10q-0.1 0-0.2 0c-7.4 0-13.3 5.8-13.3 13 0 7.2 5.9 13.1 13.3 13.1"/>
			<path id="cloud-small-dark" class="s76" d="m-402.8 46c3.7 0 6.8-3 6.8-6.7 0-3.8-3.1-6.8-6.8-6.8q-0.1 0-0.1 0c-0.6-5.3-5.2-9.5-10.7-9.5-4.4 0-8.2 2.6-9.9 6.3q-0.1 0-0.1 0c-4.7 0-8.4 3.8-8.4 8.4 0 4.6 3.7 8.3 8.4 8.3"/>
			<path id="rain-05" class="s77" d="m-453.7 62.7q-0.6 0-1-0.2c-1-0.6-1.3-1.8-0.8-2.7l2.9-4.9c0.6-0.9 1.8-1.2 2.8-0.7 0.9 0.6 1.3 1.8 0.7 2.7l-2.9 4.9c-0.4 0.6-1 0.9-1.7 0.9zm16.2 0q-0.5 0-1-0.2c-1-0.6-1.3-1.8-0.8-2.7l2.9-4.9c0.6-0.9 1.8-1.2 2.8-0.7 1 0.6 1.3 1.8 0.7 2.7l-2.9 4.9c-0.3 0.6-1 0.9-1.7 0.9zm16.2 0q-0.5 0-1-0.2c-1-0.6-1.3-1.8-0.7-2.7l2.9-4.9c0.5-0.9 1.8-1.2 2.7-0.7 1 0.6 1.3 1.8 0.8 2.7l-3 4.9c-0.3 0.6-1 0.9-1.7 0.9zm-27.4 7q-0.5 0-1-0.2c-1-0.6-1.3-1.8-0.7-2.7l2.9-4.9c0.5-0.9 1.7-1.2 2.7-0.7 1 0.6 1.3 1.8 0.7 2.7l-2.9 4.9c-0.3 0.6-1 0.9-1.7 0.9zm16.7 0q-0.5 0-1-0.2c-0.9-0.6-1.3-1.8-0.7-2.7l2.9-4.9c0.5-0.9 1.8-1.2 2.7-0.7 1 0.6 1.3 1.8 0.8 2.7l-2.9 4.9c-0.4 0.6-1.1 0.9-1.8 0.9zm16.7 0q-0.5 0-1-0.2c-0.9-0.6-1.3-1.8-0.7-2.7l2.9-4.9c0.6-0.9 1.8-1.2 2.8-0.7 0.9 0.6 1.3 1.8 0.7 2.7l-2.9 4.9c-0.4 0.6-1.1 0.9-1.8 0.9z"/>
		</g>
		<g id="Clear Night">
			<path id="moon" class="s78" d="m35.3 212c-12.9 0-23.4-10.5-23.4-23.4 0-10.4 7-19.6 17-22.5 0.4-0.1 0.9 0 1.2 0.3 0.3 0.3 0.4 0.8 0.3 1.2q-0.8 2.9-0.8 5.8c0 11.5 9.4 20.9 20.9 20.9q2.9 0 5.8-0.8c0.4-0.1 0.9 0 1.2 0.3 0.3 0.3 0.4 0.8 0.3 1.2-2.9 10-12.1 17-22.5 17z"/>
			<path id="star-01" class="s79" d="m42.3 165.3c-0.3 1.1-0.7 1.1-1 0-0.3-1-1.4-2.1-2.4-2.4-1.1-0.3-1.1-0.7 0-1 1-0.3 2.1-1.4 2.4-2.4 0.3-1.1 0.7-1.1 1 0 0.3 1 1.4 2.1 2.4 2.4 1.1 0.3 1.1 0.7 0 1-1 0.3-2.1 1.4-2.4 2.4z"/>
			<path id="star-02" class="s80" d="m50.7 181.4c-0.4 1.6-1.1 1.6-1.5 0-0.4-1.6-2.1-3.2-3.7-3.6-1.5-0.5-1.5-1.2 0-1.6 1.6-0.4 3.3-2.1 3.7-3.6 0.4-1.6 1.1-1.6 1.5 0 0.5 1.5 2.1 3.2 3.7 3.6 1.6 0.4 1.6 1.1 0 1.6-1.6 0.4-3.2 2-3.7 3.6z"/>
		</g>
		<g id="Blizzard Night">
			<path id="blizzard" class="s81" d="m810.2 50.6c0 2.8-2.2 5-5 5-2.7 0-4.9-2.2-4.9-5 0-2.7 2.2-5 4.9-5 2.8 0 5 2.3 5 5z"/>
			<path id="moon-small" class="s82" d="m812.7 21.9c-8.2 0-14.8-6.6-14.8-14.7 0-6.5 4.4-12.4 10.7-14.2 0.3 0 0.6 0 0.8 0.2 0.2 0.2 0.2 0.5 0.2 0.8q-0.6 1.8-0.6 3.6c0 7.3 6 13.2 13.2 13.2q1.9 0 3.7-0.5c0.3-0.1 0.5 0 0.7 0.2 0.2 0.2 0.3 0.5 0.2 0.8-1.8 6.3-7.6 10.6-14.1 10.6z"/>
			<path id="cloud-large-night" class="s83" d="m805.2 38c6 0 10.8-4.8 10.8-10.6 0-5.8-4.8-10.5-10.8-10.5q0 0-0.1 0c-0.9-8.4-8.2-15-17-15-6.9 0-12.9 4.1-15.6 10q-0.1 0-0.2 0c-7.4 0-13.3 5.8-13.3 13 0 7.2 5.9 13.1 13.3 13.1"/>
			<path id="cloud-small" class="s3" d="m819.2 38c3.7 0 6.8-3 6.8-6.7 0-3.8-3.1-6.8-6.8-6.8q-0.1 0-0.1 0c-0.6-5.3-5.2-9.5-10.7-9.5-4.4 0-8.2 2.6-9.9 6.3q-0.1 0-0.1 0c-4.7 0-8.4 3.8-8.4 8.4 0 4.6 3.7 8.3 8.4 8.3"/>
			<path id="snow-04" class="s84" d="m775 48.9c0 1.1-0.9 2-2 2-1.1 0-2-0.9-2-2 0-1.1 0.9-2 2-2 1.1 0 2 0.9 2 2zm10 0c0 1.1-0.9 2-2 2-1.1 0-2-0.9-2-2 0-1.1 0.9-2 2-2 1.1 0 2 0.9 2 2zm10 0c0 1.1-0.9 2-2 2-1.1 0-2-0.9-2-2 0-1.1 0.9-2 2-2 1.1 0 2 0.9 2 2zm-20 16.1c0 1.1-0.9 1.9-2 1.9-1.1 0-2-0.8-2-1.9 0-1.1 0.9-2 2-2 1.1 0 2 0.9 2 2zm10 0c0 1.1-0.9 1.9-2 1.9-1.1 0-2-0.8-2-1.9 0-1.1 0.9-2 2-2 1.1 0 2 0.9 2 2zm-5-7.9c0 1.1-0.9 1.9-2 1.9-1.1 0-2-0.8-2-1.9 0-1.1 0.9-2 2-2 1.1 0 2 0.9 2 2zm10 0c0 1.1-0.9 1.9-2 1.9-1.1 0-2-0.8-2-1.9 0-1.1 0.9-2 2-2 1.1 0 2 0.9 2 2z"/>
		</g>
		<g id="Blizzard">
			<path id="blizzard" class="s85" d="m353.2 362.6c0 2.8-2.2 5-5 5-2.7 0-4.9-2.2-4.9-5 0-2.7 2.2-5 4.9-5 2.8 0 5 2.3 5 5z"/>
			<path id="cloud-large" class="s3" d="m351.2 350c6 0 10.8-4.8 10.8-10.6 0-5.8-4.8-10.5-10.8-10.5q0 0-0.1 0c-0.9-8.4-8.2-15-17-15-6.9 0-12.9 4.1-15.6 10q-0.1 0-0.2 0c-7.4 0-13.3 5.8-13.3 13 0 7.2 5.9 13.1 13.3 13.1"/>
			<path id="cloud-small-dark" class="s86" d="m365.2 350c3.7 0 6.8-3 6.8-6.7 0-3.8-3.1-6.8-6.8-6.8q-0.1 0-0.1 0c-0.6-5.3-5.2-9.5-10.7-9.5-4.4 0-8.2 2.6-9.9 6.3q-0.1 0-0.1 0c-4.7 0-8.4 3.8-8.4 8.4 0 4.6 3.7 8.3 8.4 8.3"/>
			<path id="snow-04" class="s87" d="m318 360.9c0 1.1-0.9 2-2 2-1.1 0-2-0.9-2-2 0-1.1 0.9-2 2-2 1.1 0 2 0.9 2 2zm10 0c0 1.1-0.9 2-2 2-1.1 0-2-0.9-2-2 0-1.1 0.9-2 2-2 1.1 0 2 0.9 2 2zm10 0c0 1.1-0.9 2-2 2-1.1 0-2-0.9-2-2 0-1.1 0.9-2 2-2 1.1 0 2 0.9 2 2zm-20 16.1c0 1.1-0.9 1.9-2 1.9-1.1 0-2-0.8-2-1.9 0-1.1 0.9-2 2-2 1.1 0 2 0.9 2 2zm10 0c0 1.1-0.9 1.9-2 1.9-1.1 0-2-0.8-2-1.9 0-1.1 0.9-2 2-2 1.1 0 2 0.9 2 2zm-5-7.9c0 1.1-0.9 1.9-2 1.9-1.1 0-2-0.8-2-1.9 0-1.1 0.9-2 2-2 1.1 0 2 0.9 2 2zm10 0c0 1.1-0.9 1.9-2 1.9-1.1 0-2-0.8-2-1.9 0-1.1 0.9-2 2-2 1.1 0 2 0.9 2 2z"/>
		</g>
		<g id="Breezy Snow">
			<path id="breezy" class="s88" d="m-250.7 197c-2.8 0-5.1-2.3-5.1-5.1q0-1.1 0.4-2h-29.3c-0.9 0-1.6-0.7-1.6-1.5 0-0.9 0.7-1.6 1.6-1.6h33.9q0 0 0 0 0 0 0.1 0c2.8 0 5.1 2.3 5.1 5.1 0 2.8-2.3 5.1-5.1 5.1zm10.6-8.8c-2.9 0-5.2-2.3-5.2-5.1q0.1-1 0.4-1.9h-53.6c-0.8 0-1.5-0.7-1.5-1.6 0-0.9 0.7-1.6 1.5-1.6h58.2q0.1 0 0.1 0 0 0 0.1 0c2.8 0 5.1 2.3 5.1 5.1 0 2.8-2.3 5.1-5.1 5.1zm-10.6-25.2c-2.8 0-5.1 2.2-5.1 5q0 1.1 0.4 2h-18.7c-0.9 0-1.6 0.7-1.6 1.6 0 0.8 0.7 1.5 1.6 1.5h23.3q0 0 0 0 0 0 0.1 0c2.8 0 5.1-2.2 5.1-5.1 0-2.8-2.3-5-5.1-5z"/>
			<path id="snow-02" class="s89" d="m-300 196c1.1 0 2 0.9 2 2 0 1.1-0.9 2-2 2-1.1 0-2-0.9-2-2 0-1.1 0.9-2 2-2m10 0c1.1 0 2 0.9 2 2 0 1.1-0.9 2-2 2-1.1 0-2-0.9-2-2 0-1.1 0.9-2 2-2m10 0c1.1 0 2 0.9 2 2 0 1.1-0.9 2-2 2-1.1 0-2-0.9-2-2 0-1.1 0.9-2 2-2m10 0c1.1 0 2 0.9 2 2 0 1.1-0.9 2-2 2-1.1 0-2-0.9-2-2 0-1.1 0.9-2 2-2m-23 9c0 1.1-0.9 2-2 2-1.1 0-2-0.9-2-2 0-1.1 0.9-2 2-2 1.1 0 2 0.9 2 2zm10 0c0 1.1-0.9 2-2 2-1.1 0-2-0.9-2-2 0-1.1 0.9-2 2-2 1.1 0 2 0.9 2 2zm10 0c0 1.1-0.9 2-2 2-1.1 0-2-0.9-2-2 0-1.1 0.9-2 2-2 1.1 0 2 0.9 2 2zm-22-12c-1.1 0-2-0.9-2-2 0-1.1 0.9-2 2-2 1.1 0 2 0.9 2 2m0 0c0 1.1-0.9 2-2 2"/>
		</g>
		<g id="Breezy">
			<path id="breezy" class="s90" d="m507.3 352c-2.8 0-5.1-2.3-5.1-5.1q0-1.1 0.4-2h-29.3c-0.9 0-1.6-0.7-1.6-1.5 0-0.9 0.7-1.6 1.6-1.6h33.9q0 0 0 0 0 0 0.1 0c2.8 0 5.1 2.3 5.1 5.1 0 2.8-2.3 5.1-5.1 5.1zm10.6-8.8c-2.9 0-5.2-2.3-5.2-5.1q0.1-1 0.4-1.9h-53.6c-0.8 0-1.5-0.7-1.5-1.6 0-0.9 0.7-1.6 1.5-1.6h58.2q0.1 0 0.1 0 0 0 0.1 0c2.8 0 5.1 2.3 5.1 5.1 0 2.8-2.3 5.1-5.1 5.1zm-10.6-25.2c-2.8 0-5.1 2.2-5.1 5q0 1.1 0.4 2h-18.7c-0.9 0-1.6 0.7-1.6 1.6 0 0.8 0.7 1.5 1.6 1.5h23.3q0 0 0 0 0 0 0.1 0c2.8 0 5.1-2.2 5.1-5.1 0-2.8-2.3-5-5.1-5z"/>
		</g>
	</g>
</svg>