<svg version="1.2" xmlns="http://www.w3.org/2000/svg" viewBox="0 0 75 42" width="500" height="280">
	<title>weather-icons</title>
	<defs>
		<linearGradient id="g1" x1="44.8" y1="34.9" x2="62.8" y2="16.9" gradientUnits="userSpaceOnUse">
			<stop offset="0" stop-color="#d6f2fd"/>
			<stop offset="1" stop-color="#e5f5fd"/>
		</linearGradient>
	</defs>
	<style>
		.s0 { fill: #dff5fe } 
		.s1 { fill: #ffffff } 
		.s2 { fill: url(#g1) } 
	</style>
	<g id="icons">
		<g id="Smoke">
			<path id="smoke-01" class="s0" d="m30 21.5c0 7.5-6.1 13.5-13.5 13.5-7.5 0-13.5-6-13.5-13.5 0-7.5 6-13.5 13.5-13.5 7.4 0 13.5 6 13.5 13.5z"/>
			<path id="smoke-04" class="s1" d="m23 29.5c0-6.9 5.6-12.5 12.5-12.5 6.9 0 12.4 5.6 12.4 12.5 0 6.9-5.5 12.5-12.4 12.5-6.9 0-12.5-5.6-12.5-12.5z"/>
			<path id="smoke-05" class="s1" d="m62 15.5c0 5.8-4.7 10.5-10.5 10.5-5.8 0-10.5-4.7-10.5-10.5 0-5.8 4.7-10.5 10.5-10.5 5.8 0 10.5 4.7 10.5 10.5z"/>
			<path id="smoke-06" class="s1" d="m54.8 22.9c0 4.9 4 8.9 9 8.9 5 0 9-4 9-8.9 0-5-4-9-9-9-5 0-9 4-9 9z"/>
			<path id="smoke-02" class="s0" d="m43.9 12.9c0 5.6-4.5 10-10 10-5.6 0-10.1-4.4-10.1-10 0-5.5 4.5-10 10.1-10 5.5 0 10 4.5 10 10z"/>
			<path id="smoke-03" class="s2" d="m44.8 25.9c0-4.9 4.1-9 9-9 5 0 9 4.1 9 9 0 5-4 9-9 9-4.9 0-9-4-9-9z"/>
		</g>
	</g>
</svg>