<svg version="1.2" xmlns="http://www.w3.org/2000/svg" viewBox="0 0 74 81" width="500" height="547">
	<title>weather-icons</title>
	<defs>
		<linearGradient id="g1" x1="42.9" y1="32.9" x2="71.9" y2="4" gradientUnits="userSpaceOnUse">
			<stop offset="0" stop-color="#00ccff"/>
			<stop offset="1" stop-color="#5ddefe"/>
		</linearGradient>
		<linearGradient id="g2" x1="14.5" y1="50" x2="50.5" y2="13.9" gradientUnits="userSpaceOnUse">
			<stop offset="0" stop-color="#d6f2fd"/>
			<stop offset="1" stop-color="#e5f5fd"/>
		</linearGradient>
		<linearGradient id="g3" x1="19.5" y1="78.9" x2="39.5" y2="58.9" gradientUnits="userSpaceOnUse">
			<stop offset="0" stop-color="#d6f2fd"/>
			<stop offset="1" stop-color="#e5f5fd"/>
		</linearGradient>
	</defs>
	<style>
		.s0 { fill: url(#g1) } 
		.s1 { fill: url(#g2) } 
		.s2 { fill: #ffffff } 
		.s3 { fill: url(#g3) } 
	</style>
	<g id="icons">
		<g id="Snow Night">
			<path id="moon-small" class="s0" d="m57.7 32.9c-8.2 0-14.8-6.6-14.8-14.7 0-6.5 4.4-12.4 10.7-14.2 0.3 0 0.6 0 0.8 0.2 0.2 0.2 0.2 0.5 0.2 0.8q-0.6 1.8-0.6 3.6c0 7.3 6 13.2 13.2 13.2q1.9 0 3.7-0.5c0.3-0.1 0.5 0 0.7 0.2 0.2 0.2 0.3 0.5 0.2 0.8-1.8 6.3-7.6 10.6-14.1 10.6z"/>
			<path id="cloud-large-night" class="s1" d="m50.2 50c6 0 10.8-4.8 10.8-10.6 0-5.8-4.8-10.5-10.8-10.5q0 0-0.1 0c-0.9-8.4-8.2-15-17-15-6.9 0-12.9 4.1-15.6 10q-0.1 0-0.2 0c-7.4 0-13.3 5.8-13.3 13 0 7.2 5.9 13.1 13.3 13.1"/>
			<path id="cloud-small" class="s2" d="m64.2 50c3.7 0 6.8-3 6.8-6.7 0-3.8-3.1-6.8-6.8-6.8q-0.1 0-0.1 0c-0.6-5.3-5.2-9.5-10.7-9.5-4.4 0-8.2 2.6-9.9 6.3q-0.1 0-0.1 0c-4.7 0-8.4 3.8-8.4 8.4 0 4.6 3.7 8.3 8.4 8.3"/>
			<path id="snow-01" class="s3" d="m19 60.9c0 1.1-0.9 2-2 2-1.1 0-2-0.9-2-2 0-1.1 0.9-2 2-2 1.1 0 2 0.9 2 2zm10 0c0 1.1-0.9 2-2 2-1.1 0-2-0.9-2-2 0-1.1 0.9-2 2-2 1.1 0 2 0.9 2 2zm10 0c0 1.1-0.9 2-2 2-1.1 0-2-0.9-2-2 0-1.1 0.9-2 2-2 1.1 0 2 0.9 2 2zm10 0c0 1.1-0.9 2-2 2-1.1 0-2-0.9-2-2 0-1.1 0.9-2 2-2 1.1 0 2 0.9 2 2zm-30 16.1c0 1.1-0.9 1.9-2 1.9-1.1 0-2-0.8-2-1.9 0-1.1 0.9-2 2-2 1.1 0 2 0.9 2 2zm10 0c0 1.1-0.9 1.9-2 1.9-1.1 0-2-0.8-2-1.9 0-1.1 0.9-2 2-2 1.1 0 2 0.9 2 2zm10 0c0 1.1-0.9 1.9-2 1.9-1.1 0-2-0.8-2-1.9 0-1.1 0.9-2 2-2 1.1 0 2 0.9 2 2zm10 0c0 1.1-0.9 1.9-2 1.9-1.1 0-2-0.8-2-1.9 0-1.1 0.9-2 2-2 1.1 0 2 0.9 2 2zm-35-7.9c0 1.1-0.9 1.9-2 1.9-1.1 0-2-0.8-2-1.9 0-1.1 0.9-2 2-2 1.1 0 2 0.9 2 2zm10 0c0 1.1-0.9 1.9-2 1.9-1.1 0-2-0.8-2-1.9 0-1.1 0.9-2 2-2 1.1 0 2 0.9 2 2zm10 0c0 1.1-0.9 1.9-2 1.9-1.1 0-2-0.8-2-1.9 0-1.1 0.9-2 2-2 1.1 0 2 0.9 2 2zm10 0c0 1.1-0.9 1.9-2 1.9-1.1 0-2-0.8-2-1.9 0-1.1 0.9-2 2-2 1.1 0 2 0.9 2 2z"/>
		</g>
	</g>
</svg>